STARTFONT 2.1
COMMENT
COMMENT Converted from OpenType font "Patriot-Bold.otf" by "otf2bdf 3.0".
COMMENT
FONT -FreeType-Patriot Bold-Medium-R-Normal--39-280-100-100-P-195-ISO10646-1
SIZE 28 100 100
FONTBOUNDINGBOX 68 51 -16 -11
STARTPROPERTIES 19
FOUNDRY "FreeType"
FAMILY_NAME "Patriot Bold"
WEIGHT_NAME "Medium"
SLANT "R"
SETWIDTH_NAME "Normal"
ADD_STYLE_NAME ""
PIXEL_SIZE 39
POINT_SIZE 280
RESOLUTION_X 100
RESOLUTION_Y 100
SPACING "P"
AVERAGE_WIDTH 195
CHARSET_REGISTRY "ISO10646"
CHARSET_ENCODING "1"
FONT_ASCENT 39
FONT_DESCENT 7
COPYRIGHT "Copyright © 2020 by Behalf Studio. All rights reserved."
_OTF_FONTFILE "Patriot-Bold.otf"
_OTF_PSNAME "Patriot-Bold"
ENDPROPERTIES
CHARS 426
STARTCHAR 0020
ENCODING 32
SWIDTH 360 0
DWIDTH 14 0
BBX 0 0 0 0
BITMAP
ENDCHAR
STARTCHAR 0021
ENCODING 33
SWIDTH 282 0
DWIDTH 11 0
BBX 7 28 2 -1
BITMAP
7C
7C
7C
7C
7C
7C
7C
7C
7C
7C
7C
7C
7C
7C
7C
7C
7C
00
00
00
00
3C
7C
FE
FE
FE
7C
10
ENDCHAR
STARTCHAR 0022
ENCODING 34
SWIDTH 334 0
DWIDTH 13 0
BBX 10 8 2 19
BITMAP
F3C0
F3C0
F3C0
F3C0
F3C0
F3C0
F3C0
F3C0
ENDCHAR
STARTCHAR 0023
ENCODING 35
SWIDTH 642 0
DWIDTH 25 0
BBX 21 27 2 0
BITMAP
03E1E0
03C1E0
03C3E0
03C3E0
07C3E0
07C3E0
07C3C0
07C3C0
7FFFF8
7FFFF8
7FFFF8
0F87C0
0F87C0
0F8780
0F8780
0F8780
FFFFF0
FFFFF0
FFFFF0
FFFFF0
1F0F00
1F0F00
1F0F00
1E1F00
1E1F00
3E1F00
3E1F00
ENDCHAR
STARTCHAR 0024
ENCODING 36
SWIDTH 565 0
DWIDTH 22 0
BBX 18 35 2 -4
BITMAP
01E000
01E000
01E000
03F000
0FFC00
1FFE00
3FFF00
3FFF80
7FFF80
7E1F80
7E0F00
7E0000
7F0000
3F8000
3FE000
1FF000
0FFC00
07FE00
01FF00
00FF80
003F80
001FC0
000FC0
1C0FC0
FC0FC0
7E1FC0
7FFFC0
7FFF80
3FFF00
1FFE00
07FC00
01E000
01E000
01E000
01E000
ENDCHAR
STARTCHAR 0025
ENCODING 37
SWIDTH 951 0
DWIDTH 37 0
BBX 33 29 2 -1
BITMAP
07C0000000
1FF001F000
3FF801E000
7FFC03C000
7C7C07C000
F83C078000
F83C0F0000
F83C1F0000
F87C1E0000
7EFC3C0000
7FF87C0000
3FF8F80000
1FE0F00000
0381E00000
0003E00000
0003C1F800
000787FE00
000F8FFF00
000F0FFF00
001E1F9F80
003E1F0F80
007C1E0780
00781E0F80
00F01F0F80
01F01FFF80
01E00FFF00
03C007FE00
07C003FC00
0000006000
ENDCHAR
STARTCHAR 0026
ENCODING 38
SWIDTH 668 0
DWIDTH 26 0
BBX 23 29 2 -1
BITMAP
01F000
07FE00
0FFF80
1FFFC0
3FFFE0
3FFFC0
7F0F80
7E0200
7E0000
7E0000
7E0000
3F8000
3FFFFE
1FFFFE
1FFFFE
3FFFFE
7FFFFE
7E03F0
FE03F0
FC03F0
FC03F0
FE07F0
FF0FE0
7FFFE0
7FFFC0
3FFFC0
1FFF80
07FE00
007000
ENDCHAR
STARTCHAR 0027
ENCODING 39
SWIDTH 180 0
DWIDTH 7 0
BBX 4 8 2 19
BITMAP
F0
F0
F0
F0
F0
F0
F0
F0
ENDCHAR
STARTCHAR 0028
ENCODING 40
SWIDTH 360 0
DWIDTH 14 0
BBX 10 36 2 -6
BITMAP
0300
07C0
07C0
0F80
0F00
1F00
1E00
3E00
3C00
3C00
7800
7800
7800
7800
F000
F000
F000
F000
F000
F000
F000
F000
7800
7800
7800
7800
7C00
3C00
3C00
1E00
1E00
1F00
0F80
0780
07C0
0300
ENDCHAR
STARTCHAR 0029
ENCODING 41
SWIDTH 360 0
DWIDTH 14 0
BBX 10 37 2 -6
BITMAP
3000
7800
7800
7C00
3C00
3E00
1E00
0F00
0F00
0F80
0780
0780
0780
03C0
03C0
03C0
03C0
03C0
03C0
03C0
03C0
03C0
03C0
07C0
0780
0780
0780
0F00
0F00
1F00
1E00
3E00
3C00
7C00
F800
3000
1000
ENDCHAR
STARTCHAR 002A
ENCODING 42
SWIDTH 437 0
DWIDTH 17 0
BBX 14 13 2 14
BITMAP
0300
0780
0780
0780
77B8
FBFC
FFFC
3FF0
0FC0
1FE0
3FF0
3CF0
3CF0
ENDCHAR
STARTCHAR 002B
ENCODING 43
SWIDTH 565 0
DWIDTH 22 0
BBX 19 18 2 4
BITMAP
01F000
01F000
01F000
01F000
01F000
01F000
01F000
FFFFE0
FFFFE0
FFFFE0
FFFFE0
01F000
01F000
01F000
01F000
01F000
01F000
01F000
ENDCHAR
STARTCHAR 002C
ENCODING 44
SWIDTH 282 0
DWIDTH 11 0
BBX 7 8 2 -5
BITMAP
3E
3C
3C
78
78
70
70
E0
ENDCHAR
STARTCHAR 002D
ENCODING 45
SWIDTH 437 0
DWIDTH 17 0
BBX 13 4 2 7
BITMAP
FFF8
FFF8
FFF8
FFF8
ENDCHAR
STARTCHAR 002E
ENCODING 46
SWIDTH 282 0
DWIDTH 11 0
BBX 7 7 2 -1
BITMAP
3C
7C
FE
FE
FE
7C
10
ENDCHAR
STARTCHAR 002F
ENCODING 47
SWIDTH 437 0
DWIDTH 17 0
BBX 13 29 2 -1
BITMAP
00F8
00F8
00F0
01F0
01F0
01E0
01E0
03E0
03E0
03C0
07C0
07C0
0780
0780
0F80
0F80
0F00
1F00
1F00
1E00
1E00
3E00
3E00
3C00
7C00
7C00
7800
7800
F800
ENDCHAR
STARTCHAR 0030
ENCODING 48
SWIDTH 720 0
DWIDTH 28 0
BBX 26 29 1 -1
BITMAP
001F0000
00FFE000
03FFF800
07FFFC00
0FFFFE00
1FFBFF00
3FC07F80
3F003F80
7F001FC0
7E000FC0
7C000FC0
7C0007C0
7C0007C0
FC0007C0
FC0007C0
FC0007C0
7C0007C0
7C0007C0
7E000FC0
7E000FC0
7F001F80
3F803F80
3FC07F00
1FFFFF00
0FFFFE00
07FFFC00
03FFF000
00FFE000
00040000
ENDCHAR
STARTCHAR 0031
ENCODING 49
SWIDTH 334 0
DWIDTH 13 0
BBX 10 27 2 0
BITMAP
0FC0
0FC0
FFC0
FFC0
FFC0
FFC0
FFC0
0FC0
0FC0
0FC0
0FC0
0FC0
0FC0
0FC0
0FC0
0FC0
0FC0
0FC0
0FC0
0FC0
0FC0
0FC0
0FC0
0FC0
0FC0
0FC0
0FC0
ENDCHAR
STARTCHAR 0032
ENCODING 50
SWIDTH 565 0
DWIDTH 22 0
BBX 20 28 1 0
BITMAP
00F800
07FF00
0FFF80
1FFFC0
3FFFC0
3FDFE0
7F07E0
7E03E0
7E03E0
3C03E0
0003E0
0007E0
0007E0
000FC0
001FC0
003F80
003F00
007E00
00FC00
01FC00
03F800
07F000
0FE000
1FFFF0
3FFFF0
7FFFF0
FFFFF0
FFFFF0
ENDCHAR
STARTCHAR 0033
ENCODING 51
SWIDTH 540 0
DWIDTH 21 0
BBX 18 28 2 -1
BITMAP
FFFF80
FFFF80
FFFF00
FFFE00
FFFC00
00F800
01F000
03F000
07E000
0FF800
1FFC00
3FFE00
3FFF00
1FFF80
081F80
000FC0
000FC0
000FC0
000FC0
000FC0
101F80
783F80
FFFF80
FFFF00
7FFE00
3FFC00
1FF800
008000
ENDCHAR
STARTCHAR 0034
ENCODING 52
SWIDTH 565 0
DWIDTH 22 0
BBX 20 27 1 0
BITMAP
003FC0
01FFC0
03FFC0
0FFFC0
0FFFC0
1FFFC0
3F8FC0
3F0FC0
7E0FC0
7E0FC0
FC0FC0
FC0FC0
FC0FC0
FC0FC0
F80FC0
FFFFF0
FFFFF0
FFFFF0
FFFFF0
FFFFF0
000FC0
000FC0
000FC0
000FC0
000FC0
000FC0
000FC0
ENDCHAR
STARTCHAR 0035
ENCODING 53
SWIDTH 540 0
DWIDTH 21 0
BBX 18 28 2 -1
BITMAP
3FFF80
7FFF80
7FFF80
7FFF80
7FFF80
7C0000
7C0000
7C0000
7DE000
7FFC00
7FFE00
FFFF00
FFFF80
FFFFC0
3C1FC0
080FC0
0007C0
0007C0
0007C0
000FC0
180FC0
3C1FC0
7FFF80
FFFF80
7FFF00
3FFE00
0FF800
008000
ENDCHAR
STARTCHAR 0036
ENCODING 54
SWIDTH 617 0
DWIDTH 24 0
BBX 21 28 2 -1
BITMAP
007F00
00FE00
00FC00
01FC00
03F800
03F000
07E000
0FFC00
1FFF80
1FFFC0
3FFFE0
7FFFF0
7F07F0
FE03F8
FC01F8
FC01F8
F800F8
F800F8
FC00F8
FC01F8
FE01F8
7F07F0
7FFFF0
3FFFE0
1FFFC0
0FFF80
03FE00
002000
ENDCHAR
STARTCHAR 0037
ENCODING 55
SWIDTH 488 0
DWIDTH 19 0
BBX 19 27 1 0
BITMAP
FFFFE0
FFFFE0
FFFFE0
FFFFC0
FFFFC0
000F80
001F80
001F80
003F00
003F00
003E00
3FFF80
3FFF80
3FFF80
3FFF80
3FFF80
01F800
01F800
01F000
03F000
03E000
07E000
07E000
07C000
0FC000
0F8000
1F8000
ENDCHAR
STARTCHAR 0038
ENCODING 56
SWIDTH 565 0
DWIDTH 22 0
BBX 20 29 1 -1
BITMAP
00F000
03FE00
0FFF00
1FFF80
1FFF80
1F8FC0
3F0FC0
3F07C0
3F07C0
3F0FC0
1FFF80
1FFF80
1FFF80
3FFFC0
3FFFE0
7F07E0
7E03F0
FC03F0
FC01F0
FC01F0
FC03F0
7C03F0
7E07E0
7FFFE0
3FFFC0
1FFFC0
0FFF00
03FE00
006000
ENDCHAR
STARTCHAR 0039
ENCODING 57
SWIDTH 591 0
DWIDTH 23 0
BBX 22 28 1 0
BITMAP
00FC00
03FF80
0FFFC0
1FFFE0
3FFFF0
3FFFF8
7F03F8
7E01F8
7C00FC
FC00FC
FC00FC
FC00FC
7C00FC
7E00F8
7F01F8
3FC7F8
3FFFF0
1FFFE0
0FFFE0
03FFC0
005F80
003F80
007F00
007E00
00FE00
01FC00
03F800
03F000
ENDCHAR
STARTCHAR 003A
ENCODING 58
SWIDTH 282 0
DWIDTH 11 0
BBX 7 21 2 -1
BITMAP
38
7C
FE
FE
FE
7C
38
00
00
00
00
00
00
00
3C
7C
FE
FE
FE
7C
10
ENDCHAR
STARTCHAR 003B
ENCODING 59
SWIDTH 282 0
DWIDTH 11 0
BBX 8 25 2 -5
BITMAP
18
3E
7F
7F
7F
3E
1C
00
00
00
00
00
00
00
00
00
00
3E
3C
3C
78
78
70
70
E0
ENDCHAR
STARTCHAR 003C
ENCODING 60
SWIDTH 565 0
DWIDTH 22 0
BBX 19 18 2 3
BITMAP
000060
0003E0
001FE0
007FE0
03FFC0
1FFE00
FFF000
FF8000
FC0000
FE0000
FFC000
3FF800
0FFF00
01FFE0
003FE0
0007E0
0001E0
000020
ENDCHAR
STARTCHAR 003D
ENCODING 61
SWIDTH 565 0
DWIDTH 22 0
BBX 19 13 2 6
BITMAP
FFFFE0
FFFFE0
FFFFE0
FFFFE0
000000
000000
000000
000000
FFFFE0
FFFFE0
FFFFE0
FFFFE0
FFFFE0
ENDCHAR
STARTCHAR 003E
ENCODING 62
SWIDTH 565 0
DWIDTH 22 0
BBX 19 18 2 3
BITMAP
C00000
F80000
FE0000
FFC000
7FF800
0FFF00
01FFC0
003FE0
000FE0
000FE0
007FE0
03FF80
1FFC00
FFF000
FF8000
FC0000
E00000
800000
ENDCHAR
STARTCHAR 003F
ENCODING 63
SWIDTH 437 0
DWIDTH 17 0
BBX 14 29 2 -1
BITMAP
0780
1FE0
3FF0
7FF8
FFFC
F8FC
187C
00FC
00F8
01F8
01F0
03E0
07E0
07C0
0FC0
0F80
0F80
0F80
0F80
0000
0000
0000
0780
0FC0
1FC0
1FC0
0FC0
0F80
0200
ENDCHAR
STARTCHAR 0040
ENCODING 64
SWIDTH 822 0
DWIDTH 32 0
BBX 28 29 2 -1
BITMAP
001FE000
00FFFC00
03FFFE00
07F01F80
0F8007C0
1F0003C0
3E0001E0
3C0000E0
781FF8F0
783FF8F0
707FF0F0
F0FFF070
F0F8F0F0
F0F8F0F0
F0F8F0F0
F0F8F0E0
F0FFF1E0
70FFFFC0
707FFF80
783F3F00
38000000
3C000000
1E000100
1F000380
0FC00F80
07FEFF00
01FFFE00
007FF800
00078000
ENDCHAR
STARTCHAR 0041
ENCODING 65
SWIDTH 565 0
DWIDTH 22 0
BBX 20 28 2 0
BITMAP
03E000
0FF800
1FFE00
3FFF00
7FFF00
7FFF80
FE1F80
FC1F80
FC0F80
FC0FC0
FC0FC0
FC0FC0
FC0FC0
FC0FC0
FC0FC0
FC0FC0
FC0FC0
FC0FC0
FC0FC0
FC0FC0
FC0FC0
FC0FC0
FC0FC0
FFFFF0
FFFFF0
FFFFF0
FFFFF0
FFFFF0
ENDCHAR
STARTCHAR 0042
ENCODING 66
SWIDTH 642 0
DWIDTH 25 0
BBX 23 27 1 0
BITMAP
1FFF80
1FFFE0
1FFFF0
1FFFF8
1FFFFC
1F01FC
1F00FC
1F00FC
1F00FC
1F00FC
1F03FC
FFFFF8
FFFFF8
FFFFF8
FFFFFC
FFFFFC
1F00FE
1F007E
1F007E
1F007E
1F00FE
1F03FE
1FFFFC
1FFFFC
1FFFF8
1FFFF0
1FFF80
ENDCHAR
STARTCHAR 0043
ENCODING 67
SWIDTH 668 0
DWIDTH 26 0
BBX 25 29 1 -1
BITMAP
000FC000
007FF800
01FFFE00
07FFFF00
0FFFFF80
1FFFFF00
1FE01E00
3FC00C00
3F000000
7F000000
7E000000
7E000000
7C000000
FC000000
FC000000
FC000000
7E000000
7E000000
7E000000
7F000000
3F800000
3FC00C00
1FF03E00
0FFFFF00
07FFFF80
03FFFF00
01FFFE00
007FF800
00030000
ENDCHAR
STARTCHAR 0044
ENCODING 68
SWIDTH 668 0
DWIDTH 26 0
BBX 23 27 2 0
BITMAP
FFFC00
FFFF80
FFFFC0
FFFFF0
FFFFF8
FC1FF8
FC03FC
FC01FC
FC00FE
FC007E
FC007E
FC007E
FC003E
FC003E
FC003E
FC007E
FC007E
FC007E
FC00FE
FC01FC
FC03FC
FC7FF8
FFFFF0
FFFFE0
FFFFC0
FFFF00
FFFC00
ENDCHAR
STARTCHAR 0045
ENCODING 69
SWIDTH 514 0
DWIDTH 20 0
BBX 19 27 1 0
BITMAP
3FFC00
3FFC00
3FFC00
3FFC00
3FFC00
3F0000
3F0000
3F0000
3F0000
3F0000
3F0000
FFFF00
FFFF00
FFFF00
FFFF00
FFFF00
3F0000
3F0000
3F0000
3F0000
3F0000
3F0000
3FFFE0
3FFFE0
3FFFE0
3FFFE0
3FFFE0
ENDCHAR
STARTCHAR 0046
ENCODING 70
SWIDTH 488 0
DWIDTH 19 0
BBX 18 27 1 0
BITMAP
1FFFC0
1FFFC0
1FFFC0
1FFFC0
1FFFC0
1F8000
1F8000
1F8000
1F8000
1F8000
1F8000
1F8000
FFFF80
FFFF80
FFFF80
FFFF80
FFFF80
1F8000
1F8000
1F8000
1F8000
1F8000
1F8000
1F8000
1F8000
1F8000
1F8000
ENDCHAR
STARTCHAR 0047
ENCODING 71
SWIDTH 822 0
DWIDTH 32 0
BBX 31 29 1 -1
BITMAP
000FC000
007FF800
01FFFE00
07FFFF00
0FFFFF80
1FFFFF00
1FE01E00
3FC00C00
3F000000
7F000000
7E000000
7E000000
7C03FFFE
FC03FFFE
FC03FFFE
FC03FFFE
7E03FFFE
7E0003F8
7E0003F0
7F0003F0
3F8007F0
3FC00FE0
1FF03FE0
0FFFFFC0
07FFFF80
03FFFF00
01FFFE00
007FF800
00070000
ENDCHAR
STARTCHAR 0048
ENCODING 72
SWIDTH 591 0
DWIDTH 23 0
BBX 20 27 1 0
BITMAP
3F03F0
3F03F0
3F03F0
3F03F0
3F03F0
3F03F0
3F03F0
3F03F0
3F03F0
3F03F0
3F03F0
3F03F0
FFFFF0
FFFFF0
FFFFF0
FFFFF0
FFFFF0
3F03F0
3F03F0
3F03F0
3F03F0
3F03F0
3F03F0
3F03F0
3F03F0
3F03F0
3F03F0
ENDCHAR
STARTCHAR 0049
ENCODING 73
SWIDTH 231 0
DWIDTH 9 0
BBX 11 31 -1 1
BITMAP
0400
0600
0600
0F00
FFE0
3FC0
1F80
1F80
1F80
1980
2040
0000
0000
0000
1F80
1F80
1F80
1F80
1F80
1F80
1F80
1F80
1F80
1F80
1F80
1F80
1F80
1F80
1F80
1F80
1F80
ENDCHAR
STARTCHAR 004A
ENCODING 74
SWIDTH 488 0
DWIDTH 19 0
BBX 16 28 1 -1
BITMAP
01FF
01FF
01FF
01FF
01FF
003F
003F
003F
003F
003F
003F
003F
003F
003F
003F
003F
003F
003F
003F
003F
083F
3C7E
FFFE
FFFE
7FFC
3FF8
1FF0
0100
ENDCHAR
STARTCHAR 004B
ENCODING 75
SWIDTH 565 0
DWIDTH 22 0
BBX 20 27 1 0
BITMAP
3F07C0
3F07C0
3F07C0
3F07C0
3F07C0
3F07C0
3F07C0
3F0FC0
3F0FC0
3F0FC0
FFFFC0
FFFF80
FFFF80
FFFFC0
FFFFE0
FFFFE0
3F07E0
3F03F0
3F03F0
3F03F0
3F03F0
3F03F0
3F03F0
3F03F0
3F03F0
3F03F0
3F03F0
ENDCHAR
STARTCHAR 004C
ENCODING 76
SWIDTH 462 0
DWIDTH 18 0
BBX 15 27 2 0
BITMAP
FC00
FC00
FC00
FC00
FC00
FC00
FC00
FC00
FC00
FC00
FC00
FC00
FC00
FC00
FC00
FC00
FC00
FC00
FC00
FC00
FC00
FC00
FFFE
FFFE
FFFE
FFFE
FFFE
ENDCHAR
STARTCHAR 004D
ENCODING 77
SWIDTH 874 0
DWIDTH 34 0
BBX 32 28 1 0
BITMAP
10000000
3803803F
7C03C03F
FF03F03F
FF83F83F
7FC3FC3F
3FF3FE3F
3FFBFFBF
3FFFFFFF
3FFFFFFF
3FFFFFFF
3F7FF7FF
3F3FF3FF
3F0FF0FF
3F07F07F
3F03F03F
3F03F03F
3F03F03F
3F03F03F
3F03F03F
3F03F03F
3F03F03F
3F03F03F
3F03F03F
3F03F03F
3F03F03F
3F03F03F
3F03F03F
ENDCHAR
STARTCHAR 004E
ENCODING 78
SWIDTH 565 0
DWIDTH 22 0
BBX 20 28 1 0
BITMAP
100000
3803F0
7C03F0
FF03F0
FF83F0
7FC3F0
3FF3F0
3FFBF0
3FFFF0
3FFFF0
3FFFF0
3F7FF0
3F3FF0
3F1FF0
3F07F0
3F03F0
3F03F0
3F03F0
3F03F0
3F03F0
3F03F0
3F03F0
3F03F0
3F03F0
3F03F0
3F03F0
3F03F0
3F03F0
ENDCHAR
STARTCHAR 004F
ENCODING 79
SWIDTH 822 0
DWIDTH 32 0
BBX 30 29 1 -1
BITMAP
000FC000
007FF800
01FFFE00
07FFFF80
0FFFFFC0
1FFFFFE0
1FE01FE0
3FC007F0
3F0003F0
7F0003F8
7E0001F8
7E0001F8
7C0000FC
FC0000FC
FC0000FC
FC0000FC
7E0000FC
7E0001F8
7E0001F8
7F0003F8
3F8003F0
3FC00FF0
1FF01FE0
0FFFFFE0
07FFFFC0
03FFFF00
01FFFE00
007FF800
00070000
ENDCHAR
STARTCHAR 0050
ENCODING 80
SWIDTH 565 0
DWIDTH 22 0
BBX 21 27 1 0
BITMAP
3FFF00
3FFFC0
3FFFE0
3FFFF0
3FFFF0
3F07F8
3F01F8
3F01F8
3F01F8
3F01F8
3F01F8
3F07F8
FFFFF0
FFFFF0
FFFFE0
FFFFC0
FFFE00
3F0000
3F0000
3F0000
3F0000
3F0000
3F0000
3F0000
3F0000
3F0000
3F0000
ENDCHAR
STARTCHAR 0051
ENCODING 81
SWIDTH 822 0
DWIDTH 32 0
BBX 30 29 1 -2
BITMAP
000FC000
007FF800
01FFFE00
07FFFF80
0FFFFFC0
1FFFFFE0
1FE01FE0
3FC007F0
3F0003F0
7F0003F8
7E0001F8
7E0001F8
7C0000FC
FC0000FC
FC0000FC
FC0000FC
7E0000FC
7E0001F8
7E0001F8
7F0003F8
3F8003F0
3FC00FF0
1FF01FE0
0FFFFFE0
07FFFFF0
03FFFFF8
01FFFFF0
007FF9E0
000700C0
ENDCHAR
STARTCHAR 0052
ENCODING 82
SWIDTH 617 0
DWIDTH 24 0
BBX 22 27 1 0
BITMAP
3FFF80
3FFFE0
3FFFF0
3FFFF8
3FFFF8
3F03FC
3F00FC
3F00FC
3F00FC
3F00FC
3F01FC
3F0FF8
FFFFF8
FFFFF0
FFFFE0
FFFFE0
FFFFF0
3F03F0
3F03F8
3F01F8
3F01F8
3F01F8
3F01F8
3F01F8
3F01F8
3F01F8
3F01F8
ENDCHAR
STARTCHAR 0053
ENCODING 83
SWIDTH 514 0
DWIDTH 20 0
BBX 18 29 1 -1
BITMAP
03F000
0FFC00
1FFE00
3FFF00
3FFF80
7FFF80
7E1FC0
7E0F00
7E0000
7F0000
3F8000
3FE000
1FF000
0FFC00
07FE00
01FF00
00FF80
003F80
001FC0
000FC0
1C0FC0
FC0FC0
7E1FC0
7FFFC0
3FFF80
3FFF00
1FFF00
07FC00
006000
ENDCHAR
STARTCHAR 0054
ENCODING 84
SWIDTH 514 0
DWIDTH 20 0
BBX 19 27 1 0
BITMAP
FFFFE0
FFFFE0
FFFFE0
FFFFE0
FFFFE0
03F000
03F000
03F000
03F000
03F000
03F000
03F000
03F000
03F000
03F000
03F000
03F000
03F000
03F000
03F000
03F000
03F000
03F000
03F000
03F000
03F000
03F000
ENDCHAR
STARTCHAR 0055
ENCODING 85
SWIDTH 540 0
DWIDTH 21 0
BBX 17 28 2 -1
BITMAP
FC0F80
FC0F80
FC0F80
FC0F80
FC0F80
FC0F80
FC0F80
FC0F80
FC0F80
FC0F80
FC0F80
FC0F80
FC0F80
FC0F80
FC0F80
FC0F80
FC0F80
FC0F80
FC0F80
FC1F80
FC1F80
FE3F80
7FFF80
7FFF00
3FFE00
1FFC00
0FF800
00C000
ENDCHAR
STARTCHAR 0056
ENCODING 86
SWIDTH 488 0
DWIDTH 19 0
BBX 17 27 1 0
BITMAP
F81F80
F81F80
F81F80
F81F80
F81F80
F81F80
F81F80
F81F80
F81F80
F81F80
F81F80
F81F80
F81F80
F81F80
FC1F00
FC3F00
FC3F00
FC3F00
FC3F00
7E7F00
7E7E00
7E7E00
3FFC00
3FFC00
1FF800
0FF000
07F000
ENDCHAR
STARTCHAR 0057
ENCODING 87
SWIDTH 797 0
DWIDTH 31 0
BBX 28 27 1 0
BITMAP
F81F83F0
F81F83F0
F81F83F0
F81F83F0
F81F83F0
F81F83F0
F81F83F0
F81F83F0
F81F83F0
F81F83F0
F81F83F0
F81F83F0
F81F83F0
F81F83F0
FC1F83F0
FC3F83F0
FC3F83F0
FC3F87E0
FC3FC7E0
7E7FC7E0
7E7FCFC0
7E7FEFC0
3FFFFFC0
3FFFFF80
1FFBFF00
0FF1FF00
07F0FE00
ENDCHAR
STARTCHAR 0058
ENCODING 88
SWIDTH 540 0
DWIDTH 21 0
BBX 18 27 2 0
BITMAP
FC0FC0
FC0FC0
FC0FC0
FC0FC0
FC0FC0
FC0FC0
FC0F80
FC1F80
FE3F80
7FFF80
7FFF00
3FFE00
3FFF00
7FFF00
7F7F80
FE1F80
FC1F80
FC0FC0
FC0FC0
FC0FC0
FC0FC0
FC0FC0
FC0FC0
FC0FC0
FC0FC0
FC0FC0
FC0FC0
ENDCHAR
STARTCHAR 0059
ENCODING 89
SWIDTH 514 0
DWIDTH 20 0
BBX 17 27 2 0
BITMAP
F81F80
F81F80
F81F80
F81F80
F81F80
F81F80
F81F80
F81F80
F81F80
F81F80
F81F80
F81F80
FC1F80
FC1F80
FC1F80
FFFF80
7FFF00
7FFE00
3FFE00
1FF800
07E000
07E000
07E000
07E000
07E000
07E000
07E000
ENDCHAR
STARTCHAR 005A
ENCODING 90
SWIDTH 540 0
DWIDTH 21 0
BBX 19 27 1 0
BITMAP
FFFFE0
FFFFE0
FFFFE0
FFFFC0
FFFFC0
001F80
003F80
003F00
007E00
007E00
00FC00
01FC00
01F800
03F800
03F000
07E000
0FE000
0FC000
1FC000
1F8000
3F0000
7F0000
7FFFC0
FFFFC0
FFFFC0
FFFFC0
FFFFC0
ENDCHAR
STARTCHAR 005B
ENCODING 91
SWIDTH 282 0
DWIDTH 11 0
BBX 7 38 2 -6
BITMAP
FE
FE
FE
F0
F0
F0
F0
F0
F0
F0
F0
F0
F0
F0
F0
F0
F0
F0
F0
F0
F0
F0
F0
F0
F0
F0
F0
F0
F0
F0
F0
F0
F0
F0
FE
FE
FE
FE
ENDCHAR
STARTCHAR 005C
ENCODING 92
SWIDTH 437 0
DWIDTH 17 0
BBX 13 29 2 -1
BITMAP
F800
7800
7C00
7C00
7C00
3C00
3E00
3E00
1E00
1F00
1F00
1F00
0F00
0F80
0F80
0780
07C0
07C0
07C0
03C0
03E0
03E0
01E0
01F0
01F0
01F0
00F0
00F8
00F8
ENDCHAR
STARTCHAR 005D
ENCODING 93
SWIDTH 282 0
DWIDTH 11 0
BBX 7 38 2 -6
BITMAP
FE
FE
FE
1E
1E
1E
1E
1E
1E
1E
1E
1E
1E
1E
1E
1E
1E
1E
1E
1E
1E
1E
1E
1E
1E
1E
1E
1E
1E
1E
1E
1E
1E
1E
FE
FE
FE
FE
ENDCHAR
STARTCHAR 005E
ENCODING 94
SWIDTH 540 0
DWIDTH 21 0
BBX 17 11 2 13
BITMAP
03E000
07F000
07F000
0FF800
0F7800
1F7C00
1E3C00
3C1E00
3C1F00
780F00
F80F80
ENDCHAR
STARTCHAR 005F
ENCODING 95
SWIDTH 540 0
DWIDTH 21 0
BBX 17 3 2 -5
BITMAP
FFFF80
FFFF80
FFFF80
ENDCHAR
STARTCHAR 0060
ENCODING 96
SWIDTH 154 0
DWIDTH 6 0
BBX 6 5 0 30
BITMAP
F0
78
38
3C
1C
ENDCHAR
STARTCHAR 0061
ENCODING 97
SWIDTH 565 0
DWIDTH 22 0
BBX 20 28 2 0
BITMAP
03E000
0FF800
1FFE00
3FFF00
7FFF00
7FFF80
FE1F80
FC1F80
FC0F80
FC0FC0
FC0FC0
FC0FC0
FC0FC0
FC0FC0
FC0FC0
FC0FC0
FC0FC0
FC0FC0
FC0FC0
FC0FC0
FC0FC0
FC0FC0
FC0FC0
FFFFF0
FFFFF0
FFFFF0
FFFFF0
FFFFF0
ENDCHAR
STARTCHAR 0062
ENCODING 98
SWIDTH 642 0
DWIDTH 25 0
BBX 23 27 1 0
BITMAP
1FFF80
1FFFE0
1FFFF0
1FFFF8
1FFFFC
1F01FC
1F00FC
1F00FC
1F00FC
1F00FC
1F03FC
FFFFF8
FFFFF8
FFFFF8
FFFFFC
FFFFFC
1F00FE
1F007E
1F007E
1F007E
1F00FE
1F03FE
1FFFFC
1FFFFC
1FFFF8
1FFFF0
1FFF80
ENDCHAR
STARTCHAR 0063
ENCODING 99
SWIDTH 668 0
DWIDTH 26 0
BBX 25 29 1 -1
BITMAP
000FC000
007FF800
01FFFE00
07FFFF00
0FFFFF80
1FFFFF00
1FE01E00
3FC00C00
3F000000
7F000000
7E000000
7E000000
7C000000
FC000000
FC000000
FC000000
7E000000
7E000000
7E000000
7F000000
3F800000
3FC00C00
1FF03E00
0FFFFF00
07FFFF80
03FFFF00
01FFFE00
007FF800
00030000
ENDCHAR
STARTCHAR 0064
ENCODING 100
SWIDTH 668 0
DWIDTH 26 0
BBX 23 27 2 0
BITMAP
FFFC00
FFFF80
FFFFC0
FFFFF0
FFFFF8
FC1FF8
FC03FC
FC01FC
FC00FE
FC007E
FC007E
FC007E
FC003E
FC003E
FC003E
FC007E
FC007E
FC007E
FC00FE
FC01FC
FC03FC
FC7FF8
FFFFF0
FFFFE0
FFFFC0
FFFF00
FFFC00
ENDCHAR
STARTCHAR 0065
ENCODING 101
SWIDTH 514 0
DWIDTH 20 0
BBX 19 27 1 0
BITMAP
3FFC00
3FFC00
3FFC00
3FFC00
3FFC00
3F0000
3F0000
3F0000
3F0000
3F0000
3F0000
FFFF00
FFFF00
FFFF00
FFFF00
FFFF00
3F0000
3F0000
3F0000
3F0000
3F0000
3F0000
3FFFE0
3FFFE0
3FFFE0
3FFFE0
3FFFE0
ENDCHAR
STARTCHAR 0066
ENCODING 102
SWIDTH 488 0
DWIDTH 19 0
BBX 18 27 1 0
BITMAP
1FFFC0
1FFFC0
1FFFC0
1FFFC0
1FFFC0
1F8000
1F8000
1F8000
1F8000
1F8000
1F8000
1F8000
FFFF80
FFFF80
FFFF80
FFFF80
FFFF80
1F8000
1F8000
1F8000
1F8000
1F8000
1F8000
1F8000
1F8000
1F8000
1F8000
ENDCHAR
STARTCHAR 0067
ENCODING 103
SWIDTH 822 0
DWIDTH 32 0
BBX 31 29 1 -1
BITMAP
000FC000
007FF800
01FFFE00
07FFFF00
0FFFFF80
1FFFFF00
1FE01E00
3FC00C00
3F000000
7F000000
7E000000
7E000000
7C03FFFE
FC03FFFE
FC03FFFE
FC03FFFE
7E03FFFE
7E0003F8
7E0003F0
7F0003F0
3F8007F0
3FC00FE0
1FF03FE0
0FFFFFC0
07FFFF80
03FFFF00
01FFFE00
007FF800
00070000
ENDCHAR
STARTCHAR 0068
ENCODING 104
SWIDTH 591 0
DWIDTH 23 0
BBX 20 27 1 0
BITMAP
3F03F0
3F03F0
3F03F0
3F03F0
3F03F0
3F03F0
3F03F0
3F03F0
3F03F0
3F03F0
3F03F0
3F03F0
FFFFF0
FFFFF0
FFFFF0
FFFFF0
FFFFF0
3F03F0
3F03F0
3F03F0
3F03F0
3F03F0
3F03F0
3F03F0
3F03F0
3F03F0
3F03F0
ENDCHAR
STARTCHAR 0069
ENCODING 105
SWIDTH 231 0
DWIDTH 9 0
BBX 11 31 -1 1
BITMAP
0400
0600
0600
0F00
FFE0
3FC0
1F80
1F80
1F80
1980
2040
0000
0000
0000
1F80
1F80
1F80
1F80
1F80
1F80
1F80
1F80
1F80
1F80
1F80
1F80
1F80
1F80
1F80
1F80
1F80
ENDCHAR
STARTCHAR 006A
ENCODING 106
SWIDTH 488 0
DWIDTH 19 0
BBX 16 28 1 -1
BITMAP
01FF
01FF
01FF
01FF
01FF
003F
003F
003F
003F
003F
003F
003F
003F
003F
003F
003F
003F
003F
003F
003F
083F
3C7E
FFFE
FFFE
7FFC
3FF8
1FF0
0100
ENDCHAR
STARTCHAR 006B
ENCODING 107
SWIDTH 565 0
DWIDTH 22 0
BBX 20 27 1 0
BITMAP
3F07C0
3F07C0
3F07C0
3F07C0
3F07C0
3F07C0
3F07C0
3F0FC0
3F0FC0
3F0FC0
FFFFC0
FFFF80
FFFF80
FFFFC0
FFFFE0
FFFFE0
3F07E0
3F03F0
3F03F0
3F03F0
3F03F0
3F03F0
3F03F0
3F03F0
3F03F0
3F03F0
3F03F0
ENDCHAR
STARTCHAR 006C
ENCODING 108
SWIDTH 462 0
DWIDTH 18 0
BBX 15 27 2 0
BITMAP
FC00
FC00
FC00
FC00
FC00
FC00
FC00
FC00
FC00
FC00
FC00
FC00
FC00
FC00
FC00
FC00
FC00
FC00
FC00
FC00
FC00
FC00
FFFE
FFFE
FFFE
FFFE
FFFE
ENDCHAR
STARTCHAR 006D
ENCODING 109
SWIDTH 874 0
DWIDTH 34 0
BBX 32 28 1 0
BITMAP
10000000
3803803F
7C03C03F
FF03F03F
FF83F83F
7FC3FC3F
3FF3FE3F
3FFBFFBF
3FFFFFFF
3FFFFFFF
3FFFFFFF
3F7FF7FF
3F3FF3FF
3F0FF0FF
3F07F07F
3F03F03F
3F03F03F
3F03F03F
3F03F03F
3F03F03F
3F03F03F
3F03F03F
3F03F03F
3F03F03F
3F03F03F
3F03F03F
3F03F03F
3F03F03F
ENDCHAR
STARTCHAR 006E
ENCODING 110
SWIDTH 565 0
DWIDTH 22 0
BBX 20 28 1 0
BITMAP
100000
3803F0
7C03F0
FF03F0
FF83F0
7FC3F0
3FF3F0
3FFBF0
3FFFF0
3FFFF0
3FFFF0
3F7FF0
3F3FF0
3F1FF0
3F07F0
3F03F0
3F03F0
3F03F0
3F03F0
3F03F0
3F03F0
3F03F0
3F03F0
3F03F0
3F03F0
3F03F0
3F03F0
3F03F0
ENDCHAR
STARTCHAR 006F
ENCODING 111
SWIDTH 822 0
DWIDTH 32 0
BBX 30 29 1 -1
BITMAP
000FC000
007FF800
01FFFE00
07FFFF80
0FFFFFC0
1FFFFFE0
1FE01FE0
3FC007F0
3F0003F0
7F0003F8
7E0001F8
7E0001F8
7C0000FC
FC0000FC
FC0000FC
FC0000FC
7E0000FC
7E0001F8
7E0001F8
7F0003F8
3F8003F0
3FC00FF0
1FF01FE0
0FFFFFE0
07FFFFC0
03FFFF00
01FFFE00
007FF800
00070000
ENDCHAR
STARTCHAR 0070
ENCODING 112
SWIDTH 565 0
DWIDTH 22 0
BBX 21 27 1 0
BITMAP
3FFF00
3FFFC0
3FFFE0
3FFFF0
3FFFF0
3F07F8
3F01F8
3F01F8
3F01F8
3F01F8
3F01F8
3F07F8
FFFFF0
FFFFF0
FFFFE0
FFFFC0
FFFE00
3F0000
3F0000
3F0000
3F0000
3F0000
3F0000
3F0000
3F0000
3F0000
3F0000
ENDCHAR
STARTCHAR 0071
ENCODING 113
SWIDTH 822 0
DWIDTH 32 0
BBX 30 29 1 -2
BITMAP
000FC000
007FF800
01FFFE00
07FFFF80
0FFFFFC0
1FFFFFE0
1FE01FE0
3FC007F0
3F0003F0
7F0003F8
7E0001F8
7E0001F8
7C0000FC
FC0000FC
FC0000FC
FC0000FC
7E0000FC
7E0001F8
7E0001F8
7F0003F8
3F8003F0
3FC00FF0
1FF01FE0
0FFFFFE0
07FFFFF0
03FFFFF8
01FFFFF0
007FF9E0
000700C0
ENDCHAR
STARTCHAR 0072
ENCODING 114
SWIDTH 617 0
DWIDTH 24 0
BBX 22 27 1 0
BITMAP
3FFF80
3FFFE0
3FFFF0
3FFFF8
3FFFF8
3F03FC
3F00FC
3F00FC
3F00FC
3F00FC
3F01FC
3F0FF8
FFFFF8
FFFFF0
FFFFE0
FFFFE0
FFFFF0
3F03F0
3F03F8
3F01F8
3F01F8
3F01F8
3F01F8
3F01F8
3F01F8
3F01F8
3F01F8
ENDCHAR
STARTCHAR 0073
ENCODING 115
SWIDTH 514 0
DWIDTH 20 0
BBX 18 29 1 -1
BITMAP
03F000
0FFC00
1FFE00
3FFF00
3FFF80
7FFF80
7E1FC0
7E0F00
7E0000
7F0000
3F8000
3FE000
1FF000
0FFC00
07FE00
01FF00
00FF80
003F80
001FC0
000FC0
1C0FC0
FC0FC0
7E1FC0
7FFFC0
3FFF80
3FFF00
1FFF00
07FC00
006000
ENDCHAR
STARTCHAR 0074
ENCODING 116
SWIDTH 514 0
DWIDTH 20 0
BBX 19 27 1 0
BITMAP
FFFFE0
FFFFE0
FFFFE0
FFFFE0
FFFFE0
03F000
03F000
03F000
03F000
03F000
03F000
03F000
03F000
03F000
03F000
03F000
03F000
03F000
03F000
03F000
03F000
03F000
03F000
03F000
03F000
03F000
03F000
ENDCHAR
STARTCHAR 0075
ENCODING 117
SWIDTH 540 0
DWIDTH 21 0
BBX 17 28 2 -1
BITMAP
FC0F80
FC0F80
FC0F80
FC0F80
FC0F80
FC0F80
FC0F80
FC0F80
FC0F80
FC0F80
FC0F80
FC0F80
FC0F80
FC0F80
FC0F80
FC0F80
FC0F80
FC0F80
FC0F80
FC1F80
FC1F80
FE3F80
7FFF80
7FFF00
3FFE00
1FFC00
0FF800
00C000
ENDCHAR
STARTCHAR 0076
ENCODING 118
SWIDTH 488 0
DWIDTH 19 0
BBX 17 27 1 0
BITMAP
F81F80
F81F80
F81F80
F81F80
F81F80
F81F80
F81F80
F81F80
F81F80
F81F80
F81F80
F81F80
F81F80
F81F80
FC1F00
FC3F00
FC3F00
FC3F00
FC3F00
7E7F00
7E7E00
7E7E00
3FFC00
3FFC00
1FF800
0FF000
07F000
ENDCHAR
STARTCHAR 0077
ENCODING 119
SWIDTH 797 0
DWIDTH 31 0
BBX 28 27 1 0
BITMAP
F81F83F0
F81F83F0
F81F83F0
F81F83F0
F81F83F0
F81F83F0
F81F83F0
F81F83F0
F81F83F0
F81F83F0
F81F83F0
F81F83F0
F81F83F0
F81F83F0
FC1F83F0
FC3F83F0
FC3F83F0
FC3F87E0
FC3FC7E0
7E7FC7E0
7E7FCFC0
7E7FEFC0
3FFFFFC0
3FFFFF80
1FFBFF00
0FF1FF00
07F0FE00
ENDCHAR
STARTCHAR 0078
ENCODING 120
SWIDTH 540 0
DWIDTH 21 0
BBX 18 27 2 0
BITMAP
FC0FC0
FC0FC0
FC0FC0
FC0FC0
FC0FC0
FC0FC0
FC0F80
FC1F80
FE3F80
7FFF80
7FFF00
3FFE00
3FFF00
7FFF00
7F7F80
FE1F80
FC1F80
FC0FC0
FC0FC0
FC0FC0
FC0FC0
FC0FC0
FC0FC0
FC0FC0
FC0FC0
FC0FC0
FC0FC0
ENDCHAR
STARTCHAR 0079
ENCODING 121
SWIDTH 514 0
DWIDTH 20 0
BBX 17 27 2 0
BITMAP
F81F80
F81F80
F81F80
F81F80
F81F80
F81F80
F81F80
F81F80
F81F80
F81F80
F81F80
F81F80
FC1F80
FC1F80
FC1F80
FFFF80
7FFF00
7FFE00
3FFE00
1FF800
07E000
07E000
07E000
07E000
07E000
07E000
07E000
ENDCHAR
STARTCHAR 007A
ENCODING 122
SWIDTH 540 0
DWIDTH 21 0
BBX 19 27 1 0
BITMAP
FFFFE0
FFFFE0
FFFFE0
FFFFC0
FFFFC0
001F80
003F80
003F00
007E00
007E00
00FC00
01FC00
01F800
03F800
03F000
07E000
0FE000
0FC000
1FC000
1F8000
3F0000
7F0000
7FFFC0
FFFFC0
FFFFC0
FFFFC0
FFFFC0
ENDCHAR
STARTCHAR 007B
ENCODING 123
SWIDTH 334 0
DWIDTH 13 0
BBX 9 38 2 -6
BITMAP
0F80
0F80
1F80
1F00
1E00
1E00
1E00
1E00
1E00
1E00
1E00
1E00
1E00
1E00
1E00
3C00
7C00
FC00
F800
F800
FC00
3C00
3C00
1E00
1E00
1E00
1E00
1E00
1E00
1E00
1E00
1E00
1E00
1E00
1F80
1F80
0F80
0780
ENDCHAR
STARTCHAR 007C
ENCODING 124
SWIDTH 180 0
DWIDTH 7 0
BBX 3 32 2 -4
BITMAP
E0
E0
E0
E0
E0
E0
E0
E0
E0
E0
E0
E0
E0
E0
E0
E0
E0
E0
E0
E0
E0
E0
E0
E0
E0
E0
E0
E0
E0
E0
E0
E0
ENDCHAR
STARTCHAR 007D
ENCODING 125
SWIDTH 334 0
DWIDTH 13 0
BBX 9 38 2 -6
BITMAP
F800
FC00
FE00
3E00
1E00
1E00
1E00
1E00
1E00
1E00
1E00
1E00
1E00
1E00
1E00
1E00
0F00
0F80
0780
0F80
0F80
1F00
1E00
1E00
1E00
1E00
1E00
1E00
1E00
1E00
1E00
1E00
1E00
1E00
FE00
FC00
FC00
F800
ENDCHAR
STARTCHAR 007E
ENCODING 126
SWIDTH 540 0
DWIDTH 21 0
BBX 18 5 2 10
BITMAP
FFC040
FFFFC0
FFFFC0
FFFFC0
007F80
ENDCHAR
STARTCHAR 00A1
ENCODING 161
SWIDTH 282 0
DWIDTH 11 0
BBX 7 28 2 -4
BITMAP
10
7C
FE
FE
FE
7C
3C
00
00
00
00
7C
7C
7C
7C
7C
7C
7C
7C
7C
7C
7C
7C
7C
7C
7C
7C
7C
ENDCHAR
STARTCHAR 00A2
ENCODING 162
SWIDTH 514 0
DWIDTH 20 0
BBX 16 24 2 2
BITMAP
01E0
01E0
01E0
01F8
0FFE
1FFF
3FFF
3FBE
7C04
7C00
F800
F800
F800
F800
F800
7C00
7E0C
3FFE
3FFF
1FFF
07FC
01F0
01E0
01E0
ENDCHAR
STARTCHAR 00A3
ENCODING 163
SWIDTH 565 0
DWIDTH 22 0
BBX 18 28 2 0
BITMAP
003F00
01FFC0
03FFC0
07FFC0
0FFFC0
1FFFC0
1FE040
1F8000
1F8000
1F8000
1F8000
1F8000
1F8000
FFFF00
FFFF00
FFFF00
0FC000
07E000
07E000
07E000
0FE000
0FC000
FFC000
FFFFC0
FFFFC0
FFFFC0
FFFFC0
FFFFC0
ENDCHAR
STARTCHAR 00A4
ENCODING 164
SWIDTH 617 0
DWIDTH 24 0
BBX 20 19 2 2
BITMAP
300040
78F0E0
FFFFF0
7FFFE0
3FFFC0
1E07C0
3C03C0
3C01C0
3801E0
3801E0
3801E0
3C01C0
3C03C0
1E07C0
1FFFC0
3FFFE0
7FFFF0
79F9E0
3000C0
ENDCHAR
STARTCHAR 00A5
ENCODING 165
SWIDTH 668 0
DWIDTH 26 0
BBX 21 27 3 0
BITMAP
FC01F8
FE03F8
7E03F0
7F07F0
3F07E0
3F8FE0
1F8FC0
1FDFC0
0FDF80
0FFF80
07FF00
07FF00
03FE00
3FFFC0
3FFFC0
3FFFC0
3FFFC0
01F800
01F800
3FFFC0
3FFFC0
3FFFC0
3FFFC0
01F800
01F800
01F800
01F800
ENDCHAR
STARTCHAR 00A6
ENCODING 166
SWIDTH 180 0
DWIDTH 7 0
BBX 3 32 2 -4
BITMAP
E0
E0
E0
E0
E0
E0
E0
E0
E0
E0
E0
E0
E0
00
00
00
00
00
00
00
E0
E0
E0
E0
E0
E0
E0
E0
E0
E0
E0
E0
ENDCHAR
STARTCHAR 00A7
ENCODING 167
SWIDTH 488 0
DWIDTH 19 0
BBX 14 33 3 -5
BITMAP
0780
1FE0
7FF0
7FF8
FFFC
FCFC
F878
FC40
7E00
7F00
3FC0
1FE0
3FF0
7FF8
FDFC
F87C
F07C
F87C
FFFC
7FF8
3FF0
1FE0
0FF0
03F8
01F8
10FC
F8FC
FDFC
FFF8
7FF8
7FF0
1FE0
0380
ENDCHAR
STARTCHAR 00A8
ENCODING 168
SWIDTH 411 0
DWIDTH 16 0
BBX 17 7 0 29
BITMAP
180C00
7C1F00
FE3F00
FE3F80
FE3F00
7C3F00
381E00
ENDCHAR
STARTCHAR 00A9
ENCODING 169
SWIDTH 848 0
DWIDTH 33 0
BBX 29 29 2 -1
BITMAP
001FC000
00FFF800
03FFFE00
07C01F00
0F000780
1E0003C0
1C0001E0
380FC0E0
703FE070
707FF070
70FDE038
E0F04038
E1E00038
E1E00038
E1E00038
E1E00038
E1E00038
60F04038
70FFE038
707FF070
783FE070
380F80E0
1C0001E0
1E0003C0
0F800780
07E01F00
01FFFE00
007FF800
00070000
ENDCHAR
STARTCHAR 00AB
ENCODING 171
SWIDTH 642 0
DWIDTH 25 0
BBX 21 17 2 3
BITMAP
03E1F0
07C3E0
07C7E0
0F87C0
1F0F80
3E1F00
3E3F00
7C3E00
FC7E00
7E3F00
3E1F00
1F0F80
0F87C0
0FC7E0
07C3E0
03E1F0
01F0F8
ENDCHAR
STARTCHAR 00AC
ENCODING 172
SWIDTH 565 0
DWIDTH 22 0
BBX 19 11 2 4
BITMAP
FFFFE0
FFFFE0
FFFFE0
FFFFE0
0003E0
0003E0
0003E0
0003E0
0003E0
0003E0
0003E0
ENDCHAR
STARTCHAR 00AE
ENCODING 174
SWIDTH 514 0
DWIDTH 20 0
BBX 16 15 2 13
BITMAP
07F0
1FF8
381C
7006
63E6
C363
C363
C7E3
C7E3
C363
6363
6006
300C
1E7C
0FF0
ENDCHAR
STARTCHAR 00AF
ENCODING 175
SWIDTH 282 0
DWIDTH 11 0
BBX 11 4 0 30
BITMAP
FFE0
FFE0
FFE0
FFE0
ENDCHAR
STARTCHAR 00B0
ENCODING 176
SWIDTH 360 0
DWIDTH 14 0
BBX 10 10 2 18
BITMAP
1E00
3F00
7380
E1C0
C1C0
E1C0
E1C0
7F80
3F00
0C00
ENDCHAR
STARTCHAR 00B1
ENCODING 177
SWIDTH 565 0
DWIDTH 22 0
BBX 19 18 2 3
BITMAP
01F000
01F000
01F000
01F000
FFFFE0
FFFFE0
FFFFE0
FFFFE0
01F000
01F000
01F000
01F000
000000
000000
FFFFE0
FFFFE0
FFFFE0
FFFFE0
ENDCHAR
STARTCHAR 00B4
ENCODING 180
SWIDTH 154 0
DWIDTH 6 0
BBX 6 5 0 30
BITMAP
3C
38
78
70
F0
ENDCHAR
STARTCHAR 00B6
ENCODING 182
SWIDTH 540 0
DWIDTH 21 0
BBX 17 32 2 -4
BITMAP
00E380
0FE380
1FE380
3FE380
7FE380
7FE380
FFE380
FFE380
FFE380
FFE380
FFE380
7FE380
7FE380
3FE380
1FE380
0FE380
00E380
00E380
00E380
00E380
00E380
00E380
00E380
00E380
00E380
00E380
00E380
00E380
00E380
00E380
00E380
00E380
ENDCHAR
STARTCHAR 00B7
ENCODING 183
SWIDTH 282 0
DWIDTH 11 0
BBX 7 7 2 7
BITMAP
38
7C
FE
FE
FE
7C
38
ENDCHAR
STARTCHAR 00B8
ENCODING 184
SWIDTH 231 0
DWIDTH 9 0
BBX 9 9 0 -9
BITMAP
0600
0E00
0F00
0380
0380
7780
FF80
7F00
1C00
ENDCHAR
STARTCHAR 00BB
ENCODING 187
SWIDTH 642 0
DWIDTH 25 0
BBX 21 17 2 3
BITMAP
7C3E00
3E1F00
3F1F80
1F8F80
0F87C0
07C3E0
07E3F0
03E1F0
01F0F8
03E1F0
07C3E0
0F87C0
0F8FC0
1F0F80
3E1F00
7C3E00
FC7C00
ENDCHAR
STARTCHAR 00BF
ENCODING 191
SWIDTH 437 0
DWIDTH 17 0
BBX 14 28 2 -4
BITMAP
0380
07E0
07E0
0FE0
07E0
07C0
0380
0000
0000
0000
07C0
07C0
07C0
07C0
0FC0
0F80
1F80
3F00
3E00
7E00
7C00
F800
FC70
FEFC
7FF8
7FF8
3FF0
1FE0
ENDCHAR
STARTCHAR 00C0
ENCODING 192
SWIDTH 565 0
DWIDTH 22 0
BBX 20 35 2 0
BITMAP
0F0000
078000
078000
03C000
01C000
000000
000000
03E000
0FF800
1FFE00
3FFF00
7FFF00
7FFF80
FE1F80
FC1F80
FC0F80
FC0FC0
FC0FC0
FC0FC0
FC0FC0
FC0FC0
FC0FC0
FC0FC0
FC0FC0
FC0FC0
FC0FC0
FC0FC0
FC0FC0
FC0FC0
FC0FC0
FFFFF0
FFFFF0
FFFFF0
FFFFF0
FFFFF0
ENDCHAR
STARTCHAR 00C1
ENCODING 193
SWIDTH 565 0
DWIDTH 22 0
BBX 20 35 2 0
BITMAP
007800
007800
00F000
00E000
01E000
000000
000000
03E000
0FF800
1FFE00
3FFF00
7FFF00
7FFF80
FE1F80
FC1F80
FC0F80
FC0FC0
FC0FC0
FC0FC0
FC0FC0
FC0FC0
FC0FC0
FC0FC0
FC0FC0
FC0FC0
FC0FC0
FC0FC0
FC0FC0
FC0FC0
FC0FC0
FFFFF0
FFFFF0
FFFFF0
FFFFF0
FFFFF0
ENDCHAR
STARTCHAR 00C2
ENCODING 194
SWIDTH 565 0
DWIDTH 22 0
BBX 20 35 2 1
BITMAP
00C000
01E000
03E000
07F000
0FF800
000000
000000
03E000
0FF800
1FFE00
3FFF00
7FFF00
7FFF80
FE1F80
FC1F80
FC0F80
FC0FC0
FC0FC0
FC0FC0
FC0FC0
FC0FC0
FC0FC0
FC0FC0
FC0FC0
FC0FC0
FC0FC0
FC0FC0
FC0FC0
FC0FC0
FC0FC0
FFFFF0
FFFFF0
FFFFF0
FFFFF0
FFFFF0
ENDCHAR
STARTCHAR 00C3
ENCODING 195
SWIDTH 565 0
DWIDTH 22 0
BBX 20 35 2 0
BITMAP
0F0000
0FF800
0FF800
0FF800
000000
000000
000000
03E000
0FF800
1FFE00
3FFF00
7FFF00
7FFF80
FE1F80
FC1F80
FC0F80
FC0FC0
FC0FC0
FC0FC0
FC0FC0
FC0FC0
FC0FC0
FC0FC0
FC0FC0
FC0FC0
FC0FC0
FC0FC0
FC0FC0
FC0FC0
FC0FC0
FFFFF0
FFFFF0
FFFFF0
FFFFF0
FFFFF0
ENDCHAR
STARTCHAR 00C4
ENCODING 196
SWIDTH 565 0
DWIDTH 22 0
BBX 20 36 2 0
BITMAP
180600
3E1F00
7E1F80
7F3F80
7E3F80
7E1F80
3C0F00
000000
03E000
0FF800
1FFE00
3FFF00
7FFF00
7FFF80
FE1F80
FC1F80
FC0F80
FC0FC0
FC0FC0
FC0FC0
FC0FC0
FC0FC0
FC0FC0
FC0FC0
FC0FC0
FC0FC0
FC0FC0
FC0FC0
FC0FC0
FC0FC0
FC0FC0
FFFFF0
FFFFF0
FFFFF0
FFFFF0
FFFFF0
ENDCHAR
STARTCHAR 00C5
ENCODING 197
SWIDTH 565 0
DWIDTH 22 0
BBX 20 37 2 0
BITMAP
03E000
07F000
073800
063800
063800
07F000
03F000
00C000
000000
03E000
0FF800
1FFE00
3FFF00
7FFF00
7FFF80
FE1F80
FC1F80
FC0F80
FC0FC0
FC0FC0
FC0FC0
FC0FC0
FC0FC0
FC0FC0
FC0FC0
FC0FC0
FC0FC0
FC0FC0
FC0FC0
FC0FC0
FC0FC0
FC0FC0
FFFFF0
FFFFF0
FFFFF0
FFFFF0
FFFFF0
ENDCHAR
STARTCHAR 00C7
ENCODING 199
SWIDTH 668 0
DWIDTH 26 0
BBX 25 37 1 -9
BITMAP
000FC000
007FF800
01FFFE00
07FFFF00
0FFFFF80
1FFFFF00
1FE01E00
3FC00C00
3F000000
7F000000
7E000000
7E000000
7C000000
FC000000
FC000000
FC000000
7E000000
7E000000
7E000000
7F000000
3F800000
3FC00C00
1FF03E00
0FFFFF00
07FFFF80
03FFFF00
01FFFE00
007FF800
00070000
000E0000
000F0000
00038000
00238000
00738000
00FF8000
003F0000
000C0000
ENDCHAR
STARTCHAR 00C8
ENCODING 200
SWIDTH 514 0
DWIDTH 20 0
BBX 19 35 1 0
BITMAP
0F0000
0F0000
078000
038000
03C000
000000
000000
000000
3FFC00
3FFC00
3FFC00
3FFC00
3FFC00
3F0000
3F0000
3F0000
3F0000
3F0000
3F0000
FFFF00
FFFF00
FFFF00
FFFF00
FFFF00
3F0000
3F0000
3F0000
3F0000
3F0000
3F0000
3FFFE0
3FFFE0
3FFFE0
3FFFE0
3FFFE0
ENDCHAR
STARTCHAR 00C9
ENCODING 201
SWIDTH 514 0
DWIDTH 20 0
BBX 19 35 1 0
BITMAP
007800
00F000
00F000
01E000
01C000
000000
000000
000000
3FFC00
3FFC00
3FFC00
3FFC00
3FFC00
3F0000
3F0000
3F0000
3F0000
3F0000
3F0000
FFFF00
FFFF00
FFFF00
FFFF00
FFFF00
3F0000
3F0000
3F0000
3F0000
3F0000
3F0000
3FFFE0
3FFFE0
3FFFE0
3FFFE0
3FFFE0
ENDCHAR
STARTCHAR 00CA
ENCODING 202
SWIDTH 514 0
DWIDTH 20 0
BBX 19 35 1 1
BITMAP
018000
01C000
03E000
07F000
0FF800
000000
000000
000000
3FFC00
3FFC00
3FFC00
3FFC00
3FFC00
3F0000
3F0000
3F0000
3F0000
3F0000
3F0000
FFFF00
FFFF00
FFFF00
FFFF00
FFFF00
3F0000
3F0000
3F0000
3F0000
3F0000
3F0000
3FFFE0
3FFFE0
3FFFE0
3FFFE0
3FFFE0
ENDCHAR
STARTCHAR 00CB
ENCODING 203
SWIDTH 514 0
DWIDTH 20 0
BBX 19 36 1 0
BITMAP
180C00
7C1F00
7E3F00
FE3F80
FE3F80
7E3F00
3C1E00
000000
000000
3FFC00
3FFC00
3FFC00
3FFC00
3FFC00
3F0000
3F0000
3F0000
3F0000
3F0000
3F0000
FFFF00
FFFF00
FFFF00
FFFF00
FFFF00
3F0000
3F0000
3F0000
3F0000
3F0000
3F0000
3FFFE0
3FFFE0
3FFFE0
3FFFE0
3FFFE0
ENDCHAR
STARTCHAR 00CC
ENCODING 204
SWIDTH 257 0
DWIDTH 10 0
BBX 7 24 1 0
BITMAP
F0
70
78
38
3C
00
00
7E
7E
7E
7E
7E
7E
7E
7E
7E
7E
7E
7E
7E
7E
7E
7E
7E
ENDCHAR
STARTCHAR 00CD
ENCODING 205
SWIDTH 257 0
DWIDTH 10 0
BBX 7 24 2 0
BITMAP
1E
1E
3C
38
38
00
00
FC
FC
FC
FC
FC
FC
FC
FC
FC
FC
FC
FC
FC
FC
FC
FC
FC
ENDCHAR
STARTCHAR 00CE
ENCODING 206
SWIDTH 257 0
DWIDTH 10 0
BBX 10 25 0 0
BITMAP
0400
0E00
1E00
3F00
7F80
FFC0
0000
0000
3F00
3F00
3F00
3F00
3F00
3F00
3F00
3F00
3F00
3F00
3F00
3F00
3F00
3F00
3F00
3F00
3F00
ENDCHAR
STARTCHAR 00CF
ENCODING 207
SWIDTH 257 0
DWIDTH 10 0
BBX 16 25 -3 0
BITMAP
7C1E
7C3F
FE3F
FE3F
FE3F
7C1F
1000
0000
07E0
07E0
07E0
07E0
07E0
07E0
07E0
07E0
07E0
07E0
07E0
07E0
07E0
07E0
07E0
07E0
07E0
ENDCHAR
STARTCHAR 00D1
ENCODING 209
SWIDTH 565 0
DWIDTH 22 0
BBX 20 35 1 0
BITMAP
03C200
07FE00
07FE00
07FE00
000800
000000
000000
100000
3803F0
7C03F0
FF03F0
FF83F0
7FC3F0
3FF3F0
3FFBF0
3FFFF0
3FFFF0
3FFFF0
3F7FF0
3F3FF0
3F1FF0
3F07F0
3F03F0
3F03F0
3F03F0
3F03F0
3F03F0
3F03F0
3F03F0
3F03F0
3F03F0
3F03F0
3F03F0
3F03F0
3F03F0
ENDCHAR
STARTCHAR 00D2
ENCODING 210
SWIDTH 822 0
DWIDTH 32 0
BBX 30 36 1 -1
BITMAP
001E0000
001E0000
000F0000
000F0000
00070000
00000000
00000000
000FC000
007FF800
01FFFE00
07FFFF80
0FFFFFC0
1FFFFFE0
1FE01FE0
3FC007F0
3F0003F0
7F0003F8
7E0001F8
7E0001F8
7C0000FC
FC0000FC
FC0000FC
FC0000FC
7E0000FC
7E0001F8
7E0001F8
7F0003F8
3F8003F0
3FC00FF0
1FF01FE0
0FFFFFE0
07FFFFC0
03FFFF00
01FFFE00
007FF800
00070000
ENDCHAR
STARTCHAR 00D3
ENCODING 211
SWIDTH 822 0
DWIDTH 32 0
BBX 30 36 1 -1
BITMAP
0000F000
0001E000
0001C000
0003C000
00038000
00000000
00000000
000FC000
007FF800
01FFFE00
07FFFF80
0FFFFFC0
1FFFFFE0
1FE01FE0
3FC007F0
3F0003F0
7F0003F8
7E0001F8
7E0001F8
7C0000FC
FC0000FC
FC0000FC
FC0000FC
7E0000FC
7E0001F8
7E0001F8
7F0003F8
3F8003F0
3FC00FF0
1FF01FE0
0FFFFFE0
07FFFFC0
03FFFF00
01FFFE00
007FF800
00070000
ENDCHAR
STARTCHAR 00D4
ENCODING 212
SWIDTH 822 0
DWIDTH 32 0
BBX 30 36 1 0
BITMAP
00030000
00078000
000FC000
000FE000
001FE000
00000000
00000000
000FC000
007FF800
01FFFE00
07FFFF80
0FFFFFC0
1FFFFFE0
1FE01FE0
3FC007F0
3F0003F0
7F0003F8
7E0001F8
7E0001F8
7C0000FC
FC0000FC
FC0000FC
FC0000FC
7E0000FC
7E0001F8
7E0001F8
7F0003F8
3F8003F0
3FC00FF0
1FF01FE0
0FFFFFE0
07FFFFC0
03FFFF00
01FFFE00
007FF800
00070000
ENDCHAR
STARTCHAR 00D5
ENCODING 213
SWIDTH 822 0
DWIDTH 32 0
BBX 30 36 1 -1
BITMAP
003C0000
003FE000
003FE000
003FE000
00000000
00000000
00000000
000FC000
007FF800
01FFFE00
07FFFF80
0FFFFFC0
1FFFFFE0
1FE01FE0
3FC007F0
3F0003F0
7F0003F8
7E0001F8
7E0001F8
7C0000FC
FC0000FC
FC0000FC
FC0000FC
7E0000FC
7E0001F8
7E0001F8
7F0003F8
3F8003F0
3FC00FF0
1FF01FE0
0FFFFFE0
07FFFFC0
03FFFF00
01FFFE00
007FF800
00070000
ENDCHAR
STARTCHAR 00D6
ENCODING 214
SWIDTH 822 0
DWIDTH 32 0
BBX 30 37 1 -1
BITMAP
00301800
00F83E00
01FC7E00
01FC7E00
01FC7E00
00F87E00
00703C00
00000000
000FC000
007FF800
01FFFE00
07FFFF80
0FFFFFC0
1FFFFFE0
1FE01FE0
3FC007F0
3F0003F0
7F0003F8
7E0001F8
7E0001F8
7C0000FC
FC0000FC
FC0000FC
FC0000FC
7E0000FC
7E0001F8
7E0001F8
7F0003F8
3F8003F0
3FC00FF0
1FF01FE0
0FFFFFE0
07FFFFC0
03FFFF00
01FFFE00
007FF800
00070000
ENDCHAR
STARTCHAR 00D7
ENCODING 215
SWIDTH 540 0
DWIDTH 21 0
BBX 17 16 2 5
BITMAP
300600
780F00
FC1F80
7E3F00
3F7E00
1FFC00
0FF800
07F000
07F000
0FF800
1FFC00
3F7E00
7E3F00
FC1F80
780F00
300600
ENDCHAR
STARTCHAR 00D8
ENCODING 216
SWIDTH 797 0
DWIDTH 31 0
BBX 29 30 1 -2
BITMAP
00000040
000FC0E0
00FFF9F0
03FFFFF0
07FFFFE0
0FFFFFC0
1FFFFFC0
3FE01FE0
3F803FF0
7F007FF0
7E00FBF8
7E01F9F8
FC01F1F8
FC03E1F8
FC07C1F8
FC0F80F8
FC1F01F8
FC3E01F8
FC7E01F8
7EFC01F8
7EF803F0
7FF007F0
3FE00FE0
1FE03FE0
1FFFFFC0
1FFFFF80
3FFFFF00
3FFFFE00
7C7FF000
38060000
ENDCHAR
STARTCHAR 00D9
ENCODING 217
SWIDTH 540 0
DWIDTH 21 0
BBX 17 36 2 -1
BITMAP
0F0000
078000
078000
03C000
01C000
000000
000000
000000
FC0F80
FC0F80
FC0F80
FC0F80
FC0F80
FC0F80
FC0F80
FC0F80
FC0F80
FC0F80
FC0F80
FC0F80
FC0F80
FC0F80
FC0F80
FC0F80
FC0F80
FC0F80
FC0F80
FC1F80
FC1F80
FE3F80
7FFF80
7FFF00
3FFE00
1FFC00
0FF800
00C000
ENDCHAR
STARTCHAR 00DA
ENCODING 218
SWIDTH 540 0
DWIDTH 21 0
BBX 17 36 2 -1
BITMAP
007800
007800
00F000
00E000
01E000
000000
000000
000000
FC0F80
FC0F80
FC0F80
FC0F80
FC0F80
FC0F80
FC0F80
FC0F80
FC0F80
FC0F80
FC0F80
FC0F80
FC0F80
FC0F80
FC0F80
FC0F80
FC0F80
FC0F80
FC0F80
FC1F80
FC1F80
FE3F80
7FFF80
7FFF00
3FFE00
1FFC00
0FF800
00C000
ENDCHAR
STARTCHAR 00DB
ENCODING 219
SWIDTH 540 0
DWIDTH 21 0
BBX 17 36 2 0
BITMAP
00C000
01C000
03E000
07F000
0FF800
000000
000000
000000
FC0F80
FC0F80
FC0F80
FC0F80
FC0F80
FC0F80
FC0F80
FC0F80
FC0F80
FC0F80
FC0F80
FC0F80
FC0F80
FC0F80
FC0F80
FC0F80
FC0F80
FC0F80
FC0F80
FC1F80
FC1F80
FE3F80
7FFF80
7FFF00
3FFE00
1FFC00
0FF800
00C000
ENDCHAR
STARTCHAR 00DC
ENCODING 220
SWIDTH 540 0
DWIDTH 21 0
BBX 17 37 2 -1
BITMAP
180400
7E1F00
7E3F80
7E3F80
7E3F80
7E1F00
3C0E00
000000
000000
FC0F80
FC0F80
FC0F80
FC0F80
FC0F80
FC0F80
FC0F80
FC0F80
FC0F80
FC0F80
FC0F80
FC0F80
FC0F80
FC0F80
FC0F80
FC0F80
FC0F80
FC0F80
FC0F80
FC1F80
FC1F80
FE3F80
7FFF80
7FFF00
3FFE00
1FFC00
0FF800
00C000
ENDCHAR
STARTCHAR 00DD
ENCODING 221
SWIDTH 514 0
DWIDTH 20 0
BBX 17 35 2 0
BITMAP
007800
00F000
00F000
00E000
01C000
000000
000000
000000
F81F80
F81F80
F81F80
F81F80
F81F80
F81F80
F81F80
F81F80
F81F80
F81F80
F81F80
F81F80
FC1F80
FC1F80
FC1F80
FFFF80
7FFF00
7FFE00
3FFE00
1FF800
07E000
07E000
07E000
07E000
07E000
07E000
07E000
ENDCHAR
STARTCHAR 00E0
ENCODING 224
SWIDTH 565 0
DWIDTH 22 0
BBX 20 35 2 0
BITMAP
0F0000
078000
078000
03C000
01C000
000000
000000
03E000
0FF800
1FFE00
3FFF00
7FFF00
7FFF80
FE1F80
FC1F80
FC0F80
FC0FC0
FC0FC0
FC0FC0
FC0FC0
FC0FC0
FC0FC0
FC0FC0
FC0FC0
FC0FC0
FC0FC0
FC0FC0
FC0FC0
FC0FC0
FC0FC0
FFFFF0
FFFFF0
FFFFF0
FFFFF0
FFFFF0
ENDCHAR
STARTCHAR 00E1
ENCODING 225
SWIDTH 565 0
DWIDTH 22 0
BBX 20 35 2 0
BITMAP
007800
007800
00F000
00E000
01E000
000000
000000
03E000
0FF800
1FFE00
3FFF00
7FFF00
7FFF80
FE1F80
FC1F80
FC0F80
FC0FC0
FC0FC0
FC0FC0
FC0FC0
FC0FC0
FC0FC0
FC0FC0
FC0FC0
FC0FC0
FC0FC0
FC0FC0
FC0FC0
FC0FC0
FC0FC0
FFFFF0
FFFFF0
FFFFF0
FFFFF0
FFFFF0
ENDCHAR
STARTCHAR 00E2
ENCODING 226
SWIDTH 565 0
DWIDTH 22 0
BBX 20 35 2 1
BITMAP
00C000
01E000
03E000
07F000
0FF800
000000
000000
03E000
0FF800
1FFE00
3FFF00
7FFF00
7FFF80
FE1F80
FC1F80
FC0F80
FC0FC0
FC0FC0
FC0FC0
FC0FC0
FC0FC0
FC0FC0
FC0FC0
FC0FC0
FC0FC0
FC0FC0
FC0FC0
FC0FC0
FC0FC0
FC0FC0
FFFFF0
FFFFF0
FFFFF0
FFFFF0
FFFFF0
ENDCHAR
STARTCHAR 00E3
ENCODING 227
SWIDTH 565 0
DWIDTH 22 0
BBX 20 35 2 0
BITMAP
0F0000
0FF800
0FF800
0FF800
000000
000000
000000
03E000
0FF800
1FFE00
3FFF00
7FFF00
7FFF80
FE1F80
FC1F80
FC0F80
FC0FC0
FC0FC0
FC0FC0
FC0FC0
FC0FC0
FC0FC0
FC0FC0
FC0FC0
FC0FC0
FC0FC0
FC0FC0
FC0FC0
FC0FC0
FC0FC0
FFFFF0
FFFFF0
FFFFF0
FFFFF0
FFFFF0
ENDCHAR
STARTCHAR 00E4
ENCODING 228
SWIDTH 565 0
DWIDTH 22 0
BBX 20 36 2 0
BITMAP
180600
3E1F00
7E1F80
7F3F80
7E3F80
7E1F80
3C0F00
000000
03E000
0FF800
1FFE00
3FFF00
7FFF00
7FFF80
FE1F80
FC1F80
FC0F80
FC0FC0
FC0FC0
FC0FC0
FC0FC0
FC0FC0
FC0FC0
FC0FC0
FC0FC0
FC0FC0
FC0FC0
FC0FC0
FC0FC0
FC0FC0
FC0FC0
FFFFF0
FFFFF0
FFFFF0
FFFFF0
FFFFF0
ENDCHAR
STARTCHAR 00E5
ENCODING 229
SWIDTH 565 0
DWIDTH 22 0
BBX 20 37 2 0
BITMAP
03E000
07F000
073800
063800
063800
07F000
03F000
00C000
000000
03E000
0FF800
1FFE00
3FFF00
7FFF00
7FFF80
FE1F80
FC1F80
FC0F80
FC0FC0
FC0FC0
FC0FC0
FC0FC0
FC0FC0
FC0FC0
FC0FC0
FC0FC0
FC0FC0
FC0FC0
FC0FC0
FC0FC0
FC0FC0
FC0FC0
FFFFF0
FFFFF0
FFFFF0
FFFFF0
FFFFF0
ENDCHAR
STARTCHAR 00E7
ENCODING 231
SWIDTH 668 0
DWIDTH 26 0
BBX 25 37 1 -9
BITMAP
000FC000
007FF800
01FFFE00
07FFFF00
0FFFFF80
1FFFFF00
1FE01E00
3FC00C00
3F000000
7F000000
7E000000
7E000000
7C000000
FC000000
FC000000
FC000000
7E000000
7E000000
7E000000
7F000000
3F800000
3FC00C00
1FF03E00
0FFFFF00
07FFFF80
03FFFF00
01FFFE00
007FF800
00070000
000E0000
000F0000
00038000
00238000
00738000
00FF8000
003F0000
000C0000
ENDCHAR
STARTCHAR 00E8
ENCODING 232
SWIDTH 514 0
DWIDTH 20 0
BBX 19 35 1 0
BITMAP
0F0000
0F0000
078000
038000
03C000
000000
000000
000000
3FFC00
3FFC00
3FFC00
3FFC00
3FFC00
3F0000
3F0000
3F0000
3F0000
3F0000
3F0000
FFFF00
FFFF00
FFFF00
FFFF00
FFFF00
3F0000
3F0000
3F0000
3F0000
3F0000
3F0000
3FFFE0
3FFFE0
3FFFE0
3FFFE0
3FFFE0
ENDCHAR
STARTCHAR 00E9
ENCODING 233
SWIDTH 514 0
DWIDTH 20 0
BBX 19 35 1 0
BITMAP
007800
00F000
00F000
01E000
01C000
000000
000000
000000
3FFC00
3FFC00
3FFC00
3FFC00
3FFC00
3F0000
3F0000
3F0000
3F0000
3F0000
3F0000
FFFF00
FFFF00
FFFF00
FFFF00
FFFF00
3F0000
3F0000
3F0000
3F0000
3F0000
3F0000
3FFFE0
3FFFE0
3FFFE0
3FFFE0
3FFFE0
ENDCHAR
STARTCHAR 00EA
ENCODING 234
SWIDTH 514 0
DWIDTH 20 0
BBX 19 35 1 1
BITMAP
018000
01C000
03E000
07F000
0FF800
000000
000000
000000
3FFC00
3FFC00
3FFC00
3FFC00
3FFC00
3F0000
3F0000
3F0000
3F0000
3F0000
3F0000
FFFF00
FFFF00
FFFF00
FFFF00
FFFF00
3F0000
3F0000
3F0000
3F0000
3F0000
3F0000
3FFFE0
3FFFE0
3FFFE0
3FFFE0
3FFFE0
ENDCHAR
STARTCHAR 00EB
ENCODING 235
SWIDTH 514 0
DWIDTH 20 0
BBX 19 36 1 0
BITMAP
180C00
7C1F00
7E3F00
FE3F80
FE3F80
7E3F00
3C1E00
000000
000000
3FFC00
3FFC00
3FFC00
3FFC00
3FFC00
3F0000
3F0000
3F0000
3F0000
3F0000
3F0000
FFFF00
FFFF00
FFFF00
FFFF00
FFFF00
3F0000
3F0000
3F0000
3F0000
3F0000
3F0000
3FFFE0
3FFFE0
3FFFE0
3FFFE0
3FFFE0
ENDCHAR
STARTCHAR 00EC
ENCODING 236
SWIDTH 257 0
DWIDTH 10 0
BBX 7 24 1 0
BITMAP
F0
70
78
38
3C
00
00
7E
7E
7E
7E
7E
7E
7E
7E
7E
7E
7E
7E
7E
7E
7E
7E
7E
ENDCHAR
STARTCHAR 00ED
ENCODING 237
SWIDTH 257 0
DWIDTH 10 0
BBX 7 24 2 0
BITMAP
1E
1E
3C
38
38
00
00
FC
FC
FC
FC
FC
FC
FC
FC
FC
FC
FC
FC
FC
FC
FC
FC
FC
ENDCHAR
STARTCHAR 00EE
ENCODING 238
SWIDTH 257 0
DWIDTH 10 0
BBX 10 25 0 0
BITMAP
0400
0E00
1E00
3F00
7F80
FFC0
0000
0000
3F00
3F00
3F00
3F00
3F00
3F00
3F00
3F00
3F00
3F00
3F00
3F00
3F00
3F00
3F00
3F00
3F00
ENDCHAR
STARTCHAR 00EF
ENCODING 239
SWIDTH 257 0
DWIDTH 10 0
BBX 16 25 -3 0
BITMAP
7C1E
7C3F
FE3F
FE3F
FE3F
7C1F
1000
0000
07E0
07E0
07E0
07E0
07E0
07E0
07E0
07E0
07E0
07E0
07E0
07E0
07E0
07E0
07E0
07E0
07E0
ENDCHAR
STARTCHAR 00F1
ENCODING 241
SWIDTH 565 0
DWIDTH 22 0
BBX 20 35 1 0
BITMAP
03C200
07FE00
07FE00
07FE00
000800
000000
000000
100000
3803F0
7C03F0
FF03F0
FF83F0
7FC3F0
3FF3F0
3FFBF0
3FFFF0
3FFFF0
3FFFF0
3F7FF0
3F3FF0
3F1FF0
3F07F0
3F03F0
3F03F0
3F03F0
3F03F0
3F03F0
3F03F0
3F03F0
3F03F0
3F03F0
3F03F0
3F03F0
3F03F0
3F03F0
ENDCHAR
STARTCHAR 00F2
ENCODING 242
SWIDTH 822 0
DWIDTH 32 0
BBX 30 36 1 -1
BITMAP
001E0000
001E0000
000F0000
000F0000
00070000
00000000
00000000
000FC000
007FF800
01FFFE00
07FFFF80
0FFFFFC0
1FFFFFE0
1FE01FE0
3FC007F0
3F0003F0
7F0003F8
7E0001F8
7E0001F8
7C0000FC
FC0000FC
FC0000FC
FC0000FC
7E0000FC
7E0001F8
7E0001F8
7F0003F8
3F8003F0
3FC00FF0
1FF01FE0
0FFFFFE0
07FFFFC0
03FFFF00
01FFFE00
007FF800
00070000
ENDCHAR
STARTCHAR 00F3
ENCODING 243
SWIDTH 822 0
DWIDTH 32 0
BBX 30 36 1 -1
BITMAP
0000F000
0001E000
0001C000
0003C000
00038000
00000000
00000000
000FC000
007FF800
01FFFE00
07FFFF80
0FFFFFC0
1FFFFFE0
1FE01FE0
3FC007F0
3F0003F0
7F0003F8
7E0001F8
7E0001F8
7C0000FC
FC0000FC
FC0000FC
FC0000FC
7E0000FC
7E0001F8
7E0001F8
7F0003F8
3F8003F0
3FC00FF0
1FF01FE0
0FFFFFE0
07FFFFC0
03FFFF00
01FFFE00
007FF800
00070000
ENDCHAR
STARTCHAR 00F4
ENCODING 244
SWIDTH 822 0
DWIDTH 32 0
BBX 30 36 1 0
BITMAP
00030000
00078000
000FC000
000FE000
001FE000
00000000
00000000
000FC000
007FF800
01FFFE00
07FFFF80
0FFFFFC0
1FFFFFE0
1FE01FE0
3FC007F0
3F0003F0
7F0003F8
7E0001F8
7E0001F8
7C0000FC
FC0000FC
FC0000FC
FC0000FC
7E0000FC
7E0001F8
7E0001F8
7F0003F8
3F8003F0
3FC00FF0
1FF01FE0
0FFFFFE0
07FFFFC0
03FFFF00
01FFFE00
007FF800
00070000
ENDCHAR
STARTCHAR 00F5
ENCODING 245
SWIDTH 822 0
DWIDTH 32 0
BBX 30 36 1 -1
BITMAP
003C0000
003FE000
003FE000
003FE000
00000000
00000000
00000000
000FC000
007FF800
01FFFE00
07FFFF80
0FFFFFC0
1FFFFFE0
1FE01FE0
3FC007F0
3F0003F0
7F0003F8
7E0001F8
7E0001F8
7C0000FC
FC0000FC
FC0000FC
FC0000FC
7E0000FC
7E0001F8
7E0001F8
7F0003F8
3F8003F0
3FC00FF0
1FF01FE0
0FFFFFE0
07FFFFC0
03FFFF00
01FFFE00
007FF800
00070000
ENDCHAR
STARTCHAR 00F6
ENCODING 246
SWIDTH 822 0
DWIDTH 32 0
BBX 30 37 1 -1
BITMAP
00301800
00F83E00
01FC7E00
01FC7E00
01FC7E00
00F87E00
00703C00
00000000
000FC000
007FF800
01FFFE00
07FFFF80
0FFFFFC0
1FFFFFE0
1FE01FE0
3FC007F0
3F0003F0
7F0003F8
7E0001F8
7E0001F8
7C0000FC
FC0000FC
FC0000FC
FC0000FC
7E0000FC
7E0001F8
7E0001F8
7F0003F8
3F8003F0
3FC00FF0
1FF01FE0
0FFFFFE0
07FFFFC0
03FFFF00
01FFFE00
007FF800
00070000
ENDCHAR
STARTCHAR 00F7
ENCODING 247
SWIDTH 565 0
DWIDTH 22 0
BBX 19 19 2 3
BITMAP
01E000
01F000
01F000
01F000
01E000
000000
000000
FFFFE0
FFFFE0
FFFFE0
FFFFE0
FFFFE0
000000
000000
01E000
01F000
01F000
01F000
01E000
ENDCHAR
STARTCHAR 00F8
ENCODING 248
SWIDTH 797 0
DWIDTH 31 0
BBX 29 30 1 -2
BITMAP
00000040
000FC0E0
00FFF9F0
03FFFFF0
07FFFFE0
0FFFFFC0
1FFFFFC0
3FE01FE0
3F803FF0
7F007FF0
7E00FBF8
7E01F9F8
FC01F1F8
FC03E1F8
FC07C1F8
FC0F80F8
FC1F01F8
FC3E01F8
FC7E01F8
7EFC01F8
7EF803F0
7FF007F0
3FE00FE0
1FE03FE0
1FFFFFC0
1FFFFF80
3FFFFF00
3FFFFE00
7C7FF000
38060000
ENDCHAR
STARTCHAR 00F9
ENCODING 249
SWIDTH 540 0
DWIDTH 21 0
BBX 17 36 2 -1
BITMAP
0F0000
078000
078000
03C000
01C000
000000
000000
000000
FC0F80
FC0F80
FC0F80
FC0F80
FC0F80
FC0F80
FC0F80
FC0F80
FC0F80
FC0F80
FC0F80
FC0F80
FC0F80
FC0F80
FC0F80
FC0F80
FC0F80
FC0F80
FC0F80
FC1F80
FC1F80
FE3F80
7FFF80
7FFF00
3FFE00
1FFC00
0FF800
00C000
ENDCHAR
STARTCHAR 00FA
ENCODING 250
SWIDTH 540 0
DWIDTH 21 0
BBX 17 36 2 -1
BITMAP
007800
007800
00F000
00E000
01E000
000000
000000
000000
FC0F80
FC0F80
FC0F80
FC0F80
FC0F80
FC0F80
FC0F80
FC0F80
FC0F80
FC0F80
FC0F80
FC0F80
FC0F80
FC0F80
FC0F80
FC0F80
FC0F80
FC0F80
FC0F80
FC1F80
FC1F80
FE3F80
7FFF80
7FFF00
3FFE00
1FFC00
0FF800
00C000
ENDCHAR
STARTCHAR 00FB
ENCODING 251
SWIDTH 540 0
DWIDTH 21 0
BBX 17 36 2 0
BITMAP
00C000
01C000
03E000
07F000
0FF800
000000
000000
000000
FC0F80
FC0F80
FC0F80
FC0F80
FC0F80
FC0F80
FC0F80
FC0F80
FC0F80
FC0F80
FC0F80
FC0F80
FC0F80
FC0F80
FC0F80
FC0F80
FC0F80
FC0F80
FC0F80
FC1F80
FC1F80
FE3F80
7FFF80
7FFF00
3FFE00
1FFC00
0FF800
00C000
ENDCHAR
STARTCHAR 00FC
ENCODING 252
SWIDTH 540 0
DWIDTH 21 0
BBX 17 37 2 -1
BITMAP
180400
7E1F00
7E3F80
7E3F80
7E3F80
7E1F00
3C0E00
000000
000000
FC0F80
FC0F80
FC0F80
FC0F80
FC0F80
FC0F80
FC0F80
FC0F80
FC0F80
FC0F80
FC0F80
FC0F80
FC0F80
FC0F80
FC0F80
FC0F80
FC0F80
FC0F80
FC0F80
FC1F80
FC1F80
FE3F80
7FFF80
7FFF00
3FFE00
1FFC00
0FF800
00C000
ENDCHAR
STARTCHAR 00FD
ENCODING 253
SWIDTH 514 0
DWIDTH 20 0
BBX 17 35 2 0
BITMAP
007800
00F000
00F000
00E000
01C000
000000
000000
000000
F81F80
F81F80
F81F80
F81F80
F81F80
F81F80
F81F80
F81F80
F81F80
F81F80
F81F80
F81F80
FC1F80
FC1F80
FC1F80
FFFF80
7FFF00
7FFE00
3FFE00
1FF800
07E000
07E000
07E000
07E000
07E000
07E000
07E000
ENDCHAR
STARTCHAR 00FF
ENCODING 255
SWIDTH 514 0
DWIDTH 20 0
BBX 17 36 2 0
BITMAP
180400
7C1F00
7E3F80
FE3F80
7E3F80
7E1F00
3C0E00
000000
000000
F81F80
F81F80
F81F80
F81F80
F81F80
F81F80
F81F80
F81F80
F81F80
F81F80
F81F80
F81F80
FC1F80
FC1F80
FC1F80
FFFF80
7FFF00
7FFE00
3FFE00
1FF800
07E000
07E000
07E000
07E000
07E000
07E000
07E000
ENDCHAR
STARTCHAR 0100
ENCODING 256
SWIDTH 565 0
DWIDTH 22 0
BBX 20 34 2 0
BITMAP
1FFC00
1FFC00
1FFC00
1FFC00
000000
000000
03E000
0FF800
1FFE00
3FFF00
7FFF00
7FFF80
FE1F80
FC1F80
FC0F80
FC0FC0
FC0FC0
FC0FC0
FC0FC0
FC0FC0
FC0FC0
FC0FC0
FC0FC0
FC0FC0
FC0FC0
FC0FC0
FC0FC0
FC0FC0
FC0FC0
FFFFF0
FFFFF0
FFFFF0
FFFFF0
FFFFF0
ENDCHAR
STARTCHAR 0101
ENCODING 257
SWIDTH 565 0
DWIDTH 22 0
BBX 20 34 2 0
BITMAP
1FFC00
1FFC00
1FFC00
1FFC00
000000
000000
03E000
0FF800
1FFE00
3FFF00
7FFF00
7FFF80
FE1F80
FC1F80
FC0F80
FC0FC0
FC0FC0
FC0FC0
FC0FC0
FC0FC0
FC0FC0
FC0FC0
FC0FC0
FC0FC0
FC0FC0
FC0FC0
FC0FC0
FC0FC0
FC0FC0
FFFFF0
FFFFF0
FFFFF0
FFFFF0
FFFFF0
ENDCHAR
STARTCHAR 0102
ENCODING 258
SWIDTH 565 0
DWIDTH 22 0
BBX 20 34 2 0
BITMAP
0FF800
07F800
07F000
03E000
000000
000000
03E000
0FF800
1FFE00
3FFF00
7FFF00
7FFF80
FE1F80
FC1F80
FC0F80
FC0FC0
FC0FC0
FC0FC0
FC0FC0
FC0FC0
FC0FC0
FC0FC0
FC0FC0
FC0FC0
FC0FC0
FC0FC0
FC0FC0
FC0FC0
FC0FC0
FFFFF0
FFFFF0
FFFFF0
FFFFF0
FFFFF0
ENDCHAR
STARTCHAR 0103
ENCODING 259
SWIDTH 565 0
DWIDTH 22 0
BBX 20 34 2 0
BITMAP
0FF800
07F800
07F000
03E000
000000
000000
03E000
0FF800
1FFE00
3FFF00
7FFF00
7FFF80
FE1F80
FC1F80
FC0F80
FC0FC0
FC0FC0
FC0FC0
FC0FC0
FC0FC0
FC0FC0
FC0FC0
FC0FC0
FC0FC0
FC0FC0
FC0FC0
FC0FC0
FC0FC0
FC0FC0
FFFFF0
FFFFF0
FFFFF0
FFFFF0
FFFFF0
ENDCHAR
STARTCHAR 0104
ENCODING 260
SWIDTH 565 0
DWIDTH 22 0
BBX 22 36 2 -8
BITMAP
03E000
0FF800
1FFE00
3FFF00
7FFF00
7FFF80
FE1F80
FC1F80
FC0F80
FC0FC0
FC0FC0
FC0FC0
FC0FC0
FC0FC0
FC0FC0
FC0FC0
FC0FC0
FC0FC0
FC0FC0
FC0FC0
FC0FC0
FC0FC0
FC0FC0
FFFFF0
FFFFF0
FFFFF0
FFFFF0
FFFFF0
0003C0
000780
000700
000700
000718
0007FC
0003F8
0001F0
ENDCHAR
STARTCHAR 0105
ENCODING 261
SWIDTH 565 0
DWIDTH 22 0
BBX 22 36 2 -8
BITMAP
03E000
0FF800
1FFE00
3FFF00
7FFF00
7FFF80
FE1F80
FC1F80
FC0F80
FC0FC0
FC0FC0
FC0FC0
FC0FC0
FC0FC0
FC0FC0
FC0FC0
FC0FC0
FC0FC0
FC0FC0
FC0FC0
FC0FC0
FC0FC0
FC0FC0
FFFFF0
FFFFF0
FFFFF0
FFFFF0
FFFFF0
0003C0
000780
000700
000700
000718
0007FC
0003F8
0001F0
ENDCHAR
STARTCHAR 0106
ENCODING 262
SWIDTH 668 0
DWIDTH 26 0
BBX 25 36 1 -1
BITMAP
0001E000
0001E000
0003C000
00038000
00078000
00000000
00000000
000FC000
007FF800
01FFFE00
07FFFF00
0FFFFF80
1FFFFF00
1FE01E00
3FC00C00
3F000000
7F000000
7E000000
7E000000
7C000000
FC000000
FC000000
FC000000
7E000000
7E000000
7E000000
7F000000
3F800000
3FC00C00
1FF03E00
0FFFFF00
07FFFF80
03FFFF00
01FFFE00
007FF800
00030000
ENDCHAR
STARTCHAR 0107
ENCODING 263
SWIDTH 668 0
DWIDTH 26 0
BBX 25 36 1 -1
BITMAP
0001E000
0001E000
0003C000
00038000
00078000
00000000
00000000
000FC000
007FF800
01FFFE00
07FFFF00
0FFFFF80
1FFFFF00
1FE01E00
3FC00C00
3F000000
7F000000
7E000000
7E000000
7C000000
FC000000
FC000000
FC000000
7E000000
7E000000
7E000000
7F000000
3F800000
3FC00C00
1FF03E00
0FFFFF00
07FFFF80
03FFFF00
01FFFE00
007FF800
00030000
ENDCHAR
STARTCHAR 010A
ENCODING 266
SWIDTH 668 0
DWIDTH 26 0
BBX 25 37 1 -1
BITMAP
00078000
000FC000
000FC000
000FC000
000FC000
00078000
00000000
00000000
000FC000
007FF800
01FFFE00
07FFFF00
0FFFFF80
1FFFFF00
1FE01E00
3FC00C00
3F000000
7F000000
7E000000
7E000000
7C000000
FC000000
FC000000
FC000000
7E000000
7E000000
7E000000
7F000000
3F800000
3FC00C00
1FF03E00
0FFFFF00
07FFFF80
03FFFF00
01FFFE00
007FF800
00030000
ENDCHAR
STARTCHAR 010B
ENCODING 267
SWIDTH 668 0
DWIDTH 26 0
BBX 25 37 1 -1
BITMAP
00078000
000FC000
000FC000
000FC000
000FC000
00078000
00000000
00000000
000FC000
007FF800
01FFFE00
07FFFF00
0FFFFF80
1FFFFF00
1FE01E00
3FC00C00
3F000000
7F000000
7E000000
7E000000
7C000000
FC000000
FC000000
FC000000
7E000000
7E000000
7E000000
7F000000
3F800000
3FC00C00
1FF03E00
0FFFFF00
07FFFF80
03FFFF00
01FFFE00
007FF800
00030000
ENDCHAR
STARTCHAR 010C
ENCODING 268
SWIDTH 668 0
DWIDTH 26 0
BBX 25 36 1 -1
BITMAP
003FE000
001FE000
000FC000
00078000
00030000
00020000
00000000
000FC000
007FF800
01FFFE00
07FFFF00
0FFFFF80
1FFFFF00
1FE01E00
3FC00C00
3F000000
7F000000
7E000000
7E000000
7C000000
FC000000
FC000000
FC000000
7E000000
7E000000
7E000000
7F000000
3F800000
3FC00C00
1FF03E00
0FFFFF00
07FFFF80
03FFFF00
01FFFE00
007FF800
00030000
ENDCHAR
STARTCHAR 010D
ENCODING 269
SWIDTH 668 0
DWIDTH 26 0
BBX 25 36 1 -1
BITMAP
003FE000
001FE000
000FC000
00078000
00030000
00020000
00000000
000FC000
007FF800
01FFFE00
07FFFF00
0FFFFF80
1FFFFF00
1FE01E00
3FC00C00
3F000000
7F000000
7E000000
7E000000
7C000000
FC000000
FC000000
FC000000
7E000000
7E000000
7E000000
7F000000
3F800000
3FC00C00
1FF03E00
0FFFFF00
07FFFF80
03FFFF00
01FFFE00
007FF800
00030000
ENDCHAR
STARTCHAR 010E
ENCODING 270
SWIDTH 668 0
DWIDTH 26 0
BBX 23 35 2 0
BITMAP
07FC00
07F800
03F000
01E000
00C000
004000
000000
000000
FFFC00
FFFF80
FFFFC0
FFFFF0
FFFFF8
FC1FF8
FC03FC
FC01FC
FC00FE
FC007E
FC007E
FC007E
FC003E
FC003E
FC003E
FC007E
FC007E
FC007E
FC00FE
FC01FC
FC03FC
FC7FF8
FFFFF0
FFFFE0
FFFFC0
FFFF00
FFFC00
ENDCHAR
STARTCHAR 010F
ENCODING 271
SWIDTH 668 0
DWIDTH 26 0
BBX 23 35 2 0
BITMAP
07FC00
07F800
03F000
01E000
00C000
004000
000000
000000
FFFC00
FFFF80
FFFFC0
FFFFF0
FFFFF8
FC1FF8
FC03FC
FC01FC
FC00FE
FC007E
FC007E
FC007E
FC003E
FC003E
FC003E
FC007E
FC007E
FC007E
FC00FE
FC01FC
FC03FC
FC7FF8
FFFFF0
FFFFE0
FFFFC0
FFFF00
FFFC00
ENDCHAR
STARTCHAR 0110
ENCODING 272
SWIDTH 694 0
DWIDTH 27 0
BBX 25 27 1 0
BITMAP
3FFF0000
3FFFE000
3FFFF000
3FFFFC00
3FFFFC00
3F07FE00
3F00FF00
3F007F00
3F003F80
3F001F80
3F001F80
FFFC1F80
FFFC0F80
FFFC0F80
FFFC0F80
FFFC1F80
3F001F80
3F001F80
3F003F80
3F007F00
3F00FF00
3F1FFE00
3FFFFC00
3FFFF800
3FFFF000
3FFFC000
3FFE0000
ENDCHAR
STARTCHAR 0111
ENCODING 273
SWIDTH 694 0
DWIDTH 27 0
BBX 25 27 1 0
BITMAP
3FFF0000
3FFFE000
3FFFF000
3FFFFC00
3FFFFC00
3F07FE00
3F00FF00
3F007F00
3F003F80
3F001F80
3F001F80
FFFC1F80
FFFC0F80
FFFC0F80
FFFC0F80
FFFC1F80
3F001F80
3F001F80
3F003F80
3F007F00
3F00FF00
3F1FFE00
3FFFFC00
3FFFF800
3FFFF000
3FFFC000
3FFE0000
ENDCHAR
STARTCHAR 0112
ENCODING 274
SWIDTH 514 0
DWIDTH 20 0
BBX 19 34 1 0
BITMAP
1FFC00
1FFC00
1FFC00
1FFC00
000000
000000
000000
3FFC00
3FFC00
3FFC00
3FFC00
3FFC00
3F0000
3F0000
3F0000
3F0000
3F0000
3F0000
FFFF00
FFFF00
FFFF00
FFFF00
FFFF00
3F0000
3F0000
3F0000
3F0000
3F0000
3F0000
3FFFE0
3FFFE0
3FFFE0
3FFFE0
3FFFE0
ENDCHAR
STARTCHAR 0113
ENCODING 275
SWIDTH 514 0
DWIDTH 20 0
BBX 19 34 1 0
BITMAP
1FFC00
1FFC00
1FFC00
1FFC00
000000
000000
000000
3FFC00
3FFC00
3FFC00
3FFC00
3FFC00
3F0000
3F0000
3F0000
3F0000
3F0000
3F0000
FFFF00
FFFF00
FFFF00
FFFF00
FFFF00
3F0000
3F0000
3F0000
3F0000
3F0000
3F0000
3FFFE0
3FFFE0
3FFFE0
3FFFE0
3FFFE0
ENDCHAR
STARTCHAR 0116
ENCODING 278
SWIDTH 514 0
DWIDTH 20 0
BBX 19 36 1 0
BITMAP
03E000
07E000
07F000
07F000
07E000
03E000
000000
000000
000000
3FFC00
3FFC00
3FFC00
3FFC00
3FFC00
3F0000
3F0000
3F0000
3F0000
3F0000
3F0000
FFFF00
FFFF00
FFFF00
FFFF00
FFFF00
3F0000
3F0000
3F0000
3F0000
3F0000
3F0000
3FFFE0
3FFFE0
3FFFE0
3FFFE0
3FFFE0
ENDCHAR
STARTCHAR 0117
ENCODING 279
SWIDTH 514 0
DWIDTH 20 0
BBX 19 36 1 0
BITMAP
03E000
07E000
07F000
07F000
07E000
03E000
000000
000000
000000
3FFC00
3FFC00
3FFC00
3FFC00
3FFC00
3F0000
3F0000
3F0000
3F0000
3F0000
3F0000
FFFF00
FFFF00
FFFF00
FFFF00
FFFF00
3F0000
3F0000
3F0000
3F0000
3F0000
3F0000
3FFFE0
3FFFE0
3FFFE0
3FFFE0
3FFFE0
ENDCHAR
STARTCHAR 0118
ENCODING 280
SWIDTH 514 0
DWIDTH 20 0
BBX 21 35 1 -8
BITMAP
3FFC00
3FFC00
3FFC00
3FFC00
3FFC00
3F0000
3F0000
3F0000
3F0000
3F0000
3F0000
FFFF00
FFFF00
FFFF00
FFFF00
FFFF00
3F0000
3F0000
3F0000
3F0000
3F0000
3F0000
3FFFE0
3FFFE0
3FFFE0
3FFFE0
3FFFE0
000780
000F00
000E00
000E00
000E30
000FF8
0007F0
0003E0
ENDCHAR
STARTCHAR 0119
ENCODING 281
SWIDTH 514 0
DWIDTH 20 0
BBX 21 35 1 -8
BITMAP
3FFC00
3FFC00
3FFC00
3FFC00
3FFC00
3F0000
3F0000
3F0000
3F0000
3F0000
3F0000
FFFF00
FFFF00
FFFF00
FFFF00
FFFF00
3F0000
3F0000
3F0000
3F0000
3F0000
3F0000
3FFFE0
3FFFE0
3FFFE0
3FFFE0
3FFFE0
000780
000F00
000E00
000E00
000E30
000FF8
0007F0
0003E0
ENDCHAR
STARTCHAR 011A
ENCODING 282
SWIDTH 514 0
DWIDTH 20 0
BBX 19 35 1 0
BITMAP
0FF800
0FF000
07E000
03C000
01C000
008000
000000
000000
3FFC00
3FFC00
3FFC00
3FFC00
3FFC00
3F0000
3F0000
3F0000
3F0000
3F0000
3F0000
FFFF00
FFFF00
FFFF00
FFFF00
FFFF00
3F0000
3F0000
3F0000
3F0000
3F0000
3F0000
3FFFE0
3FFFE0
3FFFE0
3FFFE0
3FFFE0
ENDCHAR
STARTCHAR 011B
ENCODING 283
SWIDTH 514 0
DWIDTH 20 0
BBX 19 35 1 0
BITMAP
0FF800
0FF000
07E000
03C000
01C000
008000
000000
000000
3FFC00
3FFC00
3FFC00
3FFC00
3FFC00
3F0000
3F0000
3F0000
3F0000
3F0000
3F0000
FFFF00
FFFF00
FFFF00
FFFF00
FFFF00
3F0000
3F0000
3F0000
3F0000
3F0000
3F0000
3FFFE0
3FFFE0
3FFFE0
3FFFE0
3FFFE0
ENDCHAR
STARTCHAR 011E
ENCODING 286
SWIDTH 822 0
DWIDTH 32 0
BBX 31 35 1 -1
BITMAP
003FE000
001FE000
001FC000
000F8000
00000000
00000000
000FC000
007FF800
01FFFE00
07FFFF00
0FFFFF80
1FFFFF00
1FE01E00
3FC00C00
3F000000
7F000000
7E000000
7E000000
7C03FFFE
FC03FFFE
FC03FFFE
FC03FFFE
7E03FFFE
7E0003F8
7E0003F0
7F0003F0
3F8007F0
3FC00FE0
1FF03FE0
0FFFFFC0
07FFFF80
03FFFF00
01FFFE00
007FF800
00070000
ENDCHAR
STARTCHAR 011F
ENCODING 287
SWIDTH 822 0
DWIDTH 32 0
BBX 31 35 1 -1
BITMAP
003FE000
001FE000
001FC000
000F8000
00000000
00000000
000FC000
007FF800
01FFFE00
07FFFF00
0FFFFF80
1FFFFF00
1FE01E00
3FC00C00
3F000000
7F000000
7E000000
7E000000
7C03FFFE
FC03FFFE
FC03FFFE
FC03FFFE
7E03FFFE
7E0003F8
7E0003F0
7F0003F0
3F8007F0
3FC00FE0
1FF03FE0
0FFFFFC0
07FFFF80
03FFFF00
01FFFE00
007FF800
00070000
ENDCHAR
STARTCHAR 0120
ENCODING 288
SWIDTH 822 0
DWIDTH 32 0
BBX 31 37 1 -1
BITMAP
00078000
000FC000
000FC000
000FC000
000FC000
00078000
00000000
00000000
000FC000
007FF800
01FFFE00
07FFFF00
0FFFFF80
1FFFFF00
1FE01E00
3FC00C00
3F000000
7F000000
7E000000
7E000000
7C03FFFE
FC03FFFE
FC03FFFE
FC03FFFE
7E03FFFE
7E0003F8
7E0003F0
7F0003F0
3F8007F0
3FC00FE0
1FF03FE0
0FFFFFC0
07FFFF80
03FFFF00
01FFFE00
007FF800
00070000
ENDCHAR
STARTCHAR 0121
ENCODING 289
SWIDTH 822 0
DWIDTH 32 0
BBX 31 37 1 -1
BITMAP
00078000
000FC000
000FC000
000FC000
000FC000
00078000
00000000
00000000
000FC000
007FF800
01FFFE00
07FFFF00
0FFFFF80
1FFFFF00
1FE01E00
3FC00C00
3F000000
7F000000
7E000000
7E000000
7C03FFFE
FC03FFFE
FC03FFFE
FC03FFFE
7E03FFFE
7E0003F8
7E0003F0
7F0003F0
3F8007F0
3FC00FE0
1FF03FE0
0FFFFFC0
07FFFF80
03FFFF00
01FFFE00
007FF800
00070000
ENDCHAR
STARTCHAR 0124
ENCODING 292
SWIDTH 591 0
DWIDTH 23 0
BBX 20 35 1 1
BITMAP
003000
007800
00FC00
00FE00
01FF00
000000
000000
000000
3F03F0
3F03F0
3F03F0
3F03F0
3F03F0
3F03F0
3F03F0
3F03F0
3F03F0
3F03F0
3F03F0
3F03F0
FFFFF0
FFFFF0
FFFFF0
FFFFF0
FFFFF0
3F03F0
3F03F0
3F03F0
3F03F0
3F03F0
3F03F0
3F03F0
3F03F0
3F03F0
3F03F0
ENDCHAR
STARTCHAR 0125
ENCODING 293
SWIDTH 591 0
DWIDTH 23 0
BBX 20 35 1 1
BITMAP
003000
007800
00FC00
00FE00
01FF00
000000
000000
000000
3F03F0
3F03F0
3F03F0
3F03F0
3F03F0
3F03F0
3F03F0
3F03F0
3F03F0
3F03F0
3F03F0
3F03F0
FFFFF0
FFFFF0
FFFFF0
FFFFF0
FFFFF0
3F03F0
3F03F0
3F03F0
3F03F0
3F03F0
3F03F0
3F03F0
3F03F0
3F03F0
3F03F0
ENDCHAR
STARTCHAR 0128
ENCODING 296
SWIDTH 257 0
DWIDTH 10 0
BBX 9 24 0 0
BITMAP
FF80
FF80
FF80
0F80
0000
0000
0000
3F00
3F00
3F00
3F00
3F00
3F00
3F00
3F00
3F00
3F00
3F00
3F00
3F00
3F00
3F00
3F00
3F00
ENDCHAR
STARTCHAR 0129
ENCODING 297
SWIDTH 257 0
DWIDTH 10 0
BBX 9 24 0 0
BITMAP
FF80
FF80
FF80
0F80
0000
0000
0000
3F00
3F00
3F00
3F00
3F00
3F00
3F00
3F00
3F00
3F00
3F00
3F00
3F00
3F00
3F00
3F00
3F00
ENDCHAR
STARTCHAR 012A
ENCODING 298
SWIDTH 257 0
DWIDTH 10 0
BBX 11 24 0 0
BITMAP
FFE0
FFE0
FFE0
FFE0
0000
0000
0000
3F00
3F00
3F00
3F00
3F00
3F00
3F00
3F00
3F00
3F00
3F00
3F00
3F00
3F00
3F00
3F00
3F00
ENDCHAR
STARTCHAR 012B
ENCODING 299
SWIDTH 257 0
DWIDTH 10 0
BBX 11 24 0 0
BITMAP
FFE0
FFE0
FFE0
FFE0
0000
0000
0000
3F00
3F00
3F00
3F00
3F00
3F00
3F00
3F00
3F00
3F00
3F00
3F00
3F00
3F00
3F00
3F00
3F00
ENDCHAR
STARTCHAR 012E
ENCODING 302
SWIDTH 231 0
DWIDTH 9 0
BBX 11 39 -1 -7
BITMAP
0400
0600
0600
0F00
FFE0
3FC0
1F80
1F80
1F80
1980
2040
0000
0000
0000
1F80
1F80
1F80
1F80
1F80
1F80
1F80
1F80
1F80
1F80
1F80
1F80
1F80
1F80
1F80
1F80
1F80
1E00
3C00
3800
3800
38C0
3FE0
3FC0
0F00
ENDCHAR
STARTCHAR 012F
ENCODING 303
SWIDTH 231 0
DWIDTH 9 0
BBX 11 39 -1 -7
BITMAP
0400
0600
0600
0F00
FFE0
3FC0
1F80
1F80
1F80
1980
2040
0000
0000
0000
1F80
1F80
1F80
1F80
1F80
1F80
1F80
1F80
1F80
1F80
1F80
1F80
1F80
1F80
1F80
1F80
1F80
1E00
3C00
3800
3800
38C0
3FE0
3FC0
0F00
ENDCHAR
STARTCHAR 0130
ENCODING 304
SWIDTH 257 0
DWIDTH 10 0
BBX 7 26 2 0
BITMAP
38
7C
FE
FE
FE
7C
38
00
00
FC
FC
FC
FC
FC
FC
FC
FC
FC
FC
FC
FC
FC
FC
FC
FC
FC
ENDCHAR
STARTCHAR 0139
ENCODING 313
SWIDTH 462 0
DWIDTH 18 0
BBX 15 35 2 0
BITMAP
0F00
1E00
1C00
3C00
3800
0000
0000
0000
FC00
FC00
FC00
FC00
FC00
FC00
FC00
FC00
FC00
FC00
FC00
FC00
FC00
FC00
FC00
FC00
FC00
FC00
FC00
FC00
FC00
FC00
FFFE
FFFE
FFFE
FFFE
FFFE
ENDCHAR
STARTCHAR 013A
ENCODING 314
SWIDTH 462 0
DWIDTH 18 0
BBX 15 35 2 0
BITMAP
0F00
1E00
1C00
3C00
3800
0000
0000
0000
FC00
FC00
FC00
FC00
FC00
FC00
FC00
FC00
FC00
FC00
FC00
FC00
FC00
FC00
FC00
FC00
FC00
FC00
FC00
FC00
FC00
FC00
FFFE
FFFE
FFFE
FFFE
FFFE
ENDCHAR
STARTCHAR 013D
ENCODING 317
SWIDTH 462 0
DWIDTH 18 0
BBX 17 35 0 0
BITMAP
FFC000
7F8000
3F0000
1E0000
0C0000
000000
000000
000000
3F0000
3F0000
3F0000
3F0000
3F0000
3F0000
3F0000
3F0000
3F0000
3F0000
3F0000
3F0000
3F0000
3F0000
3F0000
3F0000
3F0000
3F0000
3F0000
3F0000
3F0000
3F0000
3FFF80
3FFF80
3FFF80
3FFF80
3FFF80
ENDCHAR
STARTCHAR 013E
ENCODING 318
SWIDTH 462 0
DWIDTH 18 0
BBX 17 35 0 0
BITMAP
FFC000
7F8000
3F0000
1E0000
0C0000
000000
000000
000000
3F0000
3F0000
3F0000
3F0000
3F0000
3F0000
3F0000
3F0000
3F0000
3F0000
3F0000
3F0000
3F0000
3F0000
3F0000
3F0000
3F0000
3F0000
3F0000
3F0000
3F0000
3F0000
3FFF80
3FFF80
3FFF80
3FFF80
3FFF80
ENDCHAR
STARTCHAR 0141
ENCODING 321
SWIDTH 514 0
DWIDTH 20 0
BBX 19 27 1 0
BITMAP
1F8000
1F8000
1F8000
1F8000
1F8000
1F8000
1F8000
1F8000
1F8C00
1FBE00
1FFE00
1FF800
1FE000
3F8000
FF8000
FF8000
FF8000
1F8000
1F8000
1F8000
1F8000
1F8000
1FFFE0
1FFFE0
1FFFE0
1FFFE0
1FFFE0
ENDCHAR
STARTCHAR 0142
ENCODING 322
SWIDTH 514 0
DWIDTH 20 0
BBX 19 27 1 0
BITMAP
1F8000
1F8000
1F8000
1F8000
1F8000
1F8000
1F8000
1F8000
1F8C00
1FBE00
1FFE00
1FF800
1FE000
3F8000
FF8000
FF8000
FF8000
1F8000
1F8000
1F8000
1F8000
1F8000
1FFFE0
1FFFE0
1FFFE0
1FFFE0
1FFFE0
ENDCHAR
STARTCHAR 0143
ENCODING 323
SWIDTH 565 0
DWIDTH 22 0
BBX 20 35 1 0
BITMAP
001E00
003C00
003C00
003800
007000
000000
000000
100000
3803F0
7C03F0
FF03F0
FF83F0
7FC3F0
3FF3F0
3FFBF0
3FFFF0
3FFFF0
3FFFF0
3F7FF0
3F3FF0
3F1FF0
3F07F0
3F03F0
3F03F0
3F03F0
3F03F0
3F03F0
3F03F0
3F03F0
3F03F0
3F03F0
3F03F0
3F03F0
3F03F0
3F03F0
ENDCHAR
STARTCHAR 0144
ENCODING 324
SWIDTH 565 0
DWIDTH 22 0
BBX 20 35 1 0
BITMAP
001E00
003C00
003C00
003800
007000
000000
000000
100000
3803F0
7C03F0
FF03F0
FF83F0
7FC3F0
3FF3F0
3FFBF0
3FFFF0
3FFFF0
3FFFF0
3F7FF0
3F3FF0
3F1FF0
3F07F0
3F03F0
3F03F0
3F03F0
3F03F0
3F03F0
3F03F0
3F03F0
3F03F0
3F03F0
3F03F0
3F03F0
3F03F0
3F03F0
ENDCHAR
STARTCHAR 0147
ENCODING 327
SWIDTH 565 0
DWIDTH 22 0
BBX 20 35 1 0
BITMAP
03FE00
01FC00
01F800
00F800
007000
002000
000000
100000
3803F0
7C03F0
FF03F0
FF83F0
7FC3F0
3FF3F0
3FFBF0
3FFFF0
3FFFF0
3FFFF0
3F7FF0
3F3FF0
3F1FF0
3F07F0
3F03F0
3F03F0
3F03F0
3F03F0
3F03F0
3F03F0
3F03F0
3F03F0
3F03F0
3F03F0
3F03F0
3F03F0
3F03F0
ENDCHAR
STARTCHAR 0148
ENCODING 328
SWIDTH 565 0
DWIDTH 22 0
BBX 20 35 1 0
BITMAP
03FE00
01FC00
01F800
00F800
007000
002000
000000
100000
3803F0
7C03F0
FF03F0
FF83F0
7FC3F0
3FF3F0
3FFBF0
3FFFF0
3FFFF0
3FFFF0
3F7FF0
3F3FF0
3F1FF0
3F07F0
3F03F0
3F03F0
3F03F0
3F03F0
3F03F0
3F03F0
3F03F0
3F03F0
3F03F0
3F03F0
3F03F0
3F03F0
3F03F0
ENDCHAR
STARTCHAR 014C
ENCODING 332
SWIDTH 822 0
DWIDTH 32 0
BBX 30 35 1 -1
BITMAP
003FF800
003FF800
003FF800
003FF800
00000000
00000000
000FC000
007FF800
01FFFE00
07FFFF80
0FFFFFC0
1FFFFFE0
1FE01FE0
3FC007F0
3F0003F0
7F0003F8
7E0001F8
7E0001F8
7C0000FC
FC0000FC
FC0000FC
FC0000FC
7E0000FC
7E0001F8
7E0001F8
7F0003F8
3F8003F0
3FC00FF0
1FF01FE0
0FFFFFE0
07FFFFC0
03FFFF00
01FFFE00
007FF800
00070000
ENDCHAR
STARTCHAR 014D
ENCODING 333
SWIDTH 822 0
DWIDTH 32 0
BBX 30 35 1 -1
BITMAP
003FF800
003FF800
003FF800
003FF800
00000000
00000000
000FC000
007FF800
01FFFE00
07FFFF80
0FFFFFC0
1FFFFFE0
1FE01FE0
3FC007F0
3F0003F0
7F0003F8
7E0001F8
7E0001F8
7C0000FC
FC0000FC
FC0000FC
FC0000FC
7E0000FC
7E0001F8
7E0001F8
7F0003F8
3F8003F0
3FC00FF0
1FF01FE0
0FFFFFE0
07FFFFC0
03FFFF00
01FFFE00
007FF800
00070000
ENDCHAR
STARTCHAR 0150
ENCODING 336
SWIDTH 822 0
DWIDTH 32 0
BBX 30 36 1 -1
BITMAP
000F3C00
001E3C00
001E7800
003C7000
00387000
00000000
00000000
000FC000
007FF800
01FFFE00
07FFFF80
0FFFFFC0
1FFFFFE0
1FE01FE0
3FC007F0
3F0003F0
7F0003F8
7E0001F8
7E0001F8
7C0000FC
FC0000FC
FC0000FC
FC0000FC
7E0000FC
7E0001F8
7E0001F8
7F0003F8
3F8003F0
3FC00FF0
1FF01FE0
0FFFFFE0
07FFFFC0
03FFFF00
01FFFE00
007FF800
00070000
ENDCHAR
STARTCHAR 0151
ENCODING 337
SWIDTH 822 0
DWIDTH 32 0
BBX 30 36 1 -1
BITMAP
000F3C00
001E3C00
001E7800
003C7000
00387000
00000000
00000000
000FC000
007FF800
01FFFE00
07FFFF80
0FFFFFC0
1FFFFFE0
1FE01FE0
3FC007F0
3F0003F0
7F0003F8
7E0001F8
7E0001F8
7C0000FC
FC0000FC
FC0000FC
FC0000FC
7E0000FC
7E0001F8
7E0001F8
7F0003F8
3F8003F0
3FC00FF0
1FF01FE0
0FFFFFE0
07FFFFC0
03FFFF00
01FFFE00
007FF800
00070000
ENDCHAR
STARTCHAR 0154
ENCODING 340
SWIDTH 617 0
DWIDTH 24 0
BBX 22 35 1 0
BITMAP
000F00
001E00
001C00
003C00
003800
000000
000000
000000
3FFF80
3FFFE0
3FFFF0
3FFFF8
3FFFF8
3F03FC
3F00FC
3F00FC
3F00FC
3F00FC
3F01FC
3F0FF8
FFFFF8
FFFFF0
FFFFE0
FFFFE0
FFFFF0
3F03F0
3F03F8
3F01F8
3F01F8
3F01F8
3F01F8
3F01F8
3F01F8
3F01F8
3F01F8
ENDCHAR
STARTCHAR 0155
ENCODING 341
SWIDTH 617 0
DWIDTH 24 0
BBX 22 35 1 0
BITMAP
000F00
001E00
001C00
003C00
003800
000000
000000
000000
3FFF80
3FFFE0
3FFFF0
3FFFF8
3FFFF8
3F03FC
3F00FC
3F00FC
3F00FC
3F00FC
3F01FC
3F0FF8
FFFFF8
FFFFF0
FFFFE0
FFFFE0
FFFFF0
3F03F0
3F03F8
3F01F8
3F01F8
3F01F8
3F01F8
3F01F8
3F01F8
3F01F8
3F01F8
ENDCHAR
STARTCHAR 0158
ENCODING 344
SWIDTH 617 0
DWIDTH 24 0
BBX 22 35 1 0
BITMAP
03FF00
01FE00
00FC00
007800
003000
000000
000000
000000
3FFF80
3FFFE0
3FFFF0
3FFFF8
3FFFF8
3F03FC
3F00FC
3F00FC
3F00FC
3F00FC
3F01FC
3F0FF8
FFFFF8
FFFFF0
FFFFE0
FFFFE0
FFFFF0
3F03F0
3F03F8
3F01F8
3F01F8
3F01F8
3F01F8
3F01F8
3F01F8
3F01F8
3F01F8
ENDCHAR
STARTCHAR 0159
ENCODING 345
SWIDTH 617 0
DWIDTH 24 0
BBX 22 35 1 0
BITMAP
03FF00
01FE00
00FC00
007800
003000
000000
000000
000000
3FFF80
3FFFE0
3FFFF0
3FFFF8
3FFFF8
3F03FC
3F00FC
3F00FC
3F00FC
3F00FC
3F01FC
3F0FF8
FFFFF8
FFFFF0
FFFFE0
FFFFE0
FFFFF0
3F03F0
3F03F8
3F01F8
3F01F8
3F01F8
3F01F8
3F01F8
3F01F8
3F01F8
3F01F8
ENDCHAR
STARTCHAR 015A
ENCODING 346
SWIDTH 514 0
DWIDTH 20 0
BBX 18 36 1 -1
BITMAP
007C00
007800
007000
00F000
00E000
000000
000000
03F000
0FFC00
1FFE00
3FFF00
3FFF80
7FFF80
7E1FC0
7E0F00
7E0000
7F0000
3F8000
3FE000
1FF000
0FFC00
07FE00
01FF00
00FF80
003F80
001FC0
000FC0
1C0FC0
FC0FC0
7E1FC0
7FFFC0
3FFF80
3FFF00
1FFF00
07FC00
006000
ENDCHAR
STARTCHAR 015B
ENCODING 347
SWIDTH 514 0
DWIDTH 20 0
BBX 18 36 1 -1
BITMAP
007C00
007800
007000
00F000
00E000
000000
000000
03F000
0FFC00
1FFE00
3FFF00
3FFF80
7FFF80
7E1FC0
7E0F00
7E0000
7F0000
3F8000
3FE000
1FF000
0FFC00
07FE00
01FF00
00FF80
003F80
001FC0
000FC0
1C0FC0
FC0FC0
7E1FC0
7FFFC0
3FFF80
3FFF00
1FFF00
07FC00
006000
ENDCHAR
STARTCHAR 015E
ENCODING 350
SWIDTH 514 0
DWIDTH 20 0
BBX 18 37 1 -9
BITMAP
03F000
0FFC00
1FFE00
3FFF00
3FFF80
7FFF80
7E1FC0
7E0F00
7E0000
7F0000
3F8000
3FE000
1FF000
0FFC00
07FE00
01FF00
00FF80
003F80
001FC0
000FC0
1C0FC0
FC0FC0
7E1FC0
7FFFC0
3FFF80
3FFF00
1FFF00
07FC00
00E000
00C000
00F000
007000
043800
0F7800
0FF000
07F000
01C000
ENDCHAR
STARTCHAR 015F
ENCODING 351
SWIDTH 514 0
DWIDTH 20 0
BBX 18 37 1 -9
BITMAP
03F000
0FFC00
1FFE00
3FFF00
3FFF80
7FFF80
7E1FC0
7E0F00
7E0000
7F0000
3F8000
3FE000
1FF000
0FFC00
07FE00
01FF00
00FF80
003F80
001FC0
000FC0
1C0FC0
FC0FC0
7E1FC0
7FFFC0
3FFF80
3FFF00
1FFF00
07FC00
00E000
00C000
00F000
007000
043800
0F7800
0FF000
07F000
01C000
ENDCHAR
STARTCHAR 0160
ENCODING 352
SWIDTH 514 0
DWIDTH 20 0
BBX 18 36 1 -1
BITMAP
0FFC00
07F800
03F000
01E000
00C000
000000
000000
03F000
0FFC00
1FFE00
3FFF00
3FFF80
7FFF80
7E1FC0
7E0F00
7E0000
7F0000
3F8000
3FE000
1FF000
0FFC00
07FE00
01FF00
00FF80
003F80
001FC0
000FC0
1C0FC0
FC0FC0
7E1FC0
7FFFC0
3FFF80
3FFF00
1FFF00
07FC00
006000
ENDCHAR
STARTCHAR 0161
ENCODING 353
SWIDTH 514 0
DWIDTH 20 0
BBX 18 36 1 -1
BITMAP
0FFC00
07F800
03F000
01E000
00C000
000000
000000
03F000
0FFC00
1FFE00
3FFF00
3FFF80
7FFF80
7E1FC0
7E0F00
7E0000
7F0000
3F8000
3FE000
1FF000
0FFC00
07FE00
01FF00
00FF80
003F80
001FC0
000FC0
1C0FC0
FC0FC0
7E1FC0
7FFFC0
3FFF80
3FFF00
1FFF00
07FC00
006000
ENDCHAR
STARTCHAR 0162
ENCODING 354
SWIDTH 514 0
DWIDTH 20 0
BBX 19 36 1 -9
BITMAP
FFFFE0
FFFFE0
FFFFE0
FFFFE0
FFFFE0
03F000
03F000
03F000
03F000
03F000
03F000
03F000
03F000
03F000
03F000
03F000
03F000
03F000
03F000
03F000
03F000
03F000
03F000
03F000
03F000
03F000
03F000
00E000
00C000
00E000
007000
043000
0E7000
0FF000
07E000
01C000
ENDCHAR
STARTCHAR 0163
ENCODING 355
SWIDTH 514 0
DWIDTH 20 0
BBX 19 36 1 -9
BITMAP
FFFFE0
FFFFE0
FFFFE0
FFFFE0
FFFFE0
03F000
03F000
03F000
03F000
03F000
03F000
03F000
03F000
03F000
03F000
03F000
03F000
03F000
03F000
03F000
03F000
03F000
03F000
03F000
03F000
03F000
03F000
00E000
00C000
00E000
007000
043000
0E7000
0FF000
07E000
01C000
ENDCHAR
STARTCHAR 0164
ENCODING 356
SWIDTH 514 0
DWIDTH 20 0
BBX 19 35 1 0
BITMAP
07FC00
03F800
03F000
01E000
00E000
004000
000000
000000
FFFFE0
FFFFE0
FFFFE0
FFFFE0
FFFFE0
03F000
03F000
03F000
03F000
03F000
03F000
03F000
03F000
03F000
03F000
03F000
03F000
03F000
03F000
03F000
03F000
03F000
03F000
03F000
03F000
03F000
03F000
ENDCHAR
STARTCHAR 0165
ENCODING 357
SWIDTH 514 0
DWIDTH 20 0
BBX 19 35 1 0
BITMAP
07FC00
03F800
03F000
01E000
00E000
004000
000000
000000
FFFFE0
FFFFE0
FFFFE0
FFFFE0
FFFFE0
03F000
03F000
03F000
03F000
03F000
03F000
03F000
03F000
03F000
03F000
03F000
03F000
03F000
03F000
03F000
03F000
03F000
03F000
03F000
03F000
03F000
03F000
ENDCHAR
STARTCHAR 0168
ENCODING 360
SWIDTH 540 0
DWIDTH 21 0
BBX 17 36 2 -1
BITMAP
0F0000
1FF800
1FF800
1FF800
000000
000000
000000
000000
FC0F80
FC0F80
FC0F80
FC0F80
FC0F80
FC0F80
FC0F80
FC0F80
FC0F80
FC0F80
FC0F80
FC0F80
FC0F80
FC0F80
FC0F80
FC0F80
FC0F80
FC0F80
FC0F80
FC1F80
FC1F80
FE3F80
7FFF80
7FFF00
3FFE00
1FFC00
0FF800
00C000
ENDCHAR
STARTCHAR 0169
ENCODING 361
SWIDTH 540 0
DWIDTH 21 0
BBX 17 36 2 -1
BITMAP
0F0000
1FF800
1FF800
1FF800
000000
000000
000000
000000
FC0F80
FC0F80
FC0F80
FC0F80
FC0F80
FC0F80
FC0F80
FC0F80
FC0F80
FC0F80
FC0F80
FC0F80
FC0F80
FC0F80
FC0F80
FC0F80
FC0F80
FC0F80
FC0F80
FC1F80
FC1F80
FE3F80
7FFF80
7FFF00
3FFE00
1FFC00
0FF800
00C000
ENDCHAR
STARTCHAR 016A
ENCODING 362
SWIDTH 540 0
DWIDTH 21 0
BBX 17 35 2 -1
BITMAP
1FFC00
1FFC00
1FFC00
1FFC00
000000
000000
000000
FC0F80
FC0F80
FC0F80
FC0F80
FC0F80
FC0F80
FC0F80
FC0F80
FC0F80
FC0F80
FC0F80
FC0F80
FC0F80
FC0F80
FC0F80
FC0F80
FC0F80
FC0F80
FC0F80
FC1F80
FC1F80
FE3F80
7FFF80
7FFF00
3FFE00
1FFC00
0FF800
00C000
ENDCHAR
STARTCHAR 016B
ENCODING 363
SWIDTH 540 0
DWIDTH 21 0
BBX 17 35 2 -1
BITMAP
1FFC00
1FFC00
1FFC00
1FFC00
000000
000000
000000
FC0F80
FC0F80
FC0F80
FC0F80
FC0F80
FC0F80
FC0F80
FC0F80
FC0F80
FC0F80
FC0F80
FC0F80
FC0F80
FC0F80
FC0F80
FC0F80
FC0F80
FC0F80
FC0F80
FC1F80
FC1F80
FE3F80
7FFF80
7FFF00
3FFE00
1FFC00
0FF800
00C000
ENDCHAR
STARTCHAR 016E
ENCODING 366
SWIDTH 540 0
DWIDTH 21 0
BBX 17 38 2 -1
BITMAP
03E000
07F000
063800
063800
063800
07F000
03E000
018000
000000
000000
FC0F80
FC0F80
FC0F80
FC0F80
FC0F80
FC0F80
FC0F80
FC0F80
FC0F80
FC0F80
FC0F80
FC0F80
FC0F80
FC0F80
FC0F80
FC0F80
FC0F80
FC0F80
FC0F80
FC1F80
FC1F80
FE3F80
7FFF80
7FFF00
3FFE00
1FFC00
0FF800
00C000
ENDCHAR
STARTCHAR 016F
ENCODING 367
SWIDTH 540 0
DWIDTH 21 0
BBX 17 38 2 -1
BITMAP
03E000
07F000
063800
063800
063800
07F000
03E000
018000
000000
000000
FC0F80
FC0F80
FC0F80
FC0F80
FC0F80
FC0F80
FC0F80
FC0F80
FC0F80
FC0F80
FC0F80
FC0F80
FC0F80
FC0F80
FC0F80
FC0F80
FC0F80
FC0F80
FC0F80
FC1F80
FC1F80
FE3F80
7FFF80
7FFF00
3FFE00
1FFC00
0FF800
00C000
ENDCHAR
STARTCHAR 0170
ENCODING 368
SWIDTH 540 0
DWIDTH 21 0
BBX 17 36 2 -1
BITMAP
078F00
079E00
0F1E00
0E3C00
1E3800
000000
000000
000000
FC0F80
FC0F80
FC0F80
FC0F80
FC0F80
FC0F80
FC0F80
FC0F80
FC0F80
FC0F80
FC0F80
FC0F80
FC0F80
FC0F80
FC0F80
FC0F80
FC0F80
FC0F80
FC0F80
FC1F80
FC1F80
FE3F80
7FFF80
7FFF00
3FFE00
1FFC00
0FF800
00C000
ENDCHAR
STARTCHAR 0171
ENCODING 369
SWIDTH 540 0
DWIDTH 21 0
BBX 17 36 2 -1
BITMAP
078F00
079E00
0F1E00
0E3C00
1E3800
000000
000000
000000
FC0F80
FC0F80
FC0F80
FC0F80
FC0F80
FC0F80
FC0F80
FC0F80
FC0F80
FC0F80
FC0F80
FC0F80
FC0F80
FC0F80
FC0F80
FC0F80
FC0F80
FC0F80
FC0F80
FC1F80
FC1F80
FE3F80
7FFF80
7FFF00
3FFE00
1FFC00
0FF800
00C000
ENDCHAR
STARTCHAR 0172
ENCODING 370
SWIDTH 540 0
DWIDTH 21 0
BBX 17 35 2 -8
BITMAP
FC0F80
FC0F80
FC0F80
FC0F80
FC0F80
FC0F80
FC0F80
FC0F80
FC0F80
FC0F80
FC0F80
FC0F80
FC0F80
FC0F80
FC0F80
FC0F80
FC0F80
FC0F80
FC0F80
FC1F80
FC1F80
FE3F80
7FFF80
7FFF00
3FFE00
1FFC00
0FF800
03C000
078000
070000
070000
071800
07FC00
03F800
01E000
ENDCHAR
STARTCHAR 0173
ENCODING 371
SWIDTH 540 0
DWIDTH 21 0
BBX 17 35 2 -8
BITMAP
FC0F80
FC0F80
FC0F80
FC0F80
FC0F80
FC0F80
FC0F80
FC0F80
FC0F80
FC0F80
FC0F80
FC0F80
FC0F80
FC0F80
FC0F80
FC0F80
FC0F80
FC0F80
FC0F80
FC1F80
FC1F80
FE3F80
7FFF80
7FFF00
3FFE00
1FFC00
0FF800
03C000
078000
070000
070000
071800
07FC00
03F800
01E000
ENDCHAR
STARTCHAR 0176
ENCODING 374
SWIDTH 514 0
DWIDTH 20 0
BBX 17 35 2 1
BITMAP
008000
01C000
03E000
07F000
0FF800
000000
000000
000000
F81F80
F81F80
F81F80
F81F80
F81F80
F81F80
F81F80
F81F80
F81F80
F81F80
F81F80
F81F80
FC1F80
FC1F80
FC1F80
FFFF80
7FFF00
7FFE00
3FFE00
1FF800
07E000
07E000
07E000
07E000
07E000
07E000
07E000
ENDCHAR
STARTCHAR 0177
ENCODING 375
SWIDTH 514 0
DWIDTH 20 0
BBX 17 35 2 1
BITMAP
008000
01C000
03E000
07F000
0FF800
000000
000000
000000
F81F80
F81F80
F81F80
F81F80
F81F80
F81F80
F81F80
F81F80
F81F80
F81F80
F81F80
F81F80
FC1F80
FC1F80
FC1F80
FFFF80
7FFF00
7FFE00
3FFE00
1FF800
07E000
07E000
07E000
07E000
07E000
07E000
07E000
ENDCHAR
STARTCHAR 0178
ENCODING 376
SWIDTH 514 0
DWIDTH 20 0
BBX 17 36 2 0
BITMAP
180400
7C1F00
7E3F80
FE3F80
7E3F80
7E1F00
3C0E00
000000
000000
F81F80
F81F80
F81F80
F81F80
F81F80
F81F80
F81F80
F81F80
F81F80
F81F80
F81F80
F81F80
FC1F80
FC1F80
FC1F80
FFFF80
7FFF00
7FFE00
3FFE00
1FF800
07E000
07E000
07E000
07E000
07E000
07E000
07E000
ENDCHAR
STARTCHAR 0179
ENCODING 377
SWIDTH 540 0
DWIDTH 21 0
BBX 19 35 1 0
BITMAP
003C00
003C00
007800
007000
00F000
000000
000000
000000
FFFFE0
FFFFE0
FFFFE0
FFFFC0
FFFFC0
001F80
003F80
003F00
007E00
007E00
00FC00
01FC00
01F800
03F800
03F000
07E000
0FE000
0FC000
1FC000
1F8000
3F0000
7F0000
7FFFC0
FFFFC0
FFFFC0
FFFFC0
FFFFC0
ENDCHAR
STARTCHAR 017A
ENCODING 378
SWIDTH 540 0
DWIDTH 21 0
BBX 19 35 1 0
BITMAP
003C00
003C00
007800
007000
00F000
000000
000000
000000
FFFFE0
FFFFE0
FFFFE0
FFFFC0
FFFFC0
001F80
003F80
003F00
007E00
007E00
00FC00
01FC00
01F800
03F800
03F000
07E000
0FE000
0FC000
1FC000
1F8000
3F0000
7F0000
7FFFC0
FFFFC0
FFFFC0
FFFFC0
FFFFC0
ENDCHAR
STARTCHAR 017B
ENCODING 379
SWIDTH 540 0
DWIDTH 21 0
BBX 19 36 1 0
BITMAP
00F000
01F800
03F800
03F800
01F800
00F000
000000
000000
000000
FFFFE0
FFFFE0
FFFFE0
FFFFC0
FFFFC0
001F80
003F80
003F00
007E00
007E00
00FC00
01FC00
01F800
03F800
03F000
07E000
0FE000
0FC000
1FC000
1F8000
3F0000
7F0000
7FFFC0
FFFFC0
FFFFC0
FFFFC0
FFFFC0
ENDCHAR
STARTCHAR 017C
ENCODING 380
SWIDTH 540 0
DWIDTH 21 0
BBX 19 36 1 0
BITMAP
00F000
01F800
03F800
03F800
01F800
00F000
000000
000000
000000
FFFFE0
FFFFE0
FFFFE0
FFFFC0
FFFFC0
001F80
003F80
003F00
007E00
007E00
00FC00
01FC00
01F800
03F800
03F000
07E000
0FE000
0FC000
1FC000
1F8000
3F0000
7F0000
7FFFC0
FFFFC0
FFFFC0
FFFFC0
FFFFC0
ENDCHAR
STARTCHAR 017D
ENCODING 381
SWIDTH 540 0
DWIDTH 21 0
BBX 19 35 1 0
BITMAP
07FC00
03F800
01F800
00F000
00E000
004000
000000
000000
FFFFE0
FFFFE0
FFFFE0
FFFFC0
FFFFC0
001F80
003F80
003F00
007E00
007E00
00FC00
01FC00
01F800
03F800
03F000
07E000
0FE000
0FC000
1FC000
1F8000
3F0000
7F0000
7FFFC0
FFFFC0
FFFFC0
FFFFC0
FFFFC0
ENDCHAR
STARTCHAR 017E
ENCODING 382
SWIDTH 540 0
DWIDTH 21 0
BBX 19 35 1 0
BITMAP
07FC00
03F800
01F800
00F000
00E000
004000
000000
000000
FFFFE0
FFFFE0
FFFFE0
FFFFC0
FFFFC0
001F80
003F80
003F00
007E00
007E00
00FC00
01FC00
01F800
03F800
03F000
07E000
0FE000
0FC000
1FC000
1F8000
3F0000
7F0000
7FFFC0
FFFFC0
FFFFC0
FFFFC0
FFFFC0
ENDCHAR
STARTCHAR 01A0
ENCODING 416
SWIDTH 822 0
DWIDTH 32 0
BBX 30 32 1 -1
BITMAP
000000F8
000000F0
000000F0
000FC0F0
007FF8F0
01FFFEF0
07FFFF80
0FFFFFC0
1FFFFFE0
1FE01FE0
3FC007F0
3F0003F0
7F0003F8
7E0001F8
7E0001F8
7C0000FC
FC0000FC
FC0000FC
FC0000FC
7E0000FC
7E0001F8
7E0001F8
7F0003F8
3F8003F0
3FC00FF0
1FF01FE0
0FFFFFE0
07FFFFC0
03FFFF00
01FFFE00
007FF800
00070000
ENDCHAR
STARTCHAR 01A1
ENCODING 417
SWIDTH 822 0
DWIDTH 32 0
BBX 30 32 1 -1
BITMAP
000000F8
000000F0
000000F0
000FC0F0
007FF8F0
01FFFEF0
07FFFF80
0FFFFFC0
1FFFFFE0
1FE01FE0
3FC007F0
3F0003F0
7F0003F8
7E0001F8
7E0001F8
7C0000FC
FC0000FC
FC0000FC
FC0000FC
7E0000FC
7E0001F8
7E0001F8
7F0003F8
3F8003F0
3FC00FF0
1FF01FE0
0FFFFFE0
07FFFFC0
03FFFF00
01FFFE00
007FF800
00070000
ENDCHAR
STARTCHAR 01AF
ENCODING 431
SWIDTH 540 0
DWIDTH 21 0
BBX 22 32 2 -1
BITMAP
00003C
00003C
00003C
00003C
FC0FB8
FC0FB8
FC0F80
FC0F80
FC0F80
FC0F80
FC0F80
FC0F80
FC0F80
FC0F80
FC0F80
FC0F80
FC0F80
FC0F80
FC0F80
FC0F80
FC0F80
FC0F80
FC0F80
FC1F80
FC1F80
FE3F80
7FFF80
7FFF00
3FFE00
1FFC00
0FF800
00C000
ENDCHAR
STARTCHAR 01B0
ENCODING 432
SWIDTH 540 0
DWIDTH 21 0
BBX 22 32 2 -1
BITMAP
00003C
00003C
00003C
00003C
FC0FB8
FC0FB8
FC0F80
FC0F80
FC0F80
FC0F80
FC0F80
FC0F80
FC0F80
FC0F80
FC0F80
FC0F80
FC0F80
FC0F80
FC0F80
FC0F80
FC0F80
FC0F80
FC0F80
FC1F80
FC1F80
FE3F80
7FFF80
7FFF00
3FFE00
1FFC00
0FF800
00C000
ENDCHAR
STARTCHAR 01CD
ENCODING 461
SWIDTH 565 0
DWIDTH 22 0
BBX 20 35 2 0
BITMAP
0FF800
07F800
03F000
01E000
00C000
008000
000000
03E000
0FF800
1FFE00
3FFF00
7FFF00
7FFF80
FE1F80
FC1F80
FC0F80
FC0FC0
FC0FC0
FC0FC0
FC0FC0
FC0FC0
FC0FC0
FC0FC0
FC0FC0
FC0FC0
FC0FC0
FC0FC0
FC0FC0
FC0FC0
FC0FC0
FFFFF0
FFFFF0
FFFFF0
FFFFF0
FFFFF0
ENDCHAR
STARTCHAR 01CE
ENCODING 462
SWIDTH 565 0
DWIDTH 22 0
BBX 20 35 2 0
BITMAP
0FF800
07F800
03F000
01E000
00C000
008000
000000
03E000
0FF800
1FFE00
3FFF00
7FFF00
7FFF80
FE1F80
FC1F80
FC0F80
FC0FC0
FC0FC0
FC0FC0
FC0FC0
FC0FC0
FC0FC0
FC0FC0
FC0FC0
FC0FC0
FC0FC0
FC0FC0
FC0FC0
FC0FC0
FC0FC0
FFFFF0
FFFFF0
FFFFF0
FFFFF0
FFFFF0
ENDCHAR
STARTCHAR 01CF
ENCODING 463
SWIDTH 257 0
DWIDTH 10 0
BBX 9 24 1 0
BITMAP
FF80
7F00
3E00
3C00
1800
0000
0000
7E00
7E00
7E00
7E00
7E00
7E00
7E00
7E00
7E00
7E00
7E00
7E00
7E00
7E00
7E00
7E00
7E00
ENDCHAR
STARTCHAR 01D0
ENCODING 464
SWIDTH 257 0
DWIDTH 10 0
BBX 9 24 1 0
BITMAP
FF80
7F00
3E00
3C00
1800
0000
0000
7E00
7E00
7E00
7E00
7E00
7E00
7E00
7E00
7E00
7E00
7E00
7E00
7E00
7E00
7E00
7E00
7E00
ENDCHAR
STARTCHAR 01D1
ENCODING 465
SWIDTH 822 0
DWIDTH 32 0
BBX 30 36 1 -1
BITMAP
003FF000
001FE000
000FC000
00078000
00030000
00000000
00000000
000FC000
007FF800
01FFFE00
07FFFF80
0FFFFFC0
1FFFFFE0
1FE01FE0
3FC007F0
3F0003F0
7F0003F8
7E0001F8
7E0001F8
7C0000FC
FC0000FC
FC0000FC
FC0000FC
7E0000FC
7E0001F8
7E0001F8
7F0003F8
3F8003F0
3FC00FF0
1FF01FE0
0FFFFFE0
07FFFFC0
03FFFF00
01FFFE00
007FF800
00070000
ENDCHAR
STARTCHAR 01D2
ENCODING 466
SWIDTH 822 0
DWIDTH 32 0
BBX 30 36 1 -1
BITMAP
003FF000
001FE000
000FC000
00078000
00030000
00000000
00000000
000FC000
007FF800
01FFFE00
07FFFF80
0FFFFFC0
1FFFFFE0
1FE01FE0
3FC007F0
3F0003F0
7F0003F8
7E0001F8
7E0001F8
7C0000FC
FC0000FC
FC0000FC
FC0000FC
7E0000FC
7E0001F8
7E0001F8
7F0003F8
3F8003F0
3FC00FF0
1FF01FE0
0FFFFFE0
07FFFFC0
03FFFF00
01FFFE00
007FF800
00070000
ENDCHAR
STARTCHAR 01D3
ENCODING 467
SWIDTH 540 0
DWIDTH 21 0
BBX 17 36 2 -1
BITMAP
0FF800
07F000
03F000
01E000
01C000
008000
000000
000000
FC0F80
FC0F80
FC0F80
FC0F80
FC0F80
FC0F80
FC0F80
FC0F80
FC0F80
FC0F80
FC0F80
FC0F80
FC0F80
FC0F80
FC0F80
FC0F80
FC0F80
FC0F80
FC0F80
FC1F80
FC1F80
FE3F80
7FFF80
7FFF00
3FFE00
1FFC00
0FF800
00C000
ENDCHAR
STARTCHAR 01D4
ENCODING 468
SWIDTH 540 0
DWIDTH 21 0
BBX 17 36 2 -1
BITMAP
0FF800
07F000
03F000
01E000
01C000
008000
000000
000000
FC0F80
FC0F80
FC0F80
FC0F80
FC0F80
FC0F80
FC0F80
FC0F80
FC0F80
FC0F80
FC0F80
FC0F80
FC0F80
FC0F80
FC0F80
FC0F80
FC0F80
FC0F80
FC0F80
FC1F80
FC1F80
FE3F80
7FFF80
7FFF00
3FFE00
1FFC00
0FF800
00C000
ENDCHAR
STARTCHAR 02C6
ENCODING 710
SWIDTH 334 0
DWIDTH 13 0
BBX 9 5 0 31
BITMAP
0C00
1E00
3F00
7F00
FF80
ENDCHAR
STARTCHAR 02C7
ENCODING 711
SWIDTH 231 0
DWIDTH 9 0
BBX 10 5 0 29
BITMAP
FFC0
7F80
3F00
1E00
0C00
ENDCHAR
STARTCHAR 02D8
ENCODING 728
SWIDTH 282 0
DWIDTH 11 0
BBX 9 4 0 30
BITMAP
FF80
FF00
7F00
3E00
ENDCHAR
STARTCHAR 02D9
ENCODING 729
SWIDTH 154 0
DWIDTH 6 0
BBX 7 6 0 30
BITMAP
7C
FE
FE
FE
7E
7C
ENDCHAR
STARTCHAR 02DA
ENCODING 730
SWIDTH 205 0
DWIDTH 8 0
BBX 8 8 0 29
BITMAP
7E
7F
E7
C3
E7
FF
7E
18
ENDCHAR
STARTCHAR 02DB
ENCODING 731
SWIDTH 231 0
DWIDTH 9 0
BBX 9 8 0 -8
BITMAP
3E00
7000
E000
E000
E300
FF80
7F00
3E00
ENDCHAR
STARTCHAR 02DC
ENCODING 732
SWIDTH 231 0
DWIDTH 9 0
BBX 9 4 0 30
BITMAP
F000
FF80
FF80
FF80
ENDCHAR
STARTCHAR 02DD
ENCODING 733
SWIDTH 334 0
DWIDTH 13 0
BBX 13 5 0 30
BITMAP
3C78
38F0
78E0
71E0
F1C0
ENDCHAR
STARTCHAR 0300
ENCODING 768
SWIDTH 0 0
DWIDTH 0 0
BBX 6 5 -6 30
BITMAP
F0
70
78
38
3C
ENDCHAR
STARTCHAR 0301
ENCODING 769
SWIDTH 0 0
DWIDTH 0 0
BBX 6 5 -6 30
BITMAP
3C
78
70
F0
E0
ENDCHAR
STARTCHAR 0302
ENCODING 770
SWIDTH 0 0
DWIDTH 0 0
BBX 9 5 -9 31
BITMAP
1800
3C00
7E00
7F00
FF80
ENDCHAR
STARTCHAR 0303
ENCODING 771
SWIDTH 0 0
DWIDTH 0 0
BBX 9 5 -9 30
BITMAP
F000
FF80
FF80
FF80
0200
ENDCHAR
STARTCHAR 0304
ENCODING 772
SWIDTH 0 0
DWIDTH 0 0
BBX 11 4 -11 30
BITMAP
FFE0
FFE0
FFE0
FFE0
ENDCHAR
STARTCHAR 0306
ENCODING 774
SWIDTH 0 0
DWIDTH 0 0
BBX 9 4 -9 30
BITMAP
FF80
7F80
7F00
3E00
ENDCHAR
STARTCHAR 0307
ENCODING 775
SWIDTH 0 0
DWIDTH 0 0
BBX 7 6 -7 30
BITMAP
7C
7E
FE
FE
7E
3C
ENDCHAR
STARTCHAR 0308
ENCODING 776
SWIDTH 0 0
DWIDTH 0 0
BBX 16 7 -16 29
BITMAP
300C
7C3E
FC3F
FE7F
FC3F
FC3F
781E
ENDCHAR
STARTCHAR 0309
ENCODING 777
SWIDTH 0 0
DWIDTH 0 0
BBX 4 7 -4 30
BITMAP
F0
70
F0
F0
E0
E0
E0
ENDCHAR
STARTCHAR 030A
ENCODING 778
SWIDTH 0 0
DWIDTH 0 0
BBX 8 8 -8 29
BITMAP
7E
FE
E7
C3
E7
FF
7E
18
ENDCHAR
STARTCHAR 030B
ENCODING 779
SWIDTH 0 0
DWIDTH 0 0
BBX 13 5 -13 30
BITMAP
3CF8
78F0
78E0
71E0
E1C0
ENDCHAR
STARTCHAR 030C
ENCODING 780
SWIDTH 0 0
DWIDTH 0 0
BBX 10 5 -10 29
BITMAP
FFC0
7F80
3F00
1E00
0C00
ENDCHAR
STARTCHAR 031B
ENCODING 795
SWIDTH 0 0
DWIDTH 0 0
BBX 4 6 -4 25
BITMAP
F0
F0
F0
E0
E0
E0
ENDCHAR
STARTCHAR 0323
ENCODING 803
SWIDTH 0 0
DWIDTH 0 0
BBX 7 7 -7 -11
BITMAP
38
7C
FE
FE
FE
7C
38
ENDCHAR
STARTCHAR 0326
ENCODING 806
SWIDTH 0 0
DWIDTH 0 0
BBX 7 7 -7 -9
BITMAP
1E
3C
3C
38
78
78
F0
ENDCHAR
STARTCHAR 0327
ENCODING 807
SWIDTH 0 0
DWIDTH 0 0
BBX 9 9 -9 -9
BITMAP
0E00
0E00
0F00
0380
0380
7780
FF80
7F00
1C00
ENDCHAR
STARTCHAR 0328
ENCODING 808
SWIDTH 0 0
DWIDTH 0 0
BBX 9 8 -9 -8
BITMAP
7E00
F000
E000
E000
E300
FF80
7F00
3E00
ENDCHAR
STARTCHAR 0335
ENCODING 821
SWIDTH 0 0
DWIDTH 0 0
BBX 13 4 -13 6
BITMAP
FFF8
FFF8
FFF8
FFF8
ENDCHAR
STARTCHAR 1EA0
ENCODING 7840
SWIDTH 565 0
DWIDTH 22 0
BBX 20 39 2 -11
BITMAP
03E000
0FF800
1FFE00
3FFF00
7FFF00
7FFF80
FE1F80
FC1F80
FC0F80
FC0FC0
FC0FC0
FC0FC0
FC0FC0
FC0FC0
FC0FC0
FC0FC0
FC0FC0
FC0FC0
FC0FC0
FC0FC0
FC0FC0
FC0FC0
FC0FC0
FFFFF0
FFFFF0
FFFFF0
FFFFF0
FFFFF0
000000
000000
000000
000000
01E000
03F000
03F000
07F000
03F000
03E000
00C000
ENDCHAR
STARTCHAR 1EA1
ENCODING 7841
SWIDTH 565 0
DWIDTH 22 0
BBX 20 39 2 -11
BITMAP
03E000
0FF800
1FFE00
3FFF00
7FFF00
7FFF80
FE1F80
FC1F80
FC0F80
FC0FC0
FC0FC0
FC0FC0
FC0FC0
FC0FC0
FC0FC0
FC0FC0
FC0FC0
FC0FC0
FC0FC0
FC0FC0
FC0FC0
FC0FC0
FC0FC0
FFFFF0
FFFFF0
FFFFF0
FFFFF0
FFFFF0
000000
000000
000000
000000
01E000
03F000
03F000
07F000
03F000
03E000
00C000
ENDCHAR
STARTCHAR 1EA2
ENCODING 7842
SWIDTH 565 0
DWIDTH 22 0
BBX 20 37 2 0
BITMAP
01C000
01E000
01E000
01C000
01C000
03C000
01C000
000000
000000
03E000
0FF800
1FFE00
3FFF00
7FFF00
7FFF80
FE1F80
FC1F80
FC0F80
FC0FC0
FC0FC0
FC0FC0
FC0FC0
FC0FC0
FC0FC0
FC0FC0
FC0FC0
FC0FC0
FC0FC0
FC0FC0
FC0FC0
FC0FC0
FC0FC0
FFFFF0
FFFFF0
FFFFF0
FFFFF0
FFFFF0
ENDCHAR
STARTCHAR 1EA3
ENCODING 7843
SWIDTH 565 0
DWIDTH 22 0
BBX 20 37 2 0
BITMAP
01C000
01E000
01E000
01C000
01C000
03C000
01C000
000000
000000
03E000
0FF800
1FFE00
3FFF00
7FFF00
7FFF80
FE1F80
FC1F80
FC0F80
FC0FC0
FC0FC0
FC0FC0
FC0FC0
FC0FC0
FC0FC0
FC0FC0
FC0FC0
FC0FC0
FC0FC0
FC0FC0
FC0FC0
FC0FC0
FC0FC0
FFFFF0
FFFFF0
FFFFF0
FFFFF0
FFFFF0
ENDCHAR
STARTCHAR 1EA4
ENCODING 7844
SWIDTH 565 0
DWIDTH 22 0
BBX 20 37 2 0
BITMAP
0003E0
0003C0
00C780
01E700
03E000
07F000
0FF800
000000
000000
03E000
0FF800
1FFE00
3FFF00
7FFF00
7FFF80
FE1F80
FC1F80
FC0F80
FC0FC0
FC0FC0
FC0FC0
FC0FC0
FC0FC0
FC0FC0
FC0FC0
FC0FC0
FC0FC0
FC0FC0
FC0FC0
FC0FC0
FC0FC0
FC0FC0
FFFFF0
FFFFF0
FFFFF0
FFFFF0
FFFFF0
ENDCHAR
STARTCHAR 1EA5
ENCODING 7845
SWIDTH 565 0
DWIDTH 22 0
BBX 20 37 2 0
BITMAP
0003E0
0003C0
00C780
01E700
03E000
07F000
0FF800
000000
000000
03E000
0FF800
1FFE00
3FFF00
7FFF00
7FFF80
FE1F80
FC1F80
FC0F80
FC0FC0
FC0FC0
FC0FC0
FC0FC0
FC0FC0
FC0FC0
FC0FC0
FC0FC0
FC0FC0
FC0FC0
FC0FC0
FC0FC0
FC0FC0
FC0FC0
FFFFF0
FFFFF0
FFFFF0
FFFFF0
FFFFF0
ENDCHAR
STARTCHAR 1EA6
ENCODING 7846
SWIDTH 565 0
DWIDTH 22 0
BBX 21 37 1 0
BITMAP
F00000
780000
786000
38F000
01F000
03F800
07FC00
000000
000000
01F000
07FC00
0FFF00
1FFF80
3FFF80
3FFFC0
7F0FC0
7E0FC0
7E07C0
7E07E0
7E07E0
7E07E0
7E07E0
7E07E0
7E07E0
7E07E0
7E07E0
7E07E0
7E07E0
7E07E0
7E07E0
7E07E0
7E07E0
7FFFF8
7FFFF8
7FFFF8
7FFFF8
7FFFF8
ENDCHAR
STARTCHAR 1EA7
ENCODING 7847
SWIDTH 565 0
DWIDTH 22 0
BBX 21 37 1 0
BITMAP
F00000
780000
786000
38F000
01F000
03F800
07FC00
000000
000000
01F000
07FC00
0FFF00
1FFF80
3FFF80
3FFFC0
7F0FC0
7E0FC0
7E07C0
7E07E0
7E07E0
7E07E0
7E07E0
7E07E0
7E07E0
7E07E0
7E07E0
7E07E0
7E07E0
7E07E0
7E07E0
7E07E0
7E07E0
7FFFF8
7FFFF8
7FFFF8
7FFFF8
7FFFF8
ENDCHAR
STARTCHAR 1EA8
ENCODING 7848
SWIDTH 565 0
DWIDTH 22 0
BBX 20 40 2 0
BITMAP
000780
000780
000780
000700
000700
00C700
01E700
03E000
07F000
0FF800
000000
000000
03E000
0FF800
1FFE00
3FFF00
7FFF00
7FFF80
FE1F80
FC1F80
FC0F80
FC0FC0
FC0FC0
FC0FC0
FC0FC0
FC0FC0
FC0FC0
FC0FC0
FC0FC0
FC0FC0
FC0FC0
FC0FC0
FC0FC0
FC0FC0
FC0FC0
FFFFF0
FFFFF0
FFFFF0
FFFFF0
FFFFF0
ENDCHAR
STARTCHAR 1EA9
ENCODING 7849
SWIDTH 565 0
DWIDTH 22 0
BBX 20 40 2 0
BITMAP
000780
000780
000780
000700
000700
00C700
01E700
03E000
07F000
0FF800
000000
000000
03E000
0FF800
1FFE00
3FFF00
7FFF00
7FFF80
FE1F80
FC1F80
FC0F80
FC0FC0
FC0FC0
FC0FC0
FC0FC0
FC0FC0
FC0FC0
FC0FC0
FC0FC0
FC0FC0
FC0FC0
FC0FC0
FC0FC0
FC0FC0
FC0FC0
FFFFF0
FFFFF0
FFFFF0
FFFFF0
FFFFF0
ENDCHAR
STARTCHAR 1EAA
ENCODING 7850
SWIDTH 565 0
DWIDTH 22 0
BBX 22 38 2 0
BITMAP
000200
000FFC
000FFC
00CFFC
01E038
03E000
07F000
0FF800
000000
000000
03E000
0FF800
1FFE00
3FFF00
7FFF00
7FFF80
FE1F80
FC1F80
FC0F80
FC0FC0
FC0FC0
FC0FC0
FC0FC0
FC0FC0
FC0FC0
FC0FC0
FC0FC0
FC0FC0
FC0FC0
FC0FC0
FC0FC0
FC0FC0
FC0FC0
FFFFF0
FFFFF0
FFFFF0
FFFFF0
FFFFF0
ENDCHAR
STARTCHAR 1EAB
ENCODING 7851
SWIDTH 565 0
DWIDTH 22 0
BBX 22 38 2 0
BITMAP
000200
000FFC
000FFC
00CFFC
01E038
03E000
07F000
0FF800
000000
000000
03E000
0FF800
1FFE00
3FFF00
7FFF00
7FFF80
FE1F80
FC1F80
FC0F80
FC0FC0
FC0FC0
FC0FC0
FC0FC0
FC0FC0
FC0FC0
FC0FC0
FC0FC0
FC0FC0
FC0FC0
FC0FC0
FC0FC0
FC0FC0
FC0FC0
FFFFF0
FFFFF0
FFFFF0
FFFFF0
FFFFF0
ENDCHAR
STARTCHAR 1EAC
ENCODING 7852
SWIDTH 565 0
DWIDTH 22 0
BBX 20 46 2 -10
BITMAP
00C000
01E000
03E000
07F000
0FF800
000000
000000
03E000
0FF800
1FFE00
3FFF00
7FFF00
7FFF80
FE1F80
FC1F80
FC0F80
FC0FC0
FC0FC0
FC0FC0
FC0FC0
FC0FC0
FC0FC0
FC0FC0
FC0FC0
FC0FC0
FC0FC0
FC0FC0
FC0FC0
FC0FC0
FC0FC0
FFFFF0
FFFFF0
FFFFF0
FFFFF0
FFFFF0
000000
000000
000000
000000
01E000
03F000
03F000
07F000
03F000
03E000
00C000
ENDCHAR
STARTCHAR 1EAD
ENCODING 7853
SWIDTH 565 0
DWIDTH 22 0
BBX 20 46 2 -10
BITMAP
00C000
01E000
03E000
07F000
0FF800
000000
000000
03E000
0FF800
1FFE00
3FFF00
7FFF00
7FFF80
FE1F80
FC1F80
FC0F80
FC0FC0
FC0FC0
FC0FC0
FC0FC0
FC0FC0
FC0FC0
FC0FC0
FC0FC0
FC0FC0
FC0FC0
FC0FC0
FC0FC0
FC0FC0
FC0FC0
FFFFF0
FFFFF0
FFFFF0
FFFFF0
FFFFF0
000000
000000
000000
000000
01E000
03F000
03F000
07F000
03F000
03E000
00C000
ENDCHAR
STARTCHAR 1EAE
ENCODING 7854
SWIDTH 565 0
DWIDTH 22 0
BBX 20 37 2 0
BITMAP
0000F0
0001E0
0001C0
0FFBC0
07F800
07F000
03E000
000000
000000
03E000
0FF800
1FFE00
3FFF00
7FFF00
7FFF80
FE1F80
FC1F80
FC0F80
FC0FC0
FC0FC0
FC0FC0
FC0FC0
FC0FC0
FC0FC0
FC0FC0
FC0FC0
FC0FC0
FC0FC0
FC0FC0
FC0FC0
FC0FC0
FC0FC0
FFFFF0
FFFFF0
FFFFF0
FFFFF0
FFFFF0
ENDCHAR
STARTCHAR 1EAF
ENCODING 7855
SWIDTH 565 0
DWIDTH 22 0
BBX 20 37 2 0
BITMAP
0000F0
0001E0
0001C0
0FFBC0
07F800
07F000
03E000
000000
000000
03E000
0FF800
1FFE00
3FFF00
7FFF00
7FFF80
FE1F80
FC1F80
FC0F80
FC0FC0
FC0FC0
FC0FC0
FC0FC0
FC0FC0
FC0FC0
FC0FC0
FC0FC0
FC0FC0
FC0FC0
FC0FC0
FC0FC0
FC0FC0
FC0FC0
FFFFF0
FFFFF0
FFFFF0
FFFFF0
FFFFF0
ENDCHAR
STARTCHAR 1EB0
ENCODING 7856
SWIDTH 565 0
DWIDTH 22 0
BBX 22 37 0 0
BITMAP
F00000
780000
780000
3BFE00
01FE00
01FC00
00F800
000000
000000
00F800
03FE00
07FF80
0FFFC0
1FFFC0
1FFFE0
3F87E0
3F07E0
3F03E0
3F03F0
3F03F0
3F03F0
3F03F0
3F03F0
3F03F0
3F03F0
3F03F0
3F03F0
3F03F0
3F03F0
3F03F0
3F03F0
3F03F0
3FFFFC
3FFFFC
3FFFFC
3FFFFC
3FFFFC
ENDCHAR
STARTCHAR 1EB1
ENCODING 7857
SWIDTH 565 0
DWIDTH 22 0
BBX 22 37 0 0
BITMAP
F00000
780000
780000
3BFE00
01FE00
01FC00
00F800
000000
000000
00F800
03FE00
07FF80
0FFFC0
1FFFC0
1FFFE0
3F87E0
3F07E0
3F03E0
3F03F0
3F03F0
3F03F0
3F03F0
3F03F0
3F03F0
3F03F0
3F03F0
3F03F0
3F03F0
3F03F0
3F03F0
3F03F0
3F03F0
3FFFFC
3FFFFC
3FFFFC
3FFFFC
3FFFFC
ENDCHAR
STARTCHAR 1EB2
ENCODING 7858
SWIDTH 565 0
DWIDTH 22 0
BBX 20 39 2 0
BITMAP
0001C0
0001E0
0001E0
0001C0
0003C0
0FFBC0
07FBC0
07F1C0
03E000
000000
000000
03E000
0FF800
1FFE00
3FFF00
7FFF00
7FFF80
FE1F80
FC1F80
FC0F80
FC0FC0
FC0FC0
FC0FC0
FC0FC0
FC0FC0
FC0FC0
FC0FC0
FC0FC0
FC0FC0
FC0FC0
FC0FC0
FC0FC0
FC0FC0
FC0FC0
FFFFF0
FFFFF0
FFFFF0
FFFFF0
FFFFF0
ENDCHAR
STARTCHAR 1EB3
ENCODING 7859
SWIDTH 565 0
DWIDTH 22 0
BBX 20 39 2 0
BITMAP
0001C0
0001E0
0001E0
0001C0
0003C0
0FFBC0
07FBC0
07F1C0
03E000
000000
000000
03E000
0FF800
1FFE00
3FFF00
7FFF00
7FFF80
FE1F80
FC1F80
FC0F80
FC0FC0
FC0FC0
FC0FC0
FC0FC0
FC0FC0
FC0FC0
FC0FC0
FC0FC0
FC0FC0
FC0FC0
FC0FC0
FC0FC0
FC0FC0
FC0FC0
FFFFF0
FFFFF0
FFFFF0
FFFFF0
FFFFF0
ENDCHAR
STARTCHAR 1EB4
ENCODING 7860
SWIDTH 565 0
DWIDTH 22 0
BBX 20 39 2 0
BITMAP
00FD80
00FF80
00FF80
000F80
000000
0FF800
07F800
07F000
03E000
000000
000000
03E000
0FF800
1FFE00
3FFF00
7FFF00
7FFF80
FE1F80
FC1F80
FC0F80
FC0FC0
FC0FC0
FC0FC0
FC0FC0
FC0FC0
FC0FC0
FC0FC0
FC0FC0
FC0FC0
FC0FC0
FC0FC0
FC0FC0
FC0FC0
FC0FC0
FFFFF0
FFFFF0
FFFFF0
FFFFF0
FFFFF0
ENDCHAR
STARTCHAR 1EB5
ENCODING 7861
SWIDTH 565 0
DWIDTH 22 0
BBX 20 39 2 0
BITMAP
00FD80
00FF80
00FF80
000F80
000000
0FF800
07F800
07F000
03E000
000000
000000
03E000
0FF800
1FFE00
3FFF00
7FFF00
7FFF80
FE1F80
FC1F80
FC0F80
FC0FC0
FC0FC0
FC0FC0
FC0FC0
FC0FC0
FC0FC0
FC0FC0
FC0FC0
FC0FC0
FC0FC0
FC0FC0
FC0FC0
FC0FC0
FC0FC0
FFFFF0
FFFFF0
FFFFF0
FFFFF0
FFFFF0
ENDCHAR
STARTCHAR 1EB6
ENCODING 7862
SWIDTH 565 0
DWIDTH 22 0
BBX 20 45 2 -11
BITMAP
0FF800
07F800
07F000
03E000
000000
000000
03E000
0FF800
1FFE00
3FFF00
7FFF00
7FFF80
FE1F80
FC1F80
FC0F80
FC0FC0
FC0FC0
FC0FC0
FC0FC0
FC0FC0
FC0FC0
FC0FC0
FC0FC0
FC0FC0
FC0FC0
FC0FC0
FC0FC0
FC0FC0
FC0FC0
FFFFF0
FFFFF0
FFFFF0
FFFFF0
FFFFF0
000000
000000
000000
000000
01E000
03F000
03F000
07F000
03F000
03E000
00C000
ENDCHAR
STARTCHAR 1EB7
ENCODING 7863
SWIDTH 565 0
DWIDTH 22 0
BBX 20 45 2 -11
BITMAP
0FF800
07F800
07F000
03E000
000000
000000
03E000
0FF800
1FFE00
3FFF00
7FFF00
7FFF80
FE1F80
FC1F80
FC0F80
FC0FC0
FC0FC0
FC0FC0
FC0FC0
FC0FC0
FC0FC0
FC0FC0
FC0FC0
FC0FC0
FC0FC0
FC0FC0
FC0FC0
FC0FC0
FC0FC0
FFFFF0
FFFFF0
FFFFF0
FFFFF0
FFFFF0
000000
000000
000000
000000
01E000
03F000
03F000
07F000
03F000
03E000
00C000
ENDCHAR
STARTCHAR 1EB8
ENCODING 7864
SWIDTH 514 0
DWIDTH 20 0
BBX 19 38 1 -11
BITMAP
3FFC00
3FFC00
3FFC00
3FFC00
3FFC00
3F0000
3F0000
3F0000
3F0000
3F0000
3F0000
FFFF00
FFFF00
FFFF00
FFFF00
FFFF00
3F0000
3F0000
3F0000
3F0000
3F0000
3F0000
3FFFE0
3FFFE0
3FFFE0
3FFFE0
3FFFE0
000000
000000
000000
000000
007800
00FC00
00FC00
00FC00
00FC00
00FC00
003000
ENDCHAR
STARTCHAR 1EB9
ENCODING 7865
SWIDTH 514 0
DWIDTH 20 0
BBX 19 38 1 -11
BITMAP
3FFC00
3FFC00
3FFC00
3FFC00
3FFC00
3F0000
3F0000
3F0000
3F0000
3F0000
3F0000
FFFF00
FFFF00
FFFF00
FFFF00
FFFF00
3F0000
3F0000
3F0000
3F0000
3F0000
3F0000
3FFFE0
3FFFE0
3FFFE0
3FFFE0
3FFFE0
000000
000000
000000
000000
007800
00FC00
00FC00
00FC00
00FC00
00FC00
003000
ENDCHAR
STARTCHAR 1EBA
ENCODING 7866
SWIDTH 514 0
DWIDTH 20 0
BBX 19 37 1 0
BITMAP
01C000
01C000
01C000
03C000
03C000
038000
03C000
000000
000000
000000
3FFC00
3FFC00
3FFC00
3FFC00
3FFC00
3F0000
3F0000
3F0000
3F0000
3F0000
3F0000
FFFF00
FFFF00
FFFF00
FFFF00
FFFF00
3F0000
3F0000
3F0000
3F0000
3F0000
3F0000
3FFFE0
3FFFE0
3FFFE0
3FFFE0
3FFFE0
ENDCHAR
STARTCHAR 1EBB
ENCODING 7867
SWIDTH 514 0
DWIDTH 20 0
BBX 19 37 1 0
BITMAP
01C000
01C000
01C000
03C000
03C000
038000
03C000
000000
000000
000000
3FFC00
3FFC00
3FFC00
3FFC00
3FFC00
3F0000
3F0000
3F0000
3F0000
3F0000
3F0000
FFFF00
FFFF00
FFFF00
FFFF00
FFFF00
3F0000
3F0000
3F0000
3F0000
3F0000
3F0000
3FFFE0
3FFFE0
3FFFE0
3FFFE0
3FFFE0
ENDCHAR
STARTCHAR 1EBC
ENCODING 7868
SWIDTH 514 0
DWIDTH 20 0
BBX 19 35 1 0
BITMAP
0F0000
1FF000
1FF000
1FF000
004000
000000
000000
000000
3FFC00
3FFC00
3FFC00
3FFC00
3FFC00
3F0000
3F0000
3F0000
3F0000
3F0000
3F0000
FFFF00
FFFF00
FFFF00
FFFF00
FFFF00
3F0000
3F0000
3F0000
3F0000
3F0000
3F0000
3FFFE0
3FFFE0
3FFFE0
3FFFE0
3FFFE0
ENDCHAR
STARTCHAR 1EBD
ENCODING 7869
SWIDTH 514 0
DWIDTH 20 0
BBX 19 35 1 0
BITMAP
0F0000
1FF000
1FF000
1FF000
004000
000000
000000
000000
3FFC00
3FFC00
3FFC00
3FFC00
3FFC00
3F0000
3F0000
3F0000
3F0000
3F0000
3F0000
FFFF00
FFFF00
FFFF00
FFFF00
FFFF00
3F0000
3F0000
3F0000
3F0000
3F0000
3F0000
3FFFE0
3FFFE0
3FFFE0
3FFFE0
3FFFE0
ENDCHAR
STARTCHAR 1EBE
ENCODING 7870
SWIDTH 514 0
DWIDTH 20 0
BBX 19 37 1 0
BITMAP
0003C0
000780
018780
01C700
03E000
07F000
0FF800
000000
000000
000000
3FFC00
3FFC00
3FFC00
3FFC00
3FFC00
3F0000
3F0000
3F0000
3F0000
3F0000
3F0000
FFFF00
FFFF00
FFFF00
FFFF00
FFFF00
3F0000
3F0000
3F0000
3F0000
3F0000
3F0000
3FFFE0
3FFFE0
3FFFE0
3FFFE0
3FFFE0
ENDCHAR
STARTCHAR 1EBF
ENCODING 7871
SWIDTH 514 0
DWIDTH 20 0
BBX 19 37 1 0
BITMAP
0003C0
000780
018780
01C700
03E000
07F000
0FF800
000000
000000
000000
3FFC00
3FFC00
3FFC00
3FFC00
3FFC00
3F0000
3F0000
3F0000
3F0000
3F0000
3F0000
FFFF00
FFFF00
FFFF00
FFFF00
FFFF00
3F0000
3F0000
3F0000
3F0000
3F0000
3F0000
3FFFE0
3FFFE0
3FFFE0
3FFFE0
3FFFE0
ENDCHAR
STARTCHAR 1EC0
ENCODING 7872
SWIDTH 514 0
DWIDTH 20 0
BBX 20 37 0 0
BITMAP
F00000
F00000
78C000
38E000
01F000
03F800
07FC00
000000
000000
000000
1FFE00
1FFE00
1FFE00
1FFE00
1FFE00
1F8000
1F8000
1F8000
1F8000
1F8000
1F8000
7FFF80
7FFF80
7FFF80
7FFF80
7FFF80
1F8000
1F8000
1F8000
1F8000
1F8000
1F8000
1FFFF0
1FFFF0
1FFFF0
1FFFF0
1FFFF0
ENDCHAR
STARTCHAR 1EC1
ENCODING 7873
SWIDTH 514 0
DWIDTH 20 0
BBX 20 37 0 0
BITMAP
F00000
F00000
78C000
38E000
01F000
03F800
07FC00
000000
000000
000000
1FFE00
1FFE00
1FFE00
1FFE00
1FFE00
1F8000
1F8000
1F8000
1F8000
1F8000
1F8000
7FFF80
7FFF80
7FFF80
7FFF80
7FFF80
1F8000
1F8000
1F8000
1F8000
1F8000
1F8000
1FFFF0
1FFFF0
1FFFF0
1FFFF0
1FFFF0
ENDCHAR
STARTCHAR 1EC2
ENCODING 7874
SWIDTH 514 0
DWIDTH 20 0
BBX 19 40 1 0
BITMAP
000700
000780
000700
000700
000F00
018F00
01CF00
03E000
07F000
0FF800
000000
000000
000000
3FFC00
3FFC00
3FFC00
3FFC00
3FFC00
3F0000
3F0000
3F0000
3F0000
3F0000
3F0000
FFFF00
FFFF00
FFFF00
FFFF00
FFFF00
3F0000
3F0000
3F0000
3F0000
3F0000
3F0000
3FFFE0
3FFFE0
3FFFE0
3FFFE0
3FFFE0
ENDCHAR
STARTCHAR 1EC3
ENCODING 7875
SWIDTH 514 0
DWIDTH 20 0
BBX 19 40 1 0
BITMAP
000700
000780
000700
000700
000F00
018F00
01CF00
03E000
07F000
0FF800
000000
000000
000000
3FFC00
3FFC00
3FFC00
3FFC00
3FFC00
3F0000
3F0000
3F0000
3F0000
3F0000
3F0000
FFFF00
FFFF00
FFFF00
FFFF00
FFFF00
3F0000
3F0000
3F0000
3F0000
3F0000
3F0000
3FFFE0
3FFFE0
3FFFE0
3FFFE0
3FFFE0
ENDCHAR
STARTCHAR 1EC4
ENCODING 7876
SWIDTH 514 0
DWIDTH 20 0
BBX 21 38 1 0
BITMAP
000600
000FF8
000FF8
018FF8
01C070
03E000
07F000
0FF800
000000
000000
000000
3FFC00
3FFC00
3FFC00
3FFC00
3FFC00
3F0000
3F0000
3F0000
3F0000
3F0000
3F0000
FFFF00
FFFF00
FFFF00
FFFF00
FFFF00
3F0000
3F0000
3F0000
3F0000
3F0000
3F0000
3FFFE0
3FFFE0
3FFFE0
3FFFE0
3FFFE0
ENDCHAR
STARTCHAR 1EC5
ENCODING 7877
SWIDTH 514 0
DWIDTH 20 0
BBX 21 38 1 0
BITMAP
000600
000FF8
000FF8
018FF8
01C070
03E000
07F000
0FF800
000000
000000
000000
3FFC00
3FFC00
3FFC00
3FFC00
3FFC00
3F0000
3F0000
3F0000
3F0000
3F0000
3F0000
FFFF00
FFFF00
FFFF00
FFFF00
FFFF00
3F0000
3F0000
3F0000
3F0000
3F0000
3F0000
3FFFE0
3FFFE0
3FFFE0
3FFFE0
3FFFE0
ENDCHAR
STARTCHAR 1EC6
ENCODING 7878
SWIDTH 514 0
DWIDTH 20 0
BBX 19 46 1 -10
BITMAP
018000
01C000
03E000
07F000
0FF800
000000
000000
000000
3FFC00
3FFC00
3FFC00
3FFC00
3FFC00
3F0000
3F0000
3F0000
3F0000
3F0000
3F0000
FFFF00
FFFF00
FFFF00
FFFF00
FFFF00
3F0000
3F0000
3F0000
3F0000
3F0000
3F0000
3FFFE0
3FFFE0
3FFFE0
3FFFE0
3FFFE0
000000
000000
000000
000000
007800
00FC00
00FC00
00FC00
00FC00
00FC00
003000
ENDCHAR
STARTCHAR 1EC7
ENCODING 7879
SWIDTH 514 0
DWIDTH 20 0
BBX 19 46 1 -10
BITMAP
018000
01C000
03E000
07F000
0FF800
000000
000000
000000
3FFC00
3FFC00
3FFC00
3FFC00
3FFC00
3F0000
3F0000
3F0000
3F0000
3F0000
3F0000
FFFF00
FFFF00
FFFF00
FFFF00
FFFF00
3F0000
3F0000
3F0000
3F0000
3F0000
3F0000
3FFFE0
3FFFE0
3FFFE0
3FFFE0
3FFFE0
000000
000000
000000
000000
007800
00FC00
00FC00
00FC00
00FC00
00FC00
003000
ENDCHAR
STARTCHAR 1EC8
ENCODING 7880
SWIDTH 257 0
DWIDTH 10 0
BBX 6 26 2 0
BITMAP
38
38
78
78
70
70
78
00
00
FC
FC
FC
FC
FC
FC
FC
FC
FC
FC
FC
FC
FC
FC
FC
FC
FC
ENDCHAR
STARTCHAR 1EC9
ENCODING 7881
SWIDTH 257 0
DWIDTH 10 0
BBX 6 26 2 0
BITMAP
38
38
78
78
70
70
78
00
00
FC
FC
FC
FC
FC
FC
FC
FC
FC
FC
FC
FC
FC
FC
FC
FC
FC
ENDCHAR
STARTCHAR 1ECA
ENCODING 7882
SWIDTH 231 0
DWIDTH 9 0
BBX 11 42 -1 -10
BITMAP
0400
0600
0600
0F00
FFE0
3FC0
1F80
1F80
1F80
1980
2040
0000
0000
0000
1F80
1F80
1F80
1F80
1F80
1F80
1F80
1F80
1F80
1F80
1F80
1F80
1F80
1F80
1F80
1F80
1F80
0000
0000
0000
0000
0F00
1F80
1F80
1F80
1F80
1F80
0600
ENDCHAR
STARTCHAR 1ECB
ENCODING 7883
SWIDTH 231 0
DWIDTH 9 0
BBX 11 42 -1 -10
BITMAP
0400
0600
0600
0F00
FFE0
3FC0
1F80
1F80
1F80
1980
2040
0000
0000
0000
1F80
1F80
1F80
1F80
1F80
1F80
1F80
1F80
1F80
1F80
1F80
1F80
1F80
1F80
1F80
1F80
1F80
0000
0000
0000
0000
0F00
1F80
1F80
1F80
1F80
1F80
0600
ENDCHAR
STARTCHAR 1ECC
ENCODING 7884
SWIDTH 822 0
DWIDTH 32 0
BBX 30 39 1 -11
BITMAP
000FC000
007FF800
01FFFE00
07FFFF80
0FFFFFC0
1FFFFFE0
1FE01FE0
3FC007F0
3F0003F0
7F0003F8
7E0001F8
7E0001F8
7C0000FC
FC0000FC
FC0000FC
FC0000FC
7E0000FC
7E0001F8
7E0001F8
7F0003F8
3F8003F0
3FC00FF0
1FF01FE0
0FFFFFE0
07FFFFC0
03FFFF00
01FFFE00
007FF800
00070000
00000000
00000000
00000000
00078000
000FC000
000FC000
000FC000
000FC000
000FC000
00030000
ENDCHAR
STARTCHAR 1ECD
ENCODING 7885
SWIDTH 822 0
DWIDTH 32 0
BBX 30 39 1 -11
BITMAP
000FC000
007FF800
01FFFE00
07FFFF80
0FFFFFC0
1FFFFFE0
1FE01FE0
3FC007F0
3F0003F0
7F0003F8
7E0001F8
7E0001F8
7C0000FC
FC0000FC
FC0000FC
FC0000FC
7E0000FC
7E0001F8
7E0001F8
7F0003F8
3F8003F0
3FC00FF0
1FF01FE0
0FFFFFE0
07FFFFC0
03FFFF00
01FFFE00
007FF800
00070000
00000000
00000000
00000000
00078000
000FC000
000FC000
000FC000
000FC000
000FC000
00030000
ENDCHAR
STARTCHAR 1ECE
ENCODING 7886
SWIDTH 822 0
DWIDTH 32 0
BBX 30 38 1 -1
BITMAP
00038000
00038000
00038000
00078000
00070000
00070000
00070000
00000000
00000000
000FC000
007FF800
01FFFE00
07FFFF80
0FFFFFC0
1FFFFFE0
1FE01FE0
3FC007F0
3F0003F0
7F0003F8
7E0001F8
7E0001F8
7C0000FC
FC0000FC
FC0000FC
FC0000FC
7E0000FC
7E0001F8
7E0001F8
7F0003F8
3F8003F0
3FC00FF0
1FF01FE0
0FFFFFE0
07FFFFC0
03FFFF00
01FFFE00
007FF800
00070000
ENDCHAR
STARTCHAR 1ECF
ENCODING 7887
SWIDTH 822 0
DWIDTH 32 0
BBX 30 38 1 -1
BITMAP
00038000
00038000
00038000
00078000
00070000
00070000
00070000
00000000
00000000
000FC000
007FF800
01FFFE00
07FFFF80
0FFFFFC0
1FFFFFE0
1FE01FE0
3FC007F0
3F0003F0
7F0003F8
7E0001F8
7E0001F8
7C0000FC
FC0000FC
FC0000FC
FC0000FC
7E0000FC
7E0001F8
7E0001F8
7F0003F8
3F8003F0
3FC00FF0
1FF01FE0
0FFFFFE0
07FFFFC0
03FFFF00
01FFFE00
007FF800
00070000
ENDCHAR
STARTCHAR 1ED0
ENCODING 7888
SWIDTH 822 0
DWIDTH 32 0
BBX 30 38 1 -1
BITMAP
00000780
00000F00
00030E00
00079E00
000FC000
000FE000
001FE000
00000000
00000000
000FC000
007FF800
01FFFE00
07FFFF80
0FFFFFC0
1FFFFFE0
1FE01FE0
3FC007F0
3F0003F0
7F0003F8
7E0001F8
7E0001F8
7C0000FC
FC0000FC
FC0000FC
FC0000FC
7E0000FC
7E0001F8
7E0001F8
7F0003F8
3F8003F0
3FC00FF0
1FF01FE0
0FFFFFE0
07FFFFC0
03FFFF00
01FFFE00
007FF800
00070000
ENDCHAR
STARTCHAR 1ED1
ENCODING 7889
SWIDTH 822 0
DWIDTH 32 0
BBX 30 38 1 -1
BITMAP
00000780
00000F00
00030E00
00079E00
000FC000
000FE000
001FE000
00000000
00000000
000FC000
007FF800
01FFFE00
07FFFF80
0FFFFFC0
1FFFFFE0
1FE01FE0
3FC007F0
3F0003F0
7F0003F8
7E0001F8
7E0001F8
7C0000FC
FC0000FC
FC0000FC
FC0000FC
7E0000FC
7E0001F8
7E0001F8
7F0003F8
3F8003F0
3FC00FF0
1FF01FE0
0FFFFFE0
07FFFFC0
03FFFF00
01FFFE00
007FF800
00070000
ENDCHAR
STARTCHAR 1ED2
ENCODING 7890
SWIDTH 822 0
DWIDTH 32 0
BBX 30 38 1 -1
BITMAP
07C00000
03C00000
01C30000
01E78000
000FC000
000FE000
001FE000
00000000
00000000
000FC000
007FF800
01FFFE00
07FFFF80
0FFFFFC0
1FFFFFE0
1FE01FE0
3FC007F0
3F0003F0
7F0003F8
7E0001F8
7E0001F8
7C0000FC
FC0000FC
FC0000FC
FC0000FC
7E0000FC
7E0001F8
7E0001F8
7F0003F8
3F8003F0
3FC00FF0
1FF01FE0
0FFFFFE0
07FFFFC0
03FFFF00
01FFFE00
007FF800
00070000
ENDCHAR
STARTCHAR 1ED3
ENCODING 7891
SWIDTH 822 0
DWIDTH 32 0
BBX 30 38 1 -1
BITMAP
07C00000
03C00000
01C30000
01E78000
000FC000
000FE000
001FE000
00000000
00000000
000FC000
007FF800
01FFFE00
07FFFF80
0FFFFFC0
1FFFFFE0
1FE01FE0
3FC007F0
3F0003F0
7F0003F8
7E0001F8
7E0001F8
7C0000FC
FC0000FC
FC0000FC
FC0000FC
7E0000FC
7E0001F8
7E0001F8
7F0003F8
3F8003F0
3FC00FF0
1FF01FE0
0FFFFFE0
07FFFFC0
03FFFF00
01FFFE00
007FF800
00070000
ENDCHAR
STARTCHAR 1ED4
ENCODING 7892
SWIDTH 822 0
DWIDTH 32 0
BBX 30 41 1 -1
BITMAP
00000E00
00000E00
00000E00
00001E00
00001C00
00031C00
00079E00
000FC000
000FE000
001FE000
00000000
00000000
000FC000
007FF800
01FFFE00
07FFFF80
0FFFFFC0
1FFFFFE0
1FE01FE0
3FC007F0
3F0003F0
7F0003F8
7E0001F8
7E0001F8
7C0000FC
FC0000FC
FC0000FC
FC0000FC
7E0000FC
7E0001F8
7E0001F8
7F0003F8
3F8003F0
3FC00FF0
1FF01FE0
0FFFFFE0
07FFFFC0
03FFFF00
01FFFE00
007FF800
00070000
ENDCHAR
STARTCHAR 1ED5
ENCODING 7893
SWIDTH 822 0
DWIDTH 32 0
BBX 30 41 1 -1
BITMAP
00000E00
00000E00
00000E00
00001E00
00001C00
00031C00
00079E00
000FC000
000FE000
001FE000
00000000
00000000
000FC000
007FF800
01FFFE00
07FFFF80
0FFFFFC0
1FFFFFE0
1FE01FE0
3FC007F0
3F0003F0
7F0003F8
7E0001F8
7E0001F8
7C0000FC
FC0000FC
FC0000FC
FC0000FC
7E0000FC
7E0001F8
7E0001F8
7F0003F8
3F8003F0
3FC00FF0
1FF01FE0
0FFFFFE0
07FFFFC0
03FFFF00
01FFFE00
007FF800
00070000
ENDCHAR
STARTCHAR 1ED6
ENCODING 7894
SWIDTH 822 0
DWIDTH 32 0
BBX 30 39 1 -1
BITMAP
00000C00
00001FF0
00001FF0
00031FF0
000780E0
000FC000
000FE000
001FE000
00000000
00000000
000FC000
007FF800
01FFFE00
07FFFF80
0FFFFFC0
1FFFFFE0
1FE01FE0
3FC007F0
3F0003F0
7F0003F8
7E0001F8
7E0001F8
7C0000FC
FC0000FC
FC0000FC
FC0000FC
7E0000FC
7E0001F8
7E0001F8
7F0003F8
3F8003F0
3FC00FF0
1FF01FE0
0FFFFFE0
07FFFFC0
03FFFF00
01FFFE00
007FF800
00070000
ENDCHAR
STARTCHAR 1ED7
ENCODING 7895
SWIDTH 822 0
DWIDTH 32 0
BBX 30 39 1 -1
BITMAP
00000C00
00001FF0
00001FF0
00031FF0
000780E0
000FC000
000FE000
001FE000
00000000
00000000
000FC000
007FF800
01FFFE00
07FFFF80
0FFFFFC0
1FFFFFE0
1FE01FE0
3FC007F0
3F0003F0
7F0003F8
7E0001F8
7E0001F8
7C0000FC
FC0000FC
FC0000FC
FC0000FC
7E0000FC
7E0001F8
7E0001F8
7F0003F8
3F8003F0
3FC00FF0
1FF01FE0
0FFFFFE0
07FFFFC0
03FFFF00
01FFFE00
007FF800
00070000
ENDCHAR
STARTCHAR 1ED8
ENCODING 7896
SWIDTH 822 0
DWIDTH 32 0
BBX 30 46 1 -10
BITMAP
00030000
00078000
000FC000
000FE000
001FE000
00000000
00000000
000FC000
007FF800
01FFFE00
07FFFF80
0FFFFFC0
1FFFFFE0
1FE01FE0
3FC007F0
3F0003F0
7F0003F8
7E0001F8
7E0001F8
7C0000FC
FC0000FC
FC0000FC
FC0000FC
7E0000FC
7E0001F8
7E0001F8
7F0003F8
3F8003F0
3FC00FF0
1FF01FE0
0FFFFFE0
07FFFFC0
03FFFF00
01FFFE00
007FF800
00070000
00000000
00000000
00000000
00078000
000FC000
000FC000
000FC000
000FC000
000FC000
00030000
ENDCHAR
STARTCHAR 1ED9
ENCODING 7897
SWIDTH 822 0
DWIDTH 32 0
BBX 30 46 1 -10
BITMAP
00030000
00078000
000FC000
000FE000
001FE000
00000000
00000000
000FC000
007FF800
01FFFE00
07FFFF80
0FFFFFC0
1FFFFFE0
1FE01FE0
3FC007F0
3F0003F0
7F0003F8
7E0001F8
7E0001F8
7C0000FC
FC0000FC
FC0000FC
FC0000FC
7E0000FC
7E0001F8
7E0001F8
7F0003F8
3F8003F0
3FC00FF0
1FF01FE0
0FFFFFE0
07FFFFC0
03FFFF00
01FFFE00
007FF800
00070000
00000000
00000000
00000000
00078000
000FC000
000FC000
000FC000
000FC000
000FC000
00030000
ENDCHAR
STARTCHAR 1EDA
ENCODING 7898
SWIDTH 822 0
DWIDTH 32 0
BBX 30 36 1 -1
BITMAP
0000F000
0001E000
0001C000
0003C000
000380F8
000000F0
000000F0
000FC0F0
007FF8F0
01FFFEF0
07FFFF80
0FFFFFC0
1FFFFFE0
1FE01FE0
3FC007F0
3F0003F0
7F0003F8
7E0001F8
7E0001F8
7C0000FC
FC0000FC
FC0000FC
FC0000FC
7E0000FC
7E0001F8
7E0001F8
7F0003F8
3F8003F0
3FC00FF0
1FF01FE0
0FFFFFE0
07FFFFC0
03FFFF00
01FFFE00
007FF800
00070000
ENDCHAR
STARTCHAR 1EDB
ENCODING 7899
SWIDTH 822 0
DWIDTH 32 0
BBX 30 36 1 -1
BITMAP
0000F000
0001E000
0001C000
0003C000
000380F8
000000F0
000000F0
000FC0F0
007FF8F0
01FFFEF0
07FFFF80
0FFFFFC0
1FFFFFE0
1FE01FE0
3FC007F0
3F0003F0
7F0003F8
7E0001F8
7E0001F8
7C0000FC
FC0000FC
FC0000FC
FC0000FC
7E0000FC
7E0001F8
7E0001F8
7F0003F8
3F8003F0
3FC00FF0
1FF01FE0
0FFFFFE0
07FFFFC0
03FFFF00
01FFFE00
007FF800
00070000
ENDCHAR
STARTCHAR 1EDC
ENCODING 7900
SWIDTH 822 0
DWIDTH 32 0
BBX 30 36 1 -1
BITMAP
001E0000
001E0000
000F0000
000F0000
000700F8
000000F0
000000F0
000FC0F0
007FF8F0
01FFFEF0
07FFFF80
0FFFFFC0
1FFFFFE0
1FE01FE0
3FC007F0
3F0003F0
7F0003F8
7E0001F8
7E0001F8
7C0000FC
FC0000FC
FC0000FC
FC0000FC
7E0000FC
7E0001F8
7E0001F8
7F0003F8
3F8003F0
3FC00FF0
1FF01FE0
0FFFFFE0
07FFFFC0
03FFFF00
01FFFE00
007FF800
00070000
ENDCHAR
STARTCHAR 1EDD
ENCODING 7901
SWIDTH 822 0
DWIDTH 32 0
BBX 30 36 1 -1
BITMAP
001E0000
001E0000
000F0000
000F0000
000700F8
000000F0
000000F0
000FC0F0
007FF8F0
01FFFEF0
07FFFF80
0FFFFFC0
1FFFFFE0
1FE01FE0
3FC007F0
3F0003F0
7F0003F8
7E0001F8
7E0001F8
7C0000FC
FC0000FC
FC0000FC
FC0000FC
7E0000FC
7E0001F8
7E0001F8
7F0003F8
3F8003F0
3FC00FF0
1FF01FE0
0FFFFFE0
07FFFFC0
03FFFF00
01FFFE00
007FF800
00070000
ENDCHAR
STARTCHAR 1EDE
ENCODING 7902
SWIDTH 822 0
DWIDTH 32 0
BBX 30 38 1 -1
BITMAP
00038000
00038000
00038000
00078000
00070000
00070000
000700F8
000000F0
000000F0
000FC0F0
007FF8F0
01FFFEF0
07FFFF80
0FFFFFC0
1FFFFFE0
1FE01FE0
3FC007F0
3F0003F0
7F0003F8
7E0001F8
7E0001F8
7C0000FC
FC0000FC
FC0000FC
FC0000FC
7E0000FC
7E0001F8
7E0001F8
7F0003F8
3F8003F0
3FC00FF0
1FF01FE0
0FFFFFE0
07FFFFC0
03FFFF00
01FFFE00
007FF800
00070000
ENDCHAR
STARTCHAR 1EDF
ENCODING 7903
SWIDTH 822 0
DWIDTH 32 0
BBX 30 38 1 -1
BITMAP
00038000
00038000
00038000
00078000
00070000
00070000
000700F8
000000F0
000000F0
000FC0F0
007FF8F0
01FFFEF0
07FFFF80
0FFFFFC0
1FFFFFE0
1FE01FE0
3FC007F0
3F0003F0
7F0003F8
7E0001F8
7E0001F8
7C0000FC
FC0000FC
FC0000FC
FC0000FC
7E0000FC
7E0001F8
7E0001F8
7F0003F8
3F8003F0
3FC00FF0
1FF01FE0
0FFFFFE0
07FFFFC0
03FFFF00
01FFFE00
007FF800
00070000
ENDCHAR
STARTCHAR 1EE0
ENCODING 7904
SWIDTH 822 0
DWIDTH 32 0
BBX 30 36 1 -1
BITMAP
003C0000
003FE000
003FE000
003FE000
000000F8
000000F0
000000F0
000FC0F0
007FF8F0
01FFFEF0
07FFFF80
0FFFFFC0
1FFFFFE0
1FE01FE0
3FC007F0
3F0003F0
7F0003F8
7E0001F8
7E0001F8
7C0000FC
FC0000FC
FC0000FC
FC0000FC
7E0000FC
7E0001F8
7E0001F8
7F0003F8
3F8003F0
3FC00FF0
1FF01FE0
0FFFFFE0
07FFFFC0
03FFFF00
01FFFE00
007FF800
00070000
ENDCHAR
STARTCHAR 1EE1
ENCODING 7905
SWIDTH 822 0
DWIDTH 32 0
BBX 30 36 1 -1
BITMAP
003C0000
003FE000
003FE000
003FE000
000000F8
000000F0
000000F0
000FC0F0
007FF8F0
01FFFEF0
07FFFF80
0FFFFFC0
1FFFFFE0
1FE01FE0
3FC007F0
3F0003F0
7F0003F8
7E0001F8
7E0001F8
7C0000FC
FC0000FC
FC0000FC
FC0000FC
7E0000FC
7E0001F8
7E0001F8
7F0003F8
3F8003F0
3FC00FF0
1FF01FE0
0FFFFFE0
07FFFFC0
03FFFF00
01FFFE00
007FF800
00070000
ENDCHAR
STARTCHAR 1EE2
ENCODING 7906
SWIDTH 822 0
DWIDTH 32 0
BBX 30 42 1 -11
BITMAP
000000F8
000000F0
000000F0
000FC0F0
007FF8F0
01FFFEF0
07FFFF80
0FFFFFC0
1FFFFFE0
1FE01FE0
3FC007F0
3F0003F0
7F0003F8
7E0001F8
7E0001F8
7C0000FC
FC0000FC
FC0000FC
FC0000FC
7E0000FC
7E0001F8
7E0001F8
7F0003F8
3F8003F0
3FC00FF0
1FF01FE0
0FFFFFE0
07FFFFC0
03FFFF00
01FFFE00
007FF800
00070000
00000000
00000000
00000000
00078000
000FC000
000FC000
000FC000
000FC000
000FC000
00030000
ENDCHAR
STARTCHAR 1EE3
ENCODING 7907
SWIDTH 822 0
DWIDTH 32 0
BBX 30 42 1 -11
BITMAP
000000F8
000000F0
000000F0
000FC0F0
007FF8F0
01FFFEF0
07FFFF80
0FFFFFC0
1FFFFFE0
1FE01FE0
3FC007F0
3F0003F0
7F0003F8
7E0001F8
7E0001F8
7C0000FC
FC0000FC
FC0000FC
FC0000FC
7E0000FC
7E0001F8
7E0001F8
7F0003F8
3F8003F0
3FC00FF0
1FF01FE0
0FFFFFE0
07FFFFC0
03FFFF00
01FFFE00
007FF800
00070000
00000000
00000000
00000000
00078000
000FC000
000FC000
000FC000
000FC000
000FC000
00030000
ENDCHAR
STARTCHAR 1EE4
ENCODING 7908
SWIDTH 540 0
DWIDTH 21 0
BBX 17 38 2 -11
BITMAP
FC0F80
FC0F80
FC0F80
FC0F80
FC0F80
FC0F80
FC0F80
FC0F80
FC0F80
FC0F80
FC0F80
FC0F80
FC0F80
FC0F80
FC0F80
FC0F80
FC0F80
FC0F80
FC0F80
FC1F80
FC1F80
FE3F80
7FFF80
7FFF00
3FFE00
1FFC00
0FF800
00C000
000000
000000
000000
01C000
03E000
07F000
07F000
07F000
03E000
01C000
ENDCHAR
STARTCHAR 1EE5
ENCODING 7909
SWIDTH 540 0
DWIDTH 21 0
BBX 17 38 2 -11
BITMAP
FC0F80
FC0F80
FC0F80
FC0F80
FC0F80
FC0F80
FC0F80
FC0F80
FC0F80
FC0F80
FC0F80
FC0F80
FC0F80
FC0F80
FC0F80
FC0F80
FC0F80
FC0F80
FC0F80
FC1F80
FC1F80
FE3F80
7FFF80
7FFF00
3FFE00
1FFC00
0FF800
00C000
000000
000000
000000
01C000
03E000
07F000
07F000
07F000
03E000
01C000
ENDCHAR
STARTCHAR 1EE6
ENCODING 7910
SWIDTH 540 0
DWIDTH 21 0
BBX 17 38 2 -1
BITMAP
01C000
01E000
01E000
01C000
03C000
03C000
03C000
000000
000000
000000
FC0F80
FC0F80
FC0F80
FC0F80
FC0F80
FC0F80
FC0F80
FC0F80
FC0F80
FC0F80
FC0F80
FC0F80
FC0F80
FC0F80
FC0F80
FC0F80
FC0F80
FC0F80
FC0F80
FC1F80
FC1F80
FE3F80
7FFF80
7FFF00
3FFE00
1FFC00
0FF800
00C000
ENDCHAR
STARTCHAR 1EE7
ENCODING 7911
SWIDTH 540 0
DWIDTH 21 0
BBX 17 38 2 -1
BITMAP
01C000
01E000
01E000
01C000
03C000
03C000
03C000
000000
000000
000000
FC0F80
FC0F80
FC0F80
FC0F80
FC0F80
FC0F80
FC0F80
FC0F80
FC0F80
FC0F80
FC0F80
FC0F80
FC0F80
FC0F80
FC0F80
FC0F80
FC0F80
FC0F80
FC0F80
FC1F80
FC1F80
FE3F80
7FFF80
7FFF00
3FFE00
1FFC00
0FF800
00C000
ENDCHAR
STARTCHAR 1EE8
ENCODING 7912
SWIDTH 540 0
DWIDTH 21 0
BBX 22 36 2 -1
BITMAP
007800
007800
00F000
00E000
01E03C
00003C
00003C
00003C
FC0FB8
FC0FB8
FC0F80
FC0F80
FC0F80
FC0F80
FC0F80
FC0F80
FC0F80
FC0F80
FC0F80
FC0F80
FC0F80
FC0F80
FC0F80
FC0F80
FC0F80
FC0F80
FC0F80
FC1F80
FC1F80
FE3F80
7FFF80
7FFF00
3FFE00
1FFC00
0FF800
00C000
ENDCHAR
STARTCHAR 1EE9
ENCODING 7913
SWIDTH 540 0
DWIDTH 21 0
BBX 22 36 2 -1
BITMAP
007800
007800
00F000
00E000
01E03C
00003C
00003C
00003C
FC0FB8
FC0FB8
FC0F80
FC0F80
FC0F80
FC0F80
FC0F80
FC0F80
FC0F80
FC0F80
FC0F80
FC0F80
FC0F80
FC0F80
FC0F80
FC0F80
FC0F80
FC0F80
FC0F80
FC1F80
FC1F80
FE3F80
7FFF80
7FFF00
3FFE00
1FFC00
0FF800
00C000
ENDCHAR
STARTCHAR 1EEA
ENCODING 7914
SWIDTH 540 0
DWIDTH 21 0
BBX 22 36 2 -1
BITMAP
0F0000
078000
078000
03C000
01C03C
00003C
00003C
00003C
FC0FB8
FC0FB8
FC0F80
FC0F80
FC0F80
FC0F80
FC0F80
FC0F80
FC0F80
FC0F80
FC0F80
FC0F80
FC0F80
FC0F80
FC0F80
FC0F80
FC0F80
FC0F80
FC0F80
FC1F80
FC1F80
FE3F80
7FFF80
7FFF00
3FFE00
1FFC00
0FF800
00C000
ENDCHAR
STARTCHAR 1EEB
ENCODING 7915
SWIDTH 540 0
DWIDTH 21 0
BBX 22 36 2 -1
BITMAP
0F0000
078000
078000
03C000
01C03C
00003C
00003C
00003C
FC0FB8
FC0FB8
FC0F80
FC0F80
FC0F80
FC0F80
FC0F80
FC0F80
FC0F80
FC0F80
FC0F80
FC0F80
FC0F80
FC0F80
FC0F80
FC0F80
FC0F80
FC0F80
FC0F80
FC1F80
FC1F80
FE3F80
7FFF80
7FFF00
3FFE00
1FFC00
0FF800
00C000
ENDCHAR
STARTCHAR 1EEC
ENCODING 7916
SWIDTH 540 0
DWIDTH 21 0
BBX 22 38 2 -1
BITMAP
01C000
01E000
01E000
01C000
03C000
03C000
03C03C
00003C
00003C
00003C
FC0FB8
FC0FB8
FC0F80
FC0F80
FC0F80
FC0F80
FC0F80
FC0F80
FC0F80
FC0F80
FC0F80
FC0F80
FC0F80
FC0F80
FC0F80
FC0F80
FC0F80
FC0F80
FC0F80
FC1F80
FC1F80
FE3F80
7FFF80
7FFF00
3FFE00
1FFC00
0FF800
00C000
ENDCHAR
STARTCHAR 1EED
ENCODING 7917
SWIDTH 540 0
DWIDTH 21 0
BBX 22 38 2 -1
BITMAP
01C000
01E000
01E000
01C000
03C000
03C000
03C03C
00003C
00003C
00003C
FC0FB8
FC0FB8
FC0F80
FC0F80
FC0F80
FC0F80
FC0F80
FC0F80
FC0F80
FC0F80
FC0F80
FC0F80
FC0F80
FC0F80
FC0F80
FC0F80
FC0F80
FC0F80
FC0F80
FC1F80
FC1F80
FE3F80
7FFF80
7FFF00
3FFE00
1FFC00
0FF800
00C000
ENDCHAR
STARTCHAR 1EEE
ENCODING 7918
SWIDTH 540 0
DWIDTH 21 0
BBX 22 36 2 -1
BITMAP
0F0000
1FF800
1FF800
1FF800
00003C
00003C
00003C
00003C
FC0FB8
FC0FB8
FC0F80
FC0F80
FC0F80
FC0F80
FC0F80
FC0F80
FC0F80
FC0F80
FC0F80
FC0F80
FC0F80
FC0F80
FC0F80
FC0F80
FC0F80
FC0F80
FC0F80
FC1F80
FC1F80
FE3F80
7FFF80
7FFF00
3FFE00
1FFC00
0FF800
00C000
ENDCHAR
STARTCHAR 1EEF
ENCODING 7919
SWIDTH 540 0
DWIDTH 21 0
BBX 22 36 2 -1
BITMAP
0F0000
1FF800
1FF800
1FF800
00003C
00003C
00003C
00003C
FC0FB8
FC0FB8
FC0F80
FC0F80
FC0F80
FC0F80
FC0F80
FC0F80
FC0F80
FC0F80
FC0F80
FC0F80
FC0F80
FC0F80
FC0F80
FC0F80
FC0F80
FC0F80
FC0F80
FC1F80
FC1F80
FE3F80
7FFF80
7FFF00
3FFE00
1FFC00
0FF800
00C000
ENDCHAR
STARTCHAR 1EF0
ENCODING 7920
SWIDTH 540 0
DWIDTH 21 0
BBX 22 42 2 -11
BITMAP
00003C
00003C
00003C
00003C
FC0FB8
FC0FB8
FC0F80
FC0F80
FC0F80
FC0F80
FC0F80
FC0F80
FC0F80
FC0F80
FC0F80
FC0F80
FC0F80
FC0F80
FC0F80
FC0F80
FC0F80
FC0F80
FC0F80
FC1F80
FC1F80
FE3F80
7FFF80
7FFF00
3FFE00
1FFC00
0FF800
00C000
000000
000000
000000
01C000
03E000
07F000
07F000
07F000
03E000
01C000
ENDCHAR
STARTCHAR 1EF1
ENCODING 7921
SWIDTH 540 0
DWIDTH 21 0
BBX 22 42 2 -11
BITMAP
00003C
00003C
00003C
00003C
FC0FB8
FC0FB8
FC0F80
FC0F80
FC0F80
FC0F80
FC0F80
FC0F80
FC0F80
FC0F80
FC0F80
FC0F80
FC0F80
FC0F80
FC0F80
FC0F80
FC0F80
FC0F80
FC0F80
FC1F80
FC1F80
FE3F80
7FFF80
7FFF00
3FFE00
1FFC00
0FF800
00C000
000000
000000
000000
01C000
03E000
07F000
07F000
07F000
03E000
01C000
ENDCHAR
STARTCHAR 1EF2
ENCODING 7922
SWIDTH 514 0
DWIDTH 20 0
BBX 17 35 2 0
BITMAP
0F0000
0F0000
078000
038000
03C000
000000
000000
000000
F81F80
F81F80
F81F80
F81F80
F81F80
F81F80
F81F80
F81F80
F81F80
F81F80
F81F80
F81F80
FC1F80
FC1F80
FC1F80
FFFF80
7FFF00
7FFE00
3FFE00
1FF800
07E000
07E000
07E000
07E000
07E000
07E000
07E000
ENDCHAR
STARTCHAR 1EF3
ENCODING 7923
SWIDTH 514 0
DWIDTH 20 0
BBX 17 35 2 0
BITMAP
0F0000
0F0000
078000
038000
03C000
000000
000000
000000
F81F80
F81F80
F81F80
F81F80
F81F80
F81F80
F81F80
F81F80
F81F80
F81F80
F81F80
F81F80
FC1F80
FC1F80
FC1F80
FFFF80
7FFF00
7FFE00
3FFE00
1FF800
07E000
07E000
07E000
07E000
07E000
07E000
07E000
ENDCHAR
STARTCHAR 1EF4
ENCODING 7924
SWIDTH 514 0
DWIDTH 20 0
BBX 17 38 2 -11
BITMAP
F81F80
F81F80
F81F80
F81F80
F81F80
F81F80
F81F80
F81F80
F81F80
F81F80
F81F80
F81F80
FC1F80
FC1F80
FC1F80
FFFF80
7FFF00
7FFE00
3FFE00
1FF800
07E000
07E000
07E000
07E000
07E000
07E000
07E000
000000
000000
000000
000000
01C000
03E000
07F000
07F000
07F000
03E000
01C000
ENDCHAR
STARTCHAR 1EF5
ENCODING 7925
SWIDTH 514 0
DWIDTH 20 0
BBX 17 38 2 -11
BITMAP
F81F80
F81F80
F81F80
F81F80
F81F80
F81F80
F81F80
F81F80
F81F80
F81F80
F81F80
F81F80
FC1F80
FC1F80
FC1F80
FFFF80
7FFF00
7FFE00
3FFE00
1FF800
07E000
07E000
07E000
07E000
07E000
07E000
07E000
000000
000000
000000
000000
01C000
03E000
07F000
07F000
07F000
03E000
01C000
ENDCHAR
STARTCHAR 1EF6
ENCODING 7926
SWIDTH 514 0
DWIDTH 20 0
BBX 17 37 2 0
BITMAP
01C000
01C000
01C000
01C000
03C000
03C000
03C000
000000
000000
000000
F81F80
F81F80
F81F80
F81F80
F81F80
F81F80
F81F80
F81F80
F81F80
F81F80
F81F80
F81F80
FC1F80
FC1F80
FC1F80
FFFF80
7FFF00
7FFE00
3FFE00
1FF800
07E000
07E000
07E000
07E000
07E000
07E000
07E000
ENDCHAR
STARTCHAR 1EF7
ENCODING 7927
SWIDTH 514 0
DWIDTH 20 0
BBX 17 37 2 0
BITMAP
01C000
01C000
01C000
01C000
03C000
03C000
03C000
000000
000000
000000
F81F80
F81F80
F81F80
F81F80
F81F80
F81F80
F81F80
F81F80
F81F80
F81F80
F81F80
F81F80
FC1F80
FC1F80
FC1F80
FFFF80
7FFF00
7FFE00
3FFE00
1FF800
07E000
07E000
07E000
07E000
07E000
07E000
07E000
ENDCHAR
STARTCHAR 1EF8
ENCODING 7928
SWIDTH 514 0
DWIDTH 20 0
BBX 17 35 2 0
BITMAP
0F0800
1FF800
1FF800
1FF800
002000
000000
000000
000000
F81F80
F81F80
F81F80
F81F80
F81F80
F81F80
F81F80
F81F80
F81F80
F81F80
F81F80
F81F80
FC1F80
FC1F80
FC1F80
FFFF80
7FFF00
7FFE00
3FFE00
1FF800
07E000
07E000
07E000
07E000
07E000
07E000
07E000
ENDCHAR
STARTCHAR 1EF9
ENCODING 7929
SWIDTH 514 0
DWIDTH 20 0
BBX 17 35 2 0
BITMAP
0F0800
1FF800
1FF800
1FF800
002000
000000
000000
000000
F81F80
F81F80
F81F80
F81F80
F81F80
F81F80
F81F80
F81F80
F81F80
F81F80
F81F80
F81F80
FC1F80
FC1F80
FC1F80
FFFF80
7FFF00
7FFE00
3FFE00
1FF800
07E000
07E000
07E000
07E000
07E000
07E000
07E000
ENDCHAR
STARTCHAR 2013
ENCODING 8211
SWIDTH 565 0
DWIDTH 22 0
BBX 18 4 2 8
BITMAP
FFFFC0
FFFFC0
FFFFC0
FFFFC0
ENDCHAR
STARTCHAR 2014
ENCODING 8212
SWIDTH 822 0
DWIDTH 32 0
BBX 29 4 2 8
BITMAP
FFFFFFF8
FFFFFFF8
FFFFFFF8
FFFFFFF8
ENDCHAR
STARTCHAR 2018
ENCODING 8216
SWIDTH 257 0
DWIDTH 10 0
BBX 5 7 3 20
BITMAP
38
78
78
78
F0
F0
F0
ENDCHAR
STARTCHAR 2019
ENCODING 8217
SWIDTH 257 0
DWIDTH 10 0
BBX 6 7 2 20
BITMAP
3C
7C
78
78
70
70
F0
ENDCHAR
STARTCHAR 201A
ENCODING 8218
SWIDTH 257 0
DWIDTH 10 0
BBX 6 8 2 -5
BITMAP
3C
7C
78
78
78
70
F0
E0
ENDCHAR
STARTCHAR 201C
ENCODING 8220
SWIDTH 437 0
DWIDTH 17 0
BBX 12 7 3 20
BITMAP
3870
7870
78F0
78F0
F1F0
F1E0
F1E0
ENDCHAR
STARTCHAR 201D
ENCODING 8221
SWIDTH 437 0
DWIDTH 17 0
BBX 13 7 2 20
BITMAP
3C78
7C78
78F0
78F0
70F0
70E0
F1E0
ENDCHAR
STARTCHAR 201E
ENCODING 8222
SWIDTH 462 0
DWIDTH 18 0
BBX 14 8 2 -5
BITMAP
3C3C
7C7C
7878
7878
7878
7070
F0F0
E0E0
ENDCHAR
STARTCHAR 2020
ENCODING 8224
SWIDTH 437 0
DWIDTH 17 0
BBX 13 20 2 8
BITMAP
0780
0780
0780
FFF8
FFF8
FFF8
FFF8
0780
0780
0780
0780
0780
0780
0780
0780
0780
0780
0780
0780
0780
ENDCHAR
STARTCHAR 2021
ENCODING 8225
SWIDTH 437 0
DWIDTH 17 0
BBX 13 19 2 9
BITMAP
0780
0780
0780
FFF8
FFF8
FFF8
FFF8
0780
0780
0780
0780
0780
FFF8
FFF8
FFF8
FFF8
0780
0780
0780
ENDCHAR
STARTCHAR 2022
ENCODING 8226
SWIDTH 334 0
DWIDTH 13 0
BBX 9 9 2 7
BITMAP
0800
3F00
7F80
FF80
FF80
FF80
7F80
7F00
3E00
ENDCHAR
STARTCHAR 2026
ENCODING 8230
SWIDTH 745 0
DWIDTH 29 0
BBX 25 7 2 -1
BITMAP
3C1E0F00
7C3F1F80
FE7F3F80
FE7F3F80
FE3F1F80
7C3E1F00
100C0400
ENDCHAR
STARTCHAR 2030
ENCODING 8240
SWIDTH 1388 0
DWIDTH 54 0
BBX 50 28 2 0
BITMAP
07C00000000000
1FF001F0000000
3FF801E0000000
7FFC03C0000000
7CFC07C0000000
F83C0780000000
F83C0F00000000
F83C1F00000000
F87C1E00000000
7EFC3C00000000
7FF87C00000000
3FF8F800000000
1FF0F000000000
0781E000000000
0003E000000000
0003C1F801FC00
000787FE03FE00
000F8FFF07FF00
000F0FFF0FFF80
001E1F1F8F8F80
003E1F0F8F07C0
007C1E078F07C0
00781E0F8F07C0
00F01F0F8F87C0
01F01FFF0FFF80
01E00FFF07FF80
03C007FE03FF00
07C003FC01FC00
ENDCHAR
STARTCHAR 2039
ENCODING 8249
SWIDTH 411 0
DWIDTH 16 0
BBX 12 17 2 3
BITMAP
03E0
07C0
0FC0
0F80
1F00
3E00
7E00
7C00
FC00
7C00
3E00
1F00
0F80
0FC0
07C0
03E0
01F0
ENDCHAR
STARTCHAR 203A
ENCODING 8250
SWIDTH 411 0
DWIDTH 16 0
BBX 12 17 2 3
BITMAP
7C00
3E00
3F00
1F80
0F80
07C0
07E0
03E0
01F0
03E0
07C0
0F80
0F80
1F00
3E00
7C00
FC00
ENDCHAR
STARTCHAR 2044
ENCODING 8260
SWIDTH 694 0
DWIDTH 27 0
BBX 23 27 2 0
BITMAP
00001E
00003C
00007C
0000F8
0000F0
0001E0
0003E0
0003C0
000780
000F80
000F00
001E00
003E00
007C00
007800
00F000
01F000
01E000
03C000
07C000
0F8000
0F0000
1F0000
3E0000
3C0000
780000
F80000
ENDCHAR
STARTCHAR 20AC
ENCODING 8364
SWIDTH 642 0
DWIDTH 25 0
BBX 21 29 2 -1
BITMAP
0001F8
000FF8
003FF8
007FF8
00FFF8
01FFF8
03FC00
07F800
07E000
0FE000
FFFFC0
FFFFC0
FFFFC0
FFFFC0
0FC000
FFFFC0
FFFFC0
FFFFC0
FFFFC0
0FE000
07F000
07F800
03FE00
01FFF8
00FFF8
007FF8
003FF8
000FF8
000060
ENDCHAR
STARTCHAR 2122
ENCODING 8482
SWIDTH 848 0
DWIDTH 33 0
BBX 29 15 2 13
BITMAP
FFE02078
FFF83878
FFFC3C78
FFFF3F78
1E3FBFF8
1E1FFFF8
1E1FFFF8
1E1FFDF8
1E1EFC78
1E1E3C78
1E1E3C78
1E1E3C78
1E1E3C78
1E1E3C78
1E1E3C78
ENDCHAR
STARTCHAR 2190
ENCODING 8592
SWIDTH 822 0
DWIDTH 32 0
BBX 27 20 3 4
BITMAP
00400000
00E00000
01F00000
03F00000
07E00000
0FC00000
1F800000
3F000000
7FFFFFE0
FFFFFFE0
FFFFFFE0
7FFFFFE0
3F000000
1F800000
0FC00000
07E00000
03F00000
01F00000
00E00000
00400000
ENDCHAR
STARTCHAR 2191
ENCODING 8593
SWIDTH 642 0
DWIDTH 25 0
BBX 21 28 2 0
BITMAP
002000
007000
00F800
01FC00
03FE00
07FF00
0FFF80
1FFFC0
3FFFE0
7EFBF0
FCF9F8
78F8F0
30F860
00F800
00F800
00F800
00F800
00F800
00F800
00F800
00F800
00F800
00F800
00F800
00F800
00F800
00F800
00F800
ENDCHAR
STARTCHAR 2192
ENCODING 8594
SWIDTH 822 0
DWIDTH 32 0
BBX 28 20 2 4
BITMAP
00006000
0000F000
0001F800
0000FC00
00007E00
00003F00
00001F80
00000FC0
FFFFFFE0
FFFFFFF0
FFFFFFF0
FFFFFFE0
00000FC0
00001F80
00003F00
00007E00
0000FC00
0001F800
0000F000
00006000
ENDCHAR
STARTCHAR 2193
ENCODING 8595
SWIDTH 642 0
DWIDTH 25 0
BBX 21 28 2 -1
BITMAP
00F800
00F800
00F800
00F800
00F800
00F800
00F800
00F800
00F800
00F800
00F800
00F800
00F800
00F800
00F800
30F860
78F8F0
FCF9F8
7EFBF0
3FFFE0
1FFFC0
0FFF80
07FF00
03FE00
01FC00
00F800
007000
002000
ENDCHAR
STARTCHAR 2194
ENCODING 8596
SWIDTH 951 0
DWIDTH 37 0
BBX 31 20 3 4
BITMAP
00400400
00E00E00
01F01F00
03F00F80
07E007C0
0FC003E0
1F8001F0
3F0000F8
7FFFFFFC
FFFFFFFE
FFFFFFFE
7FFFFFFC
3F0000F8
1F8001F0
0FC003E0
07E007C0
03F00F80
01F01F00
00E00E00
00400400
ENDCHAR
STARTCHAR 2195
ENCODING 8597
SWIDTH 694 0
DWIDTH 27 0
BBX 22 29 3 -1
BITMAP
003000
007800
00FC00
03FE00
07FF80
0FFFC0
3FFFE0
7FFBF8
FCF9FC
F8F8FC
F0F838
60F818
00F800
00F800
00F800
00F800
00F800
60F818
F0F878
F8F8FC
FEF9FC
7FFFF0
1FFFE0
0FFFC0
07FF80
03FE00
00FC00
007800
002000
ENDCHAR
STARTCHAR 2196
ENCODING 8598
SWIDTH 642 0
DWIDTH 25 0
BBX 21 21 2 2
BITMAP
FFFE00
FFFE00
FFFE00
FFFE00
FF0000
FF8000
FFC000
FFE000
F7F000
F3F800
F1FC00
F0FE00
F07F00
F03F80
F01FC0
000FE0
0007F0
0003F8
0001F8
0000F0
000060
ENDCHAR
STARTCHAR 2197
ENCODING 8599
SWIDTH 642 0
DWIDTH 25 0
BBX 21 21 3 2
BITMAP
03FFF8
03FFF8
03FFF8
03FFF8
0007F8
000FF8
001FF8
003FF8
007F78
00FE78
01FC78
03F878
07F078
0FE078
1FC078
3F8000
7F0000
FE0000
FC0000
780000
300000
ENDCHAR
STARTCHAR 2198
ENCODING 8600
SWIDTH 642 0
DWIDTH 25 0
BBX 22 22 2 2
BITMAP
100000
380000
7C0000
FE0000
7F0000
3F8000
1FC000
0FE03C
07F03C
03F83C
01FC3C
00FE3C
007F3C
003FBC
001FFC
000FFC
0007FC
0003FC
01FFFC
01FFFC
01FFFC
01FFFC
ENDCHAR
STARTCHAR 2199
ENCODING 8601
SWIDTH 642 0
DWIDTH 25 0
BBX 22 22 2 2
BITMAP
000020
000070
0000F8
0001FC
0003F8
0007F0
000FE0
F01FC0
F03F80
F07F00
F0FE00
F1FC00
F3F800
F7F000
FFE000
FFC000
FF8000
FF0000
FFFE00
FFFE00
FFFE00
FFFE00
ENDCHAR
STARTCHAR 2202
ENCODING 8706
SWIDTH 617 0
DWIDTH 24 0
BBX 20 30 2 0
BITMAP
038000
03E000
07F800
07FC00
0FFE00
03FF00
00FF80
003F80
001FC0
000FC0
000FE0
01E7E0
0FFBF0
1FFFF0
3FFFF0
7FFFF0
7FFFF0
7F0FF0
FE07F0
FC03F0
FC07F0
FC07E0
FE0FE0
7F1FE0
7FFFC0
3FFF80
3FFF00
1FFE00
07FC00
004000
ENDCHAR
STARTCHAR 2205
ENCODING 8709
SWIDTH 745 0
DWIDTH 29 0
BBX 25 24 2 2
BITMAP
003E0300
01FFC780
07FFFF00
0F80FE00
1E003C00
3C007E00
3800FE00
7801EF00
7003C700
70078700
700F0700
701E0380
703C0380
70780700
70F00700
71E00700
7BC00F00
3F800E00
3F001E00
1E003C00
3F80F800
7FFFF000
F1FFC000
603F0000
ENDCHAR
STARTCHAR 220F
ENCODING 8719
SWIDTH 668 0
DWIDTH 26 0
BBX 22 32 2 -4
BITMAP
FFFFFC
FFFFFC
FFFFFC
FFFFFC
1F03E0
1F03E0
1F03E0
1F03E0
1F03E0
1F03E0
1F03E0
1F03E0
1F03E0
1F03E0
1F03E0
1F03E0
1F03E0
1F03E0
1F03E0
1F03E0
1F03E0
1F03E0
1F03E0
1F03E0
1F03E0
1F03E0
1F03E0
1F03E0
1F03E0
1F03E0
1F03E0
1F03E0
ENDCHAR
STARTCHAR 2211
ENCODING 8721
SWIDTH 514 0
DWIDTH 20 0
BBX 16 32 2 -4
BITMAP
FFFF
FFFF
FFFF
FFFF
FC00
7E00
7E00
3F00
1F00
1F80
0FC0
0FC0
07E0
07E0
03F0
01F0
01F0
03F0
07E0
07E0
0FC0
0F80
1F80
1F00
3F00
7E00
7C00
FC00
FFFF
FFFF
FFFF
FFFF
ENDCHAR
STARTCHAR 2212
ENCODING 8722
SWIDTH 565 0
DWIDTH 22 0
BBX 19 4 2 11
BITMAP
FFFFE0
FFFFE0
FFFFE0
FFFFE0
ENDCHAR
STARTCHAR 221A
ENCODING 8730
SWIDTH 745 0
DWIDTH 29 0
BBX 25 32 2 -4
BITMAP
0001FF80
0001FF80
0001FF80
0001FF80
0003FF80
0003E000
0003E000
0007E000
0007C000
0007C000
0007C000
000F8000
000F8000
000F8000
000F8000
001F0000
FC1F0000
7C1F0000
7C3E0000
7E3E0000
3E3E0000
3E3E0000
3F7C0000
1F7C0000
1F7C0000
0FF80000
0FF80000
0FF80000
07F00000
07F00000
07F00000
03F00000
ENDCHAR
STARTCHAR 221E
ENCODING 8734
SWIDTH 848 0
DWIDTH 33 0
BBX 29 14 2 7
BITMAP
03000600
1FE03FC0
3FF87FE0
7FFCFFF0
787FF0F8
F01FE078
F00FC038
F00F8038
F01FC078
703FE078
7FFDFFF0
3FF8FFF0
1FF03FE0
0FC00F80
ENDCHAR
STARTCHAR 222B
ENCODING 8747
SWIDTH 540 0
DWIDTH 21 0
BBX 17 32 2 -4
BITMAP
000F80
003F80
007F80
007F80
00FC00
00F800
00F800
00F800
01F000
01F000
01F000
01F000
01F000
01E000
03E000
03E000
03E000
03E000
03E000
03C000
07C000
07C000
07C000
07C000
07C000
078000
0F8000
0F8000
3F8000
FF0000
FE0000
FC0000
ENDCHAR
STARTCHAR 2248
ENCODING 8776
SWIDTH 540 0
DWIDTH 21 0
BBX 18 14 2 6
BITMAP
1C0000
FFE0C0
FFFFC0
FFFFC0
FFFFC0
003F80
000000
000000
000000
FF8000
FFFFC0
FFFFC0
FFFFC0
81FFC0
ENDCHAR
STARTCHAR 2260
ENCODING 8800
SWIDTH 565 0
DWIDTH 22 0
BBX 19 21 2 2
BITMAP
003E00
003C00
007C00
007800
FFFFE0
FFFFE0
FFFFE0
FFFFE0
01F000
01E000
03E000
03E000
FFFFE0
FFFFE0
FFFFE0
FFFFE0
FFFFE0
0F0000
0F0000
1F0000
1E0000
ENDCHAR
STARTCHAR 2264
ENCODING 8804
SWIDTH 565 0
DWIDTH 22 0
BBX 19 18 2 3
BITMAP
0001E0
001FE0
03FFE0
7FFFE0
FFFE00
FF8000
FF8000
FFFC00
FFFFE0
07FFE0
003FE0
0001E0
000000
000000
FFFFE0
FFFFE0
FFFFE0
FFFFE0
ENDCHAR
STARTCHAR 2265
ENCODING 8805
SWIDTH 565 0
DWIDTH 22 0
BBX 19 18 2 3
BITMAP
E00000
FF0000
FFF800
FFFF80
0FFFE0
007FE0
003FE0
07FFE0
FFFFE0
FFFC00
FF8000
F00000
000000
000000
FFFFE0
FFFFE0
FFFFE0
FFFFE0
ENDCHAR
STARTCHAR 25CA
ENCODING 9674
SWIDTH 540 0
DWIDTH 21 0
BBX 17 23 2 3
BITMAP
03E000
07F000
07F000
0FF800
0F7800
1F7C00
1E3C00
3E3E00
3C1E00
7C1F00
7C0F00
F80F80
780F80
7C0F00
3C1F00
3E1E00
1E3E00
1F3C00
0F7C00
0FF800
07F800
07F000
03F000
ENDCHAR
ENDFONT
